<?xml version="1.0" encoding="UTF-8" standalone="no" ?>
<!DOCTYPE svg PUBLIC "-//W3C//DTD SVG 1.1//EN" "http://www.w3.org/Graphics/SVG/1.1/DTD/svg11.dtd">
<svg xmlns="http://www.w3.org/2000/svg" xmlns:xlink="http://www.w3.org/1999/xlink" version="1.1" width="1280" height="1024" viewBox="0 0 1280 1024" xml:space="preserve">
<desc>Created with Fabric.js 4.4.0</desc>
<defs>
</defs>
<g transform="matrix(1 0 0 1 640 512)" id="background-logo"  >
<rect style="stroke: none; stroke-width: 0; stroke-dasharray: none; stroke-linecap: butt; stroke-dashoffset: 0; stroke-linejoin: miter; stroke-miterlimit: 4; fill: rgb(255,255,255); fill-opacity: 0; fill-rule: nonzero; opacity: 1;"  paint-order="stroke"  x="-640" y="-512" rx="0" ry="0" width="1280" height="1024" />
</g>
<g transform="matrix(1.9211538461538462 0 0 1.9211538461538462 632.7703273295738 489.6424770836302)" id="text-logo-path"  >
<path style="stroke: rgb(63,191,191); stroke-width: 5; stroke-dasharray: none; stroke-linecap: butt; stroke-dashoffset: 0; stroke-linejoin: miter; stroke-miterlimit: 4; fill: rgb(255,255,255); fill-rule: nonzero; opacity: 1;"  paint-order="stroke"  transform=" translate(-319.92999999999995, 42.735)" d="M 73.06 0 L 6.45 0 L 6.45 -79.94 L 73.06 -79.94 Q 78.59 -79.94 82.46 -76.04 Q 86.34 -72.14 86.34 -66.61 L 86.34 -66.61 L 86.34 -13.33 Q 86.34 -7.8 82.46 -3.9 Q 78.59 0 73.06 0 L 73.06 0 Z M 15.45 -66.61 L 15.45 -13.33 Q 15.45 -11.54 16.72 -10.27 Q 17.99 -9 19.78 -9 L 19.78 -9 L 73.06 -9 Q 74.85 -9 76.1 -10.27 Q 77.34 -11.54 77.34 -13.33 L 77.34 -13.33 L 77.34 -66.61 Q 77.34 -68.4 76.07 -69.67 Q 74.79 -70.95 73.06 -70.95 L 73.06 -70.95 L 19.78 -70.95 Q 17.99 -70.95 16.72 -69.67 Q 15.45 -68.4 15.45 -66.61 L 15.45 -66.61 Z M 98.54 -13.44 L 98.54 -13.44 L 98.54 -36.75 L 154.96 -36.75 L 154.96 -50.95 Q 154.96 -52.74 153.69 -54.01 Q 152.41 -55.28 150.62 -55.28 L 150.62 -55.28 L 98.54 -55.28 L 98.54 -64.39 L 150.62 -64.39 Q 156.26 -64.39 160.22 -60.43 Q 164.17 -56.48 164.17 -50.95 L 164.17 -50.95 L 164.17 0 L 111.98 0 Q 106.45 0 102.5 -3.93 Q 98.54 -7.86 98.54 -13.44 Z M 107.64 -27.64 L 107.64 -13.44 Q 107.64 -11.65 108.95 -10.38 Q 110.25 -9.11 111.98 -9.11 L 111.98 -9.11 L 154.96 -9.11 L 154.96 -27.64 L 107.64 -27.64 Z M 219.9 -28.29 L 176.59 -28.29 L 176.59 -37.4 L 219.9 -37.4 L 219.9 -28.29 Z M 243.04 0 L 234.05 0 L 234.05 -79.94 L 306.95 -79.94 L 306.95 -70.95 L 243.04 -70.95 L 243.04 -44.5 L 294.43 -44.5 L 294.43 -35.39 L 243.04 -35.39 L 243.04 0 Z M 322.89 0 L 313.78 0 L 313.78 -64.39 L 322.89 -64.39 L 322.89 0 Z M 322.89 -76.37 L 313.78 -76.37 L 313.78 -85.47 L 322.89 -85.47 L 322.89 -76.37 Z M 434.76 0 L 368.15 0 L 368.15 -79.94 L 434.76 -79.94 Q 440.29 -79.94 444.17 -76.04 Q 448.04 -72.14 448.04 -66.61 L 448.04 -66.61 L 448.04 -13.33 Q 448.04 -7.8 444.17 -3.9 Q 440.29 0 434.76 0 L 434.76 0 Z M 377.15 -66.61 L 377.15 -13.33 Q 377.15 -11.54 378.42 -10.27 Q 379.7 -9 381.49 -9 L 381.49 -9 L 434.76 -9 Q 436.55 -9 437.8 -10.27 Q 439.04 -11.54 439.04 -13.33 L 439.04 -13.33 L 439.04 -66.61 Q 439.04 -68.4 437.77 -69.67 Q 436.5 -70.95 434.76 -70.95 L 434.76 -70.95 L 381.49 -70.95 Q 379.7 -70.95 378.42 -69.67 Q 377.15 -68.4 377.15 -66.61 L 377.15 -66.61 Z M 469.94 0 L 460.95 0 L 460.95 -66.61 Q 460.95 -72.14 464.85 -76.04 Q 468.75 -79.94 474.28 -79.94 L 474.28 -79.94 L 527.56 -79.94 Q 533.09 -79.94 536.96 -76.04 Q 540.84 -72.14 540.84 -66.61 L 540.84 -66.61 L 540.84 0 L 531.84 0 L 531.84 -29.21 L 469.94 -29.21 L 469.94 0 Z M 469.94 -66.61 L 469.94 -38.21 L 531.84 -38.21 L 531.84 -66.61 Q 531.84 -68.4 530.57 -69.67 Q 529.29 -70.95 527.56 -70.95 L 527.56 -70.95 L 474.28 -70.95 Q 472.49 -70.95 471.22 -69.67 Q 469.94 -68.4 469.94 -66.61 L 469.94 -66.61 Z M 553.52 -13.33 L 553.52 -13.33 L 553.52 -66.61 Q 553.52 -72.14 557.4 -76.04 Q 561.27 -79.94 566.8 -79.94 L 566.8 -79.94 L 620.08 -79.94 Q 625.61 -79.94 629.51 -76.04 Q 633.41 -72.14 633.41 -66.61 L 633.41 -66.61 L 633.41 -13.33 Q 633.41 -7.8 629.54 -3.9 Q 625.66 0 620.08 0 L 620.08 0 L 566.8 0 Q 561.27 0 557.4 -3.88 Q 553.52 -7.75 553.52 -13.33 Z M 562.47 -66.61 L 562.47 -13.33 Q 562.47 -11.54 563.74 -10.27 Q 565.01 -9 566.8 -9 L 566.8 -9 L 620.08 -9 Q 621.87 -9 623.14 -10.27 Q 624.42 -11.54 624.42 -13.33 L 624.42 -13.33 L 624.42 -66.61 Q 624.42 -68.4 623.14 -69.67 Q 621.87 -70.95 620.08 -70.95 L 620.08 -70.95 L 566.8 -70.95 Q 565.01 -70.95 563.74 -69.67 Q 562.47 -68.4 562.47 -66.61 L 562.47 -66.61 Z" stroke-linecap="round" />
</g>
</svg>