<?xml version="1.0" encoding="UTF-8" standalone="no" ?>
<!DOCTYPE svg PUBLIC "-//W3C//DTD SVG 1.1//EN" "http://www.w3.org/Graphics/SVG/1.1/DTD/svg11.dtd">
<svg xmlns="http://www.w3.org/2000/svg" xmlns:xlink="http://www.w3.org/1999/xlink" version="1.1" width="1280" height="1024" viewBox="0 0 1280 1024" xml:space="preserve">
<desc>Created with Fabric.js 4.4.0</desc>
<defs>
</defs>
<g transform="matrix(1 0 0 1 640 512)" id="background-logo"  >
<rect style="stroke: none; stroke-width: 0; stroke-dasharray: none; stroke-linecap: butt; stroke-dashoffset: 0; stroke-linejoin: miter; stroke-miterlimit: 4; fill: rgb(255,255,255); fill-opacity: 0; fill-rule: nonzero; opacity: 1;"  paint-order="stroke"  x="-640" y="-512" rx="0" ry="0" width="1280" height="1024" />
</g>
<g transform="matrix(2.575206978083417 0 0 2.575206978083417 640 512)" id="logo-logo"  >
<g style=""  paint-order="stroke"   >
		<g transform="matrix(0.6623367883049517 0 0 -0.6623367883049517 0 0)"  >
<path style="stroke: none; stroke-width: 1; stroke-dasharray: none; stroke-linecap: butt; stroke-dashoffset: 0; stroke-linejoin: miter; stroke-miterlimit: 4; fill: rgb(255,255,255); fill-rule: nonzero; opacity: 1;"  paint-order="stroke"  transform=" translate(-128.59699999999998, -104.63949999999998)" d="M 0 0 C 0 5.101 2.369 9.603 6.011 12.622 C 8.861 14.985 12.472000000000001 16.463 16.464 16.463 C 20.438 16.463 24.034999999999997 14.997000000000002 26.88 12.651000000000002 C 30.543 9.633 32.927 5.117 32.927 0 C 32.927 -5.118 30.543 -9.633 26.88 -12.653 C 24.035 -14.998000000000001 20.438 -16.464 16.464 -16.464 C 12.471999999999998 -16.464 8.860999999999999 -14.985 6.010999999999999 -12.622999999999998 C 2.369 -9.603 0 -5.102 0 0 M 78.286 73.029 C 81.07000000000001 75.18599999999999 84.521 76.521 88.316 76.521 C 92.488 76.521 96.253 74.92 99.155 72.361 C 102.577 69.345 104.779 64.979 104.779 60.05800000000001 C 104.779 55.138000000000005 102.577 50.77100000000001 99.155 47.75500000000001 C 96.253 45.19600000000001 92.488 43.59400000000001 88.316 43.59400000000001 C 84.521 43.59400000000001 81.07000000000001 44.93000000000001 78.286 47.08700000000001 C 74.398 50.09800000000001 71.852 54.76000000000001 71.852 60.05800000000001 C 71.852 65.35600000000001 74.39800000000001 70.018 78.286 73.02900000000001 M 157.522 -71.04299999999999 C 160.47899999999998 -68.217 164.465 -66.458 168.878 -66.458 C 172.416 -66.458 175.67499999999998 -67.598 178.35799999999998 -69.497 C 182.57199999999997 -72.479 185.34099999999998 -77.366 185.34099999999998 -82.92099999999999 C 185.34099999999998 -88.476 182.57199999999997 -93.36399999999999 178.35799999999998 -96.34599999999999 C 175.67499999999998 -98.24499999999999 172.41599999999997 -99.38499999999999 168.878 -99.38499999999999 C 164.46499999999997 -99.38499999999999 160.47899999999998 -97.62499999999999 157.522 -94.79899999999999 C 154.388 -91.80099999999999 152.414 -87.601 152.414 -82.92099999999999 C 152.414 -78.24099999999999 154.38799999999998 -74.041 157.522 -71.04299999999999 M 229.781 3.321000000000012 C 232.695 5.936000000000012 236.507 7.5720000000000125 240.73000000000002 7.5720000000000125 C 244.46500000000003 7.5720000000000125 247.87 6.281000000000013 250.633 4.185000000000013 C 254.595 1.1780000000000128 257.193 -3.5339999999999874 257.193 -8.891999999999987 C 257.193 -14.247999999999987 254.59499999999997 -18.960999999999988 250.63299999999998 -21.96799999999999 C 247.86999999999998 -24.062999999999988 244.46499999999997 -25.35399999999999 240.73 -25.35399999999999 C 236.50699999999998 -25.35399999999999 232.695 -23.718999999999987 229.78099999999998 -21.10399999999999 C 226.42099999999996 -18.090999999999987 224.26699999999997 -13.760999999999989 224.26699999999997 -8.891999999999989 C 224.26699999999997 -4.020999999999988 226.42099999999996 0.3080000000000105 229.78099999999998 3.3210000000000104 M -13.565 0 C -13.565 -12.894 -5.398999999999999 -23.798 6.011000000000001 -28.054 C 9.277000000000001 -29.272 12.772000000000002 -30.029 16.464 -30.029 C 20.142 -30.029 23.622999999999998 -29.275 26.88 -28.064 C 38.308 -23.819 46.492999999999995 -12.907 46.492999999999995 0 C 46.492999999999995 12.906 38.30799999999999 23.818 26.879999999999995 28.063 L 26.879999999999995 198.975 C 45.379 183.933 73.127 161.381 78.286 157.173 L 78.286 88.242 C 66.659 84.1 58.287 73.106 58.287 60.058 C 58.287 47.01 66.65899999999999 36.016 78.286 31.873 C 81.437 30.751 84.78 30.028000000000002 88.316 30.028000000000002 C 92.15 30.028000000000002 95.784 30.815 99.155 32.125 C 110.367 36.480000000000004 118.345 47.307 118.345 60.058 C 118.345 72.809 110.367 83.635 99.155 87.99 L 99.155 167.08999999999997 L 99.155 276.2 C 119.07300000000001 258.711 152.514 229.35999999999999 157.522 224.97799999999998 L 157.522 113.682 L 157.522 -55.148 C 146.57399999999998 -59.63 138.849 -70.36 138.849 -82.921 C 138.849 -95.482 146.57399999999998 -106.212 157.522 -110.694 C 161.029 -112.129 164.85399999999998 -112.95 168.878 -112.95 C 172.212 -112.95 175.361 -112.279 178.35799999999998 -111.276 C 190.26799999999997 -107.28999999999999 198.90699999999998 -96.172 198.90699999999998 -82.92099999999999 C 198.90699999999998 -69.67099999999999 190.26799999999997 -58.553 178.35799999999998 -54.56599999999999 L 178.35799999999998 103.765 C 183.551 107.972 211.28199999999998 130.527 229.78099999999998 145.571 L 229.78099999999998 19.008 C 218.626 14.624 210.7 3.819 210.7 -8.892 C 210.7 -21.603 218.62599999999998 -32.407 229.78099999999998 -36.79 C 233.18099999999998 -38.126 236.85599999999997 -38.921 240.73 -38.921 C 244.22 -38.921 247.518 -38.208999999999996 250.63299999999998 -37.115 C 262.32399999999996 -33.008 270.75899999999996 -21.986000000000004 270.75899999999996 -8.892000000000003 C 270.75899999999996 4.203999999999997 262.32399999999996 15.225999999999996 250.63299999999995 19.331999999999997 L 250.63299999999995 189.4 L 178.35799999999995 130.62800000000001 L 178.35799999999995 234.428 L 78.286 322.229 L 78.286 184.041 L 6.011 242.809 L 6.011 28.053 C -5.399 23.797 -13.565 12.893 -13.565 0" stroke-linecap="round" />
</g>
</g>
</g>
</svg>