<?xml version="1.0" encoding="utf-8"?>
<!DOCTYPE svg PUBLIC "-//W3C//DTD SVG 20010904//EN" "http://www.w3.org/TR/2001/REC-SVG-20010904/DTD/svg10.dtd">
<svg version="1.0" xmlns="http://www.w3.org/2000/svg" width="1280px" height="1024px" viewBox="0 0 1280 1024" preserveAspectRatio="xMidYMid meet">
 <g fill="#fafbfb">
  <path d="M0 512 l0 -512 640 0 640 0 0 512 0 512 -640 0 -640 0 0 -512z m239 60.4 l4.5 -2.1 4.3 -4.3 4.4 -4.4 2.1 -4 2.2 -4.1 0.3 -49.1 0.3 -49.1 -2.1 -5.6 -2.1 -5.6 -4.3 -4.5 -4.4 -4.4 -3.8 -2 c-2.2 -1.1 -6.3 -2.5 -9.2 -3.1 l-5.3 -1.1 -55.7 0 -55.8 0 -1.2 1.2 -1.2 1.2 0 71.1 0 71.2 0.7 0.7 0.7 0.7 60.5 -0.3 60.6 -0.3 4.5 -2.1z m147.5 -45.4 l0 -47.5 -2.8 -5.7 -2.8 -5.6 -3.9 -3.6 c-2.1 -1.9 -5.6 -4.4 -7.7 -5.5 l-3.9 -1.9 -5.9 -1.1 -5.9 -1.1 -43.1 0 -43.1 0 -1.2 1.2 -1.2 1.2 0 11.2 0 11.2 0.6 1.6 0.6 1.6 46.4 0 46.4 0 0 9 0 9 -1.7 0.1 c-1 0 -21.5 0 -45.6 -0.1 l-43.8 -0.1 -1.5 1.2 -1.4 1.1 0 20.4 0 20.4 1.1 0 1.1 0 -0.4 4.3 -0.5 4.2 2 4 c4 8 10.6 14 18.7 16.8 l4.5 1.6 47.5 -0.2 47.5 -0.2 0 -47.5z m131.5 18.5 l0 -29.5 42.3 -0.2 42.2 -0.3 0.3 -13.2 0.3 -13.3 -42.6 0 -42.5 0 0 -16.6 0 -16.7 5.3 0.7 5.2 0.6 47.2 0 47.3 0 0.2 58.8 0.3 58.7 12.9 0.3 12.9 0.3 0.9 -1.3 0.8 -1.3 0 -57.2 0 -57.2 -1.6 -1.5 -1.5 -1.6 -12 0 -11.9 0 0 -3.5 0 -3.5 12.4 0 12.4 0 1.1 -1.4 1.2 -1.4 -0.3 -11.8 -0.3 -11.9 -6.2 -0.9 -6.1 -0.9 -7.6 0.8 -7.5 0.7 -0.3 4 -0.3 4 -64.6 -0.1 -64.7 -0.2 -1.6 1.6 -1.6 1.6 0 69.9 0 69.8 0.6 1.6 0.6 1.6 13.4 0 13.4 0 0 -29.5z m322.1 26.8 l4.5 -2.2 4.2 -4 4.1 -4 2 -4 2.1 -3.9 1 -7.1 1.1 -7 -0.3 -42.3 -0.3 -42.3 -2.3 -5.7 -2.3 -5.7 -4.3 -4.5 -4.4 -4.4 -4 -2.1 -4 -2 -6.3 -1.1 -6.4 -1 -55.1 0 -55.2 0 -0.6 1.6 -0.6 1.6 0 70.7 0 70.8 0.7 0.7 0.7 0.7 60.6 -0.3 60.5 -0.3 4.6 -2.2z m54.4 0.5 l0.7 -2.1 -0.3 -22.1 -0.4 -22.1 45.1 -0.3 45.1 -0.2 0.7 3.7 0.6 3.8 0 20.8 0 20.7 13.5 0 13.6 0 -0.3 -60.2 -0.3 -60.3 -1.9 -4.9 -1.9 -4.8 -5.6 -5.7 -5.6 -5.7 -5.5 -1.9 -5.5 -1.9 -41.6 -0.4 -41.7 -0.3 -7.1 0.9 -7 1 -4.6 2.3 -4.6 2.3 -4 4.3 -4 4.4 -1.7 4.2 -1.7 4.2 0.3 61.3 0.2 61.2 12.5 0 12.4 0 0.6 -2.2z m253.7 -0.5 l4.7 -2.2 4.7 -4.8 4.7 -4.8 2.1 -4.5 2.1 -4.5 0.3 -46.9 0.3 -46.8 -2.1 -6.3 -2.1 -6.3 -3.9 -4.4 -3.8 -4.4 -4.9 -2.6 -4.9 -2.7 -7.3 -1.1 -7.2 -1.2 -42.7 0.4 -42.7 0.3 -5.7 2.8 -5.7 2.8 -4.5 5 -4.4 4.9 -1.8 4.8 -1.8 4.7 -0.4 44.5 -0.3 44.5 1.1 6 1.2 5.9 3.4 5.1 3.3 5 3.6 2.8 3.6 2.9 5.2 1.9 5.2 1.9 48 -0.3 48 -0.2 4.7 -2.2z m-669.4 -57.9 l0.3 -13.1 -3.8 -0.7 -3.8 -0.6 -36.7 0 -36.6 0 -1.6 0.6 -1.6 0.6 0 12.7 0 12.8 0.7 0.6 0.7 0.7 41 -0.2 41.1 -0.3 0.3 -13.1z"/>
  <path d="M139.7 547.3 l-0.7 -0.6 0 -44.9 0 -44.8 45.5 0 45.5 0 0 45.5 0 45.5 -44.8 0 -44.9 0 -0.6 -0.7z"/>
  <path d="M293 538.5 l0 -9.5 33 0 33 0 0 9.5 0 9.5 -33 0 -33 0 0 -9.5z"/>
  <path d="M740.7 547.3 l-0.7 -0.6 0 -44.9 0 -44.8 45.5 0 45.5 0 0 45.5 0 45.5 -44.8 0 -44.9 0 -0.6 -0.7z"/>
  <path d="M894.9 498.8 c0 -0.2 -0.1 -9.6 -0.2 -21.1 l-0.2 -20.7 45.5 0.2 45.5 0.3 0 20.5 0 20.5 -45.2 0.3 c-24.9 0.1 -45.3 0.1 -45.4 0z"/>
  <path d="M1048.7 547.3 l-0.7 -0.6 0 -44.9 0 -44.8 46 0 46 0 -0.2 45.3 -0.3 45.2 -45.1 0.3 -45 0.2 -0.7 -0.7z"/>
 </g>
 <g fill="#e5ebe8">
  <path d="M109.7 577.4 l-0.7 -0.7 0 -74.2 0 -74.1 1.2 -1.2 1.2 -1.2 58.8 0 58.7 0 5.3 1.1 c2.9 0.6 7 2 9.2 3.1 l3.8 2 4.4 4.4 4.3 4.5 2.1 5.6 2.1 5.6 -0.3 52.1 -0.3 52.1 -2.2 4.1 -2.1 4 -4.4 4.4 -4.3 4.3 -4.5 2.1 -4.5 2.1 -63.6 0.3 -63.5 0.3 -0.7 -0.7z m128.8 -6.3 l4 -1.8 4.1 -3.9 4.2 -4 2.3 -4.5 2.4 -4.4 0 -50.5 0 -50.5 -1.9 -3.5 c-1 -1.9 -3.9 -5.6 -6.4 -8.3 l-4.6 -4.7 -5.4 -2 -5.3 -2 -58.9 0 -59 0 0 71 0 71 60.3 0 60.2 0 4 -1.9z"/>
  <path d="M138 502.5 l0 -46.5 4.5 0 4.5 0 0 2 0 2 -2.5 0 -2.5 0 0.2 42.3 0.3 42.2 42.3 0.3 42.2 0.2 0 -42.5 0 -42.5 -1.5 0 -1.5 0 0 -2.5 0 -2.5 3.5 0 3.5 0 0.5 2.2 0.6 2.3 -0.3 44.5 -0.3 44.5 -46.7 0.3 -46.8 0.2 0 -46.5z"/>
  <path d="M284 576.3 c-8.1 -2.8 -14.6 -8.7 -18.8 -16.8 l-2 -4 -0.3 -3 -0.3 -3 0.7 -1.3 0.8 -1.2 -1 0 -1.1 0 0 -23.4 0 -23.4 1.4 -1.1 1.4 -1.1 43.8 0 c24.2 0 44.7 0 45.7 0 l1.7 0 0 -6 0 -6 -46.4 0 -46.4 0 -0.6 -1.6 -0.6 -1.6 0 -14.2 0 -14.2 1.2 -1.2 1.2 -1.2 46.1 0 46.1 0 5.9 1.1 5.9 1.1 3.9 1.9 c2.1 1.1 5.6 3.6 7.7 5.5 l3.9 3.6 2.8 5.6 2.8 5.7 0 50.5 0 50.5 -50.5 0.2 -50.5 0.2 -4.5 -1.6z m101.8 -50 l-0.4 -46.8 -2.2 -4.5 c-1.2 -2.5 -3.5 -6.1 -5.1 -8.1 l-2.9 -3.5 -5.3 -2.9 -5.4 -3 -48.7 -0.3 -48.8 -0.3 0 12.1 0 12 45.9 0 45.9 0 1.1 1.4 1.2 1.4 -0.3 9.3 -0.3 9.4 -46.7 0.3 -46.8 0.2 0 22.8 0 22.7 1.1 4 1.1 4 3.4 4.7 3.5 4.7 4.8 2.9 c2.6 1.7 5.7 3.2 6.7 3.5 1 0.2 23.7 0.5 50.3 0.6 l48.3 0.1 -0.4 -46.7z"/>
  <path d="M291.7 548.3 l-0.7 -0.6 0 -9.8 0 -9.7 1.6 -0.6 1.6 -0.6 32.3 0 32.3 0 1.1 1.4 1.2 1.4 -0.3 9.3 -0.3 9.4 -34.1 0.3 -34 0.2 -0.7 -0.7z m64.3 -9.8 l0 -6.5 -30 0 -30 0 0 6.5 0 6.5 30 0 30 0 0 -6.5z"/>
  <path d="M487.6 576.4 l-0.6 -1.6 0 -72.8 0 -72.9 1.6 -1.5 1.6 -1.6 64.6 0 64.7 0.1 0.3 -3.8 0.3 -3.8 1.1 -0.6 1 -0.6 14.6 -0.1 14.6 -0.1 1.3 1.1 1.3 1 0 14.7 0 14.7 -1.2 1.2 -1.2 1.2 -12.5 0.2 -12.6 0.2 12.8 0.5 12.8 0.6 0.9 1.5 1 1.5 0 60 0 60 -0.8 1.3 -0.9 1.3 -15.9 -0.3 -15.9 -0.3 -0.3 -58.7 -0.2 -58.8 -2 0 -2 0 0 -2 0 -2 3.4 0 3.5 0 0.3 -4.7 0.3 -4.8 12.8 -0.3 12.7 -0.3 0 -11.9 0 -12 -12 0 -12 0 0 3.3 0 3.3 -1.2 1.2 -1.2 1.2 -65.3 0 -65.3 0 0 71 0 71 14.5 0 14.5 0 0 2.5 0 2.5 -16.4 0 -16.4 0 -0.6 -1.6z m161.4 -61.4 l0 -58 -12 0 -12 0 0 58 0 58 12 0 12 0 0 -58z"/>
  <path d="M710.7 577.4 l-0.7 -0.7 0 -73.8 0 -73.7 0.6 -1.6 0.6 -1.6 58.2 0 58.1 0 6.4 1 6.3 1.1 4 2 4 2.1 4.4 4.4 4.3 4.5 2.3 5.7 2.3 5.7 0.3 45.3 0.3 45.4 -1.1 7 -1 7 -2.1 3.9 -2 4 -4.1 4 -4.2 4 -4.5 2.2 -4.6 2.2 -63.5 0.3 -63.6 0.3 -0.7 -0.7z m130.1 -6.8 c1.8 -1 5.1 -3.5 7.2 -5.6 l3.8 -3.8 2.4 -4.3 2.3 -4.4 0 -49.5 0 -49.5 -1.3 -3.8 -1.4 -3.7 -4.9 -5.4 -5 -5.5 -4.7 -1.8 -4.7 -1.8 -60 0 -60 0 -0.3 70.8 -0.2 70.8 61.7 -0.3 61.8 -0.3 3.3 -1.9z"/>
  <path d="M739.2 502.3 l0.3 -46.8 4 -0.3 c2.1 -0.2 5.4 -0.1 7.2 0.3 l3.3 0.6 0 1.9 0 2 -5.5 0 -5.5 0 0.2 42.3 0.3 42.2 42.3 0.3 42.2 0.2 0 -42.5 0 -42.5 -1.5 0 -1.5 0 0 -2.1 0 -2 3.8 0.3 3.7 0.3 0 46 0 46 -46.8 0.3 -46.7 0.2 0.2 -46.7z"/>
  <path d="M865.8 575.5 l0.4 -2.5 13.4 0 13.4 0 0.2 -23.7 0.3 -23.8 46.5 0 46.5 0 0.3 23.8 0.2 23.7 12 0 12 0 0 -59.8 0 -59.9 -3.1 -6.1 -3 -6.1 -3.1 -2.6 c-1.7 -1.4 -4.9 -3.6 -7.2 -4.8 l-4.1 -2.2 -47.9 -0.3 -48 -0.3 -5.5 1.8 -5.6 1.7 -5.6 5.5 -5.5 5.6 -1.7 4.9 c-0.9 2.7 -1.7 6.2 -1.7 7.8 l0 2.8 -1.3 0 -1.2 0 -1.2 -2.8 -1.2 -2.7 0.8 -3.5 c0.4 -1.9 1.5 -5.2 2.4 -7.2 l1.5 -3.7 4.1 -4.3 4 -4.4 4.4 -2.2 4.4 -2.2 4.9 -1 4.9 -0.9 47 0.2 47 0.3 5.5 1.9 5.5 1.9 5.6 5.7 5.6 5.7 1.9 4.8 1.9 4.9 0.3 63.3 0.3 63.2 -16.6 0 -16.5 0 0 -1.2 c-0.1 -0.7 0 -9.9 0 -20.4 l0.1 -19.1 -0.7 -4.2 -0.7 -4.1 -41.9 0.2 -42 0.3 0.1 22.5 0.2 22.6 -0.7 1.7 -0.6 1.7 -15.8 0 -15.7 0 0.5 -2.5z"/>
  <path d="M1039.3 576.1 l-5.2 -1.9 -3.6 -2.9 -3.6 -2.8 -3.3 -5 -3.4 -5.1 -1.2 -5.9 -1.1 -6 0.3 -47.5 0.4 -47.5 1.8 -4.7 1.8 -4.8 4.4 -4.9 4.5 -5 5.7 -2.8 5.7 -2.8 45.7 -0.3 45.8 -0.4 7.2 1.2 7.2 1.1 4.9 2.7 4.9 2.6 3.8 4.4 3.9 4.4 2.1 6.3 2.1 6.3 -0.3 49.8 -0.3 49.9 -2.1 4.5 -2.1 4.5 -4.7 4.8 -4.7 4.8 -4.7 2.2 -4.7 2.2 -51 0.2 -51 0.3 -5.2 -1.9z m107.2 -4.8 l4.9 -1.6 4.7 -4.7 c2.6 -2.6 5.5 -6.2 6.5 -8.1 l1.9 -3.4 0.3 -49.8 0.3 -49.8 -2.4 -5.2 c-1.3 -2.9 -3.5 -6.6 -5 -8.2 l-2.5 -3.1 -5.4 -2.9 -5.3 -3 -47.9 -0.3 -47.8 -0.3 -5.6 1.6 -5.5 1.6 -5.8 5.8 -5.8 5.8 -1.6 5.5 -1.6 5.6 0.3 47.8 0.3 47.9 2.7 5.1 2.7 5.2 4.2 3.5 4.2 3.6 4.1 1.5 4.1 1.4 48.1 0.1 48 0.1 4.9 -1.7z"/>
  <path d="M1047.7 548.3 l-0.7 -0.6 0 -45.9 0 -45.8 5 0 5 0 0 2 0 2 -3 0 -3 0 0.2 42.3 0.3 42.2 42.5 0 42.5 0 0.3 -42.2 0.2 -42.3 -2 0 -2 0 0 -2 0 -2 4 0 4 0 0 46.5 0 46.5 -46.3 0 -46.4 0 -0.6 -0.7z"/>
  <path d="M392.7 530.3 l-0.7 -0.6 0 -15.8 0 -15.9 2.3 -0.5 2.2 -0.6 42.5 0.3 42.5 0.3 0 16.5 0 16.5 -44.1 0.3 -44 0.2 -0.7 -0.7z m85.3 -16.3 l0 -12 -40.5 0 -40.5 0 0 12 0 12 40.5 0 40.5 0 0 -12z"/>
  <path d="M516 519.5 l0 -3.5 2.6 -1 2.5 -1 40.5 0 40.4 0 0 -12 0 -12 -42.5 0 -42.5 0 0 -3.5 0 -3.5 2 0 2 0 0 1.5 0 1.5 42.5 0 42.5 0 -0.2 16.3 -0.3 16.2 -42.2 0.3 -42.3 0.2 0 2 0 2 -2.5 0 -2.5 0 0 -3.5z"/>
  <path d="M894.3 500.3 l-1.3 -0.5 0 -21.9 0 -21.9 5 0 5 0 0 2 0 2 -2.7 0 -2.8 0 0.2 17.7 0.2 17.8 42.3 0 42.3 0 0.2 -17.4 0.1 -17.3 -1.9 -0.5 -2 -0.6 0.3 -1.6 0.3 -1.6 3.8 -0.3 3.7 -0.3 0 21.3 0 21.4 -1.2 1.2 -1.2 1.2 -44.6 -0.1 c-24.5 0 -45.1 -0.3 -45.7 -0.6z"/>
  <path d="M518.3 462.3 l-1.3 -0.5 0 -3.4 0 -3.4 2.3 0 c1.2 0 4.6 0.3 7.5 0.6 l5.2 0.7 0 1.9 0 2 -5.5 -0.4 -5.5 -0.3 0 1.8 0 1.7 -0.7 -0.1 c-0.5 0 -1.4 -0.3 -2 -0.6z"/>
 </g>
 <g fill="#d3ddd9">
  <path d="M335 576 l-51.5 -0.5 -5.2 -3.3 -5.2 -3.3 -3.5 -4.7 -3.4 -4.7 -1.1 -4 -1.1 -4 0 -25.7 0 -25.8 46.8 -0.2 46.7 -0.3 0.3 -6.3 0.3 -6.4 -1.2 -1.4 -1.1 -1.4 -45.9 0 -45.9 0 0 -15 0 -15.1 51.8 0.3 51.7 0.3 5.4 3 5.3 2.9 2.9 3.5 c3.4 4.2 6.9 11.3 6.9 14.1 l0 2 1.1 0 1 0 -0.6 1 -0.6 1 -0.2 47.2 -0.2 47.1 -1 0.1 c-0.5 0.1 -24.2 -0.1 -52.5 -0.4z m44 -50.8 l0 -41.8 -2.6 -5.2 -2.5 -5.1 -4.2 -3.1 -4.2 -3 -3.6 -1 -3.7 -1 -41.3 0.2 -41.4 0.3 -0.3 4.8 -0.3 4.7 45 0 45.1 0 2 2 2 2 0 15.9 0 15.8 -3.7 0.7 -3.8 0.6 -43.2 0 -43.3 0 0 18.3 0 18.2 2.4 5 2.3 5.1 3.4 2.8 c1.9 1.6 4.8 3.5 6.4 4.2 l3 1.3 43.3 0.1 43.2 0 0 -41.8z"/>
  <path d="M287.6 555.9 l-2.6 -2 0 -16.5 0 -16.4 42 0 42 0 0 17.9 0 17.8 -3.7 0.7 -3.8 0.6 -35.6 0 -35.6 0 -2.7 -2.1z m70.2 -16.7 l0.3 -6.4 -1.2 -1.4 -1.1 -1.4 -29.3 0 -29.3 0 -1.6 0.6 -1.6 0.6 0 6.7 0 6.8 0.7 0.6 0.7 0.7 31 -0.2 31.1 -0.3 0.3 -6.3z"/>
  <path d="M489.7 576.4 l-0.7 -0.7 0 -73.9 0 -73.8 65.4 0 65.4 0 1 -1.3 1 -1.2 0.4 -3.5 0.3 -3.5 1.3 0.1 c0.6 0.1 7.3 0.2 14.7 0.2 l13.5 0.2 0 15 0 14.9 -12.7 0.3 -12.8 0.3 0 2 0 2 12.8 0.3 12.7 0.3 0 60.9 0 61 -15 0 -15 0 -0.2 -58 -0.3 -58 -49 -0.3 -49 -0.2 -1.5 -0.8 -1.5 -0.7 0 14.5 0 14.5 42.3 0 42.2 0 0 15 0 15 -1.2 0 c-0.7 0 -18.9 0 -40.4 0 l-39.2 0 -2.8 1.1 -2.9 1.1 1.3 0.5 1.2 0.5 0 27.9 0 27.9 -13.9 0 c-7.7 0 -14.6 0.2 -15.3 0.5 l-1.4 0.6 -0.7 -0.7z m20.3 -38.9 l0 -29.5 42.5 0 42.5 0 0 -4.5 0 -4.5 -38.7 0 -38.8 0 -3.7 -0.6 -3.8 -0.7 0 -24.3 0 -24.4 53 0 53 0 0 -4.5 0 -4.5 -57.5 0 -57.5 0 -0.1 33.3 c0 18.2 -0.2 46.4 -0.5 62.5 l-0.4 29.3 0.5 1 0.6 0.9 4.5 0 4.4 0 0 -29.5z m132 -21.6 l0 -51 -4.2 0.3 -4.3 0.3 -0.3 50.8 -0.2 50.7 4.5 0 4.5 0 0 -51.1z m0 -80.9 l0 -5 -4.5 0 -4.5 0 0 5 0 5 4.5 0 4.5 0 0 -5z"/>
  <path d="M712.2 576.1 l-1.2 -0.7 0.2 -73.5 0.3 -73.4 62.3 -0.2 62.3 -0.3 5.1 2 5.2 1.9 4.3 4.3 4.3 4.3 2.3 4.5 2.2 4.5 0 53 0 53 -2.3 4.4 -2.4 4.3 -3.9 3.9 -3.9 3.9 -4.3 1.9 -4.2 2 -61.9 0.1 c-34 0 -62.1 0.2 -62.5 0.4 -0.4 0.3 -1.2 0.1 -1.9 -0.3z m127.6 -12.4 l4.2 -2.7 2.7 -4.2 2.8 -4.2 0.3 -48.3 0.3 -48.3 -2 -3.7 -1.9 -3.8 -2.9 -2.6 c-1.5 -1.4 -4 -3.3 -5.5 -4.2 l-2.7 -1.7 -56.1 0 -56 0 0 63.5 0 63.5 56.3 -0.2 56.3 -0.3 4.2 -2.8z"/>
  <path d="M737.3 557.3 c-1.2 -0.2 -2.7 -1 -3.3 -1.8 l-1.2 -1.4 0 -50.7 0.1 -50.6 1.7 -1.9 1.7 -1.9 50.4 0 50.3 0 2 2 2 2 0 50.3 0 50.4 -2.1 1.9 -2.1 1.9 -48.7 0.1 c-26.7 0.1 -49.6 0 -50.8 -0.3z m92.2 -54.6 l0 -42.7 -40 -0.4 c-22 -0.2 -41.6 -0.5 -43.5 -0.7 l-3.5 -0.4 -0.3 43.8 -0.2 43.7 43.7 -0.2 43.8 -0.3 0 -42.8z"/>
  <path d="M880.3 576.2 l-14.3 -0.3 0 -61.7 0 -61.8 1.7 -5 1.7 -4.9 5.5 -5.6 5.6 -5.5 5.6 -1.7 5.5 -1.8 51 0.3 50.9 0.3 4.1 2.2 c2.3 1.2 5.5 3.4 7.2 4.8 l3.1 2.6 3 6.1 3.1 6.1 0 2.8 0 2.7 1.3 0.5 1.2 0.4 -1.2 1.4 -1.3 1.3 0 58.9 0 58.9 -1.6 -0.6 -1.6 -0.6 -13.4 0 -13.4 0 -0.2 -23.7 -0.3 -23.8 -43.5 0 -43.5 0 -0.3 23.5 -0.2 23.4 -0.8 0.6 -0.7 0.5 -14.2 -0.3z m5.9 -32.6 l0.3 -23.4 0.8 -0.9 0.9 -0.8 52.8 0 52.8 0 0.9 0.8 0.8 0.9 0.3 23.4 0.4 23.4 4.4 0 4.5 0 -0.3 -55.7 -0.3 -55.8 -2.7 -4.6 -2.7 -4.5 -4.2 -3 -4.2 -2.9 -48.1 -0.5 -48.1 -0.5 -3.6 1.8 -3.7 1.8 -3.6 3.6 -3.6 3.7 -1.5 5 -1.5 5 0 53.3 0 53.3 4.4 0 4.4 0 0.4 -23.4z"/>
  <path d="M886.5 506.7 l-0.6 -2.2 0.3 -25.7 0.3 -25.6 1.9 -2.1 1.9 -2.1 50.7 0 50.7 0 1.9 2.1 1.9 2.1 0.3 25.6 0.3 25.7 -0.6 2.2 -0.5 2.3 -54 0 -54 0 -0.5 -2.3z m96.3 -9.9 l1.2 -1.2 0 -18 0 -18.1 -44 0 -44 0 0 18.7 0 18.6 1.3 0.5 c0.6 0.3 19.9 0.6 42.7 0.6 l41.6 0.1 1.2 -1.2z"/>
  <path d="M111 502 l0 -74 62 0 61.9 0 5.3 2 5.4 2 4.6 4.7 c2.5 2.7 5.4 6.4 6.4 8.3 l1.9 3.5 0 53.5 0 53.5 -2.4 4.4 -2.3 4.5 -4.2 4 -4.1 3.9 -4 1.8 -4 1.9 -63.2 0 -63.3 0 0 -74z m127.8 61.7 l4.2 -2.7 2.7 -4.2 2.8 -4.2 0.3 -48.3 0.3 -48.3 -1.7 -3.2 c-2.1 -4.2 -7.1 -9.6 -10.6 -11.4 l-2.7 -1.4 -56.1 0 -56 0 0 63.5 0 63.5 56.3 -0.2 56.3 -0.3 4.2 -2.8z"/>
  <path d="M136.5 557.3 c-1.1 -0.2 -2.6 -1.2 -3.2 -2.1 l-1.3 -1.6 0 -50.6 0 -50.7 1.8 -1.6 1.9 -1.7 50.1 0 50.2 0 0 1 0 1 1.5 0 1.5 0 0.5 2.3 0.6 2.2 -0.3 49.2 -0.3 49.2 -1.8 1.8 -1.8 1.8 -48.7 0.2 c-26.8 0 -49.6 -0.1 -50.7 -0.4z m92.3 -53.3 l0.3 -41.5 -0.6 -2.4 -0.6 -2.5 -0.8 1.2 -0.8 1.3 -42.6 -0.3 -42.7 -0.3 0 43.3 0 43.2 43.8 -0.2 43.7 -0.3 0.3 -41.5z"/>
  <path d="M1038.4 574.4 l-4.1 -1.5 -4.2 -3.6 -4.2 -3.5 -2.7 -5.2 -2.7 -5.1 -0.3 -50.9 -0.3 -50.8 1.6 -5.6 1.6 -5.5 5.8 -5.8 5.8 -5.8 5.5 -1.6 5.6 -1.6 50.8 0.3 50.9 0.3 4.1 2.2 c2.3 1.2 5.5 3.4 7.2 4.8 l3.1 2.6 3 6.1 3.1 6.1 0 2.8 0 2.7 1.3 0.5 1.2 0.5 -1.2 0.1 -1.3 0.1 0 45 0 45 1.3 0 1.2 0 -1.1 0.8 -1.2 0.7 -0.6 4.2 -0.5 4.3 -1.7 3.1 -1.6 3.2 -4.7 4.7 -4.7 4.7 -4.9 1.6 -4.9 1.7 -51 -0.1 -51.1 -0.1 -4.1 -1.4z m106.4 -9 l3.7 -1.5 2.8 -2.7 c1.6 -1.5 3.9 -4.5 5 -6.7 l2.2 -4 0 -47.5 0 -47.5 -1.7 -3.1 c-2.2 -4 -7.2 -9 -10.8 -10.9 l-2.8 -1.5 -48.1 0 -48.1 -0.1 -2.9 1.6 c-1.7 0.8 -4.6 3.2 -6.6 5.2 l-3.5 3.6 -1.5 5 -1.5 5.1 0 43.4 0 43.5 1.2 3.8 1.1 3.9 3.6 4.1 3.5 4.2 4 1.8 4.1 1.9 46.3 0 46.3 0 3.7 -1.6z"/>
  <path d="M1044.8 556.9 l-2.8 -1.1 -1 -4 -1.1 -4 0.3 -47.3 0.3 -47.3 1.9 -2.1 1.9 -2.1 50.7 0 50.7 0 1.9 2.1 1.9 2.1 0 48.7 0 48.6 -0.7 2.6 -0.8 2.7 -1.7 0.8 -1.8 0.9 -48.5 0.2 -48.5 0.2 -2.7 -1z m93.2 -54.1 l0 -43.3 -44 0 -44 0 0 42.6 0 42.6 0.7 0.6 0.6 0.7 43.4 0 43.3 0 0 -43.2z"/>
  <path d="M394 514 l0 -15 43.5 0 43.5 0 0 15 0 15 -43.5 0 -43.5 0 0 -15z m77 1 l0 -5 -33 0 -33 0 0 5 0 5 33 0 33 0 0 -5z"/>
 </g>
 <g fill="#c5d7d1">
  <path d="M1030.8 558 l-1.3 -3 -1.5 -0.1 -1.5 -0.1 1.3 -0.5 c0.6 -0.2 1.2 -0.9 1.2 -1.4 l0 -0.9 -1.5 0 -1.5 0 0 -1 c0 -0.5 0.5 -1 1 -1 l1 0 0 -1.5 0 -1.5 2 0 2 0 0 3.5 0 3.5 1 0 1 0 0 3.5 0 3.5 -0.9 0 -0.9 0 -1.4 -3z"/>
  <path d="M136 556.5 l0 -1.5 -1.9 0 -1.9 0 -0.6 -1.6 -0.6 -1.6 0 -48.4 0 -48.4 2 0 2 0 0 47.6 0 47.5 1.1 2 1 2 2 -0.6 1.9 -0.6 0 1 0 1.1 1.5 0 1.5 0 0 1.5 0 1.5 -4 0 -4 0 0 -1.5z"/>
  <path d="M226 556.5 l0 -1.5 1.5 0 1.5 0 0 -1.5 c0 -1.8 0.5 -1.8 3 -0.5 l1.8 1 1.3 -1.6 1.3 -1.6 -1.5 -0.9 -1.4 -0.9 1.8 0 1.7 0 0 -1.5 0 -1.5 1.5 0 1.5 0 0 4 0 4 -1.9 0 -1.9 0 -0.5 2 -0.5 2 -4.6 0 -4.6 0 0 -1.5z"/>
  <path d="M737 555.5 l0 -2.5 -2.5 0 -2.5 0 0 -49 0 -49 2 0 2 0 0 48.1 -0.1 48.1 1.2 1.4 1.2 1.4 1.8 -0.5 1.9 -0.6 0 1 0 1.1 1.5 0 1.5 0 0 1.5 0 1.5 -4 0 -4 0 0 -2.5z"/>
  <path d="M827 556.5 l0 -1.5 1.5 0 1.5 0 0 -1.5 0 -1.6 2 1.1 2 1.1 1 -0.6 1 -0.6 0 2.5 0 2.6 -4.5 0 -4.5 0 0 -1.5z"/>
  <path d="M1044.3 557.3 l-1.3 -0.5 0 -3.6 0 -3.6 2.1 2.3 2.2 2.3 0.8 -1.3 0.8 -1.3 0.7 1.7 0.6 1.7 1.4 0 1.4 0 0 1.5 0 1.5 -3.7 -0.1 c-2.1 0 -4.4 -0.3 -5 -0.6z"/>
  <path d="M1135 556.6 l0 -1.6 1.5 0 1.5 0 0 -1 0 -0.9 3.5 0.1 3.6 0.1 -0.3 2.1 -0.3 2.1 -4.7 0.3 -4.8 0.3 0 -1.5z"/>
  <path d="M850 547.5 l0 -5.5 1.4 0 1.4 0 0.7 2.9 0.6 2.8 -0.7 2.7 -0.6 2.6 -1.4 0 -1.4 0 0 -5.5z"/>
  <path d="M992.7 527.3 c-0.4 -0.3 -0.7 -1.7 -0.7 -3 l0 -2.3 -6.2 0 c-3.5 0 -7.3 -0.3 -8.5 -0.6 l-2.3 -0.6 0 -1.4 0 -1.4 9.9 0 9.9 0 0.6 2.3 c0.3 1.2 0.6 3.4 0.6 5 l0 2.7 -1.3 0 c-0.8 0 -1.7 -0.3 -2 -0.7z"/>
  <path d="M887 521.5 l0 -3.5 11 0 11 0 0 1.4 0 1.4 -2.2 0.6 c-1.3 0.3 -5.6 0.6 -9.5 0.6 l-7.3 0 0 1.5 0 1.5 -1.5 0 -1.5 0 0 -3.5z"/>
  <path d="M272.1 508.8 l0.1 -3.3 0.5 1.3 0.5 1.2 1.4 0 1.4 0 0 2 0 2 -2 0 -2 0 0.1 -3.2z"/>
  <path d="M361.3 466.3 l-2.3 -0.4 0 -1.9 0 -1.8 2 -0.5 2 -0.5 0 0.7 c0 0.4 1.4 1.1 3.2 1.6 l3.2 1 0.4 1.3 0.4 1.2 -3.4 -0.1 c-1.8 -0.1 -4.3 -0.4 -5.5 -0.6z"/>
  <path d="M850 457.5 l0 -6.5 1 0 c0.5 0 1.4 0.9 2 1.9 l1 1.9 -0.4 3.4 c-0.2 1.8 -0.4 3.9 -0.5 4.6 l-0.1 1.2 -1.5 0 -1.5 0 0 -6.5z"/>
  <path d="M236.4 455.5 l-0.6 -1.5 -1.4 0 -1.4 0 0 -1 0 -1 -1.5 0 -1.5 0 0 -1 0 -1 4 0 4 0 0 3.5 c0 3.7 -0.7 4.5 -1.6 2z"/>
  <path d="M236 441.5 l-2.5 -1.4 -3.7 -0.1 -3.8 0 0 -1.3 0 -1.4 3.7 -1.1 3.7 -1.1 0.7 1.1 0.7 1 1.3 -0.4 1.4 -0.5 1 0.8 c0.5 0.5 2.4 2 4 3.3 l3 2.5 -3.5 0 -3.5 0 -2.5 -1.4z"/>
  <path d="M642 439 l0 -4 1.4 0 1.4 0 0.6 2.3 c0.3 1.2 0.6 3 0.6 4 l0 1.7 -2 0 -2 0 0 -4z"/>
  <path d="M614.3 440.3 l-2.3 -0.4 0 -1.4 0 -1.4 1.8 -0.3 c0.9 -0.2 2.7 -0.2 3.8 0 l2.2 0.4 -0.5 1.9 -0.5 1.9 -1.2 -0.1 c-0.6 -0.1 -2.1 -0.4 -3.3 -0.6z"/>
  <path d="M830.8 440.3 l-4.8 -0.4 0 -1.3 0 -1.4 4 -1 4 -1 0 1 0 0.9 2.3 -0.3 2.2 -0.3 1.8 1.8 c2.9 2.9 2.8 2.9 -9.5 2z"/>
  <path d="M886 440.1 l0 -1.1 2.8 -1.3 c1.5 -0.6 3 -1.5 3.3 -2 l0.6 -0.8 4.6 1.2 4.7 1.1 0 1.4 0 1.4 -2.7 0 c-1.6 0 -5.2 0.3 -8 0.6 l-5.3 0.7 0 -1.2z"/>
  <path d="M1040 440.1 l0 -1.1 2.8 -1.3 c1.5 -0.6 3 -1.5 3.3 -2 l0.6 -0.8 4.6 1.2 4.7 1.1 0 1.4 0 1.4 -2.7 0 c-1.6 0 -5.2 0.3 -8 0.6 l-5.3 0.7 0 -1.2z"/>
  <path d="M1138.8 440.3 l-4.8 -0.4 0 -1.3 0 -1.4 4.2 -1 4.2 -1.1 0.6 0.7 c0.3 0.4 1.8 1.2 3.4 1.7 l2.9 1 0.5 1.3 0.4 1.2 -3.4 -0.2 c-1.8 -0.1 -5.4 -0.3 -8 -0.5z"/>
  <path d="M980 438.6 l0 -1.4 4.3 -1 4.2 -1.1 0.3 0.9 c0.2 0.6 1 1 1.8 1 l1.4 0 0 1.5 0 1.5 -6 0 -6 0 0 -1.4z"/>
 </g>
 <g fill="#b6d7cc">
  <path d="M471 513.8 c0 -1.3 -0.3 -3.3 -0.6 -4.4 l-0.6 -2.1 2.1 -0.6 2 -0.5 0.6 1.9 0.6 1.9 -0.6 3 -0.7 3 -1.4 0 -1.4 0 0 -2.2z"/>
  <path d="M497.8 443.8 c0 -0.7 -0.2 -2.5 -0.3 -3.9 -0.1 -1.4 -0.6 -3.2 -1 -3.9 l-0.8 -1.3 2.4 0.7 c3.6 1.1 5.3 1.4 6.7 1.5 l1.2 0.1 0 1.5 0 1.5 -2.5 0 -2.5 0 0 2.5 0 2.5 -1.5 0 -1.5 0 -0.2 -1.2z"/>
 </g>
 <g fill="#a9d5c8">
 </g>
 <g fill="#9fd7c4">
 </g>
 <g fill="#99d1c5">
 </g>
 <g fill="#96dabe">
 </g>
 <g fill="#87dbb7">
 </g>
 <g fill="#87d2be">
 </g>
 <g fill="#77d4b6">
 </g>
 <g fill="#6fdbae">
  <path d="M1028 475.5 l0 -12.5 2 0 2 0 0 12.5 0 12.5 -2 0 -2 0 0 -12.5z"/>
  <path d="M507 474.5 l0 -12.5 3 0 3 0 0 12.5 0 12.5 -3 0 -3 0 0 -12.5z"/>
  <path d="M874 473 l0 -10 2 0 2 0 0 10 0 10 -2 0 -2 0 0 -10z"/>
  <path d="M272 474.9 l0 -3.1 3.1 0.6 3.2 0.6 41.3 0 41.4 0 0 2.5 0 2.5 -44.5 0 -44.5 0 0 -3.1z"/>
  <path d="M642 467.5 l0 -1.5 -6.1 0 -6 0 0.3 -1.7 0.3 -1.8 6.9 -0.3 6.9 -0.3 0.9 0.9 0.9 0.9 -0.7 2.7 -0.6 2.6 -1.4 0 -1.4 0 0 -1.5z"/>
  <path d="M272.2 464.3 l0.3 -1.8 43.5 -0.3 43.5 -0.3 2.3 0.6 2.2 0.5 0 1.5 0 1.5 -46.1 0 -46 0 0.3 -1.7z"/>
 </g>
 <g fill="#6eceb7">
  <path d="M497.1 540.5 l0 -9.5 2 0 1.9 0 0 9.5 0 9.5 -2 0 -1.9 0 0 -9.5z"/>
  <path d="M1028 542.5 l0 -4.5 2 0 2 0 0 4.5 0 4.5 -2 0 -2 0 0 -4.5z"/>
  <path d="M282 540 l0 -5 3 0 3 0 0 5 0 5 -3 0 -3 0 0 -5z"/>
 </g>
 <g fill="#4cd1a7">
  <path d="M1028 510.5 c0.1 -15.1 0.4 -28.4 0.7 -29.5 l0.5 -2 1.4 0 1.4 0 0 9.9 0 10 5.3 0.3 5.2 0.3 0.3 16.8 0.2 16.7 -3 0 -3 0 0 -1.5 0 -1.5 -2.5 0 -2.5 0 0 4 0 4 -2 0 -2.1 0 0.1 -27.5z"/>
  <path d="M366 530.5 l0 -6.5 -39 0 -39 0 0 6 0 6 -3 0 -3 0 0 -1.9 0 -1.9 -1.4 -1.1 -1.5 -1.2 -2 1 c-1.1 0.6 -2.7 1.1 -3.6 1.1 l-1.6 0 0.3 -11.6 0.3 -11.6 42.5 0.1 42.6 0.2 4.2 -0.7 4.3 -0.7 -0.3 -13.3 -0.3 -13.4 2.3 0 2.2 0 0 9 0 9 3 0 3 0 0 -3.5 0 -3.5 3 0 3 0 0 19 0 19 -6 0 -6 0 0 3.5 0 3.5 -2 0 -2 0 0 -6.5z"/>
  <path d="M497.5 520.3 c0.1 -9.3 0.3 -17.8 0.3 -19 l0.2 -2.3 6.3 -0.1 6.2 -0.1 -1.7 -0.5 -1.8 -0.4 0 -10.5 0 -10.4 1.5 0 1.5 0 0 1.5 0 1.5 1.5 0 1.5 0 0 1.4 0 1.5 -1.7 0.4 -1.8 0.5 1.8 0.1 1.7 0.1 0 5.4 0 5.3 4 0.7 4 0.6 0 1.5 0 1.5 38.5 0 38.5 0 0 6 0 6 -42.5 0 -42.5 0 0 11.5 0 11.5 -3 0 -3 0 0 -2.1 0 -2 -2.7 0.3 -2.8 0.3 -0.3 3.3 -0.3 3.2 -1.8 0 -1.8 0 0.2 -16.7z"/>
  <path d="M874 505.5 l0.1 -28.5 2 0 1.9 0 0 11 0 11 4.3 0 4.2 0 1.1 0.8 c0.6 0.4 1.4 1.9 1.8 3.5 l0.6 2.7 50.9 0 50.9 0 0.6 -1.6 c0.3 -0.9 0.6 -2.4 0.6 -3.5 l0 -1.9 4.5 0 4.5 0 0 -9.5 0 -9.5 3 0 3 0 0 26.5 0 26.5 -3 0 -3 0 0 -1.5 0 -1.5 -4.5 0 -4.5 0 -0.2 -1.7 c0 -1 -0.2 -2.2 -0.3 -2.8 -0.2 -0.5 -0.3 -1.8 -0.4 -2.7 l-0.1 -1.8 -50.9 0 -50.9 0 -0.7 5.5 -0.6 5.5 -3 0 -2.9 0 0 -1 0 -1 -2.5 0 -2.5 0 0 2 0 2 -2 0 -2.1 0 0.1 -28.5z"/>
  <path d="M847 531.5 l0 -1.5 -4.5 0 -4.5 0 0 -20 0 -20 2 0 2 0 0 4.4 0 4.5 5.3 0.3 5.2 0.3 0.3 16.8 0.2 16.7 -3 0 -3 0 0 -1.5z"/>
  <path d="M639 531 l0 -1 -4.5 0.7 -4.5 0.6 0 -19.2 0 -19.1 2 0 2 0 0 3 0 3 3.8 0 3.7 0.1 1.8 1.3 1.7 1.3 0 15.2 0 15.1 -3 0 -3 0 0 -1z"/>
  <path d="M720 514.4 l0 -16.5 5.3 0.6 c2.8 0.4 6.2 1.1 7.5 1.7 l2.2 1.1 0 14.8 0 14.8 -7.5 0 -7.5 0 0 -16.5z"/>
  <path d="M119 511 l0 -19 1.9 0 2 0 0.3 3.2 0.3 3.3 1.5 0.2 c0.8 0.1 3.2 0.4 5.3 0.8 l3.7 0.6 0 14.9 0 15 -7.5 0 -7.5 0 0 -19z"/>
  <path d="M237 505.5 l0 -24.5 2 0 2 0 0 8.9 0 9 5.3 0.3 5.2 0.3 0.3 15.3 0.3 15.2 -7.6 0 -7.5 0 0 -24.5z"/>
  <path d="M1147 514.5 l0 -15.5 4.5 0 4.5 0 0 -9 0 -9 3 0 3 0 0 24.5 0 24.5 -7.5 0 -7.5 0 0 -15.5z"/>
  <path d="M402 515 l0 -8 36 0 36 0 0 8 0 8 -36 0 -36 0 0 -8z"/>
 </g>
 <g fill="#47de9c">
  <path d="M637.6 484.5 l-1.5 -1.5 -3 0 -3.1 0 0 -10 0 -10 7.5 0 7.5 0 0 11.5 0 11.5 -2.9 0 -3 0 -1.5 -1.5z"/>
  <path d="M727.4 484.5 l-0.6 -1.5 -3.4 0 -3.4 0 0 -23 0 -23 58.5 0 58.6 0 3.7 1.9 c4.3 2.2 8.3 6.3 10.6 10.8 l1.6 3.2 0 15.1 0 15 -4.5 0 -4.5 0 0 1 0 1 -3 0 -3 0 0 -14.5 0 -14.5 -2 -2 -2 -2 -47.4 0 -47.5 0 -2 2.6 -2.1 2.7 0 14.3 0 14.4 -3.5 0 -3.6 0 -0.5 -1.5z"/>
  <path d="M882 484 l0 -1 -3.5 0 -3.5 0 -0.1 -1.7 c-0.1 -1 -0.3 -6.7 -0.5 -12.8 l-0.3 -11 1.4 -5.1 1.4 -5 3.7 -3.6 3.6 -3.7 3.4 -1.6 3.3 -1.6 51.4 0.3 51.4 0.3 4.2 2.9 4.2 3 2.7 4.5 2.7 4.6 0.3 15.3 0.4 15.2 -7.5 0 -7.5 0 -0.4 -13.4 -0.3 -13.4 -1.9 -2.1 -1.9 -2.1 -47.7 0 -47.7 0 -1.9 2.1 -1.9 2.1 -0.3 14.4 -0.3 14.4 -3.5 0 -3.4 0 0 -1z"/>
  <path d="M1036 484 l0 -1 -3.3 0 -3.4 0 -0.6 -12.8 -0.7 -12.9 1.5 -5 1.5 -5 3.7 -3.8 3.6 -3.7 3.3 -1.4 3.3 -1.4 50.1 0 50.1 0 3.2 1.4 3.3 1.3 3.2 3.3 c1.8 1.8 4 4.6 5 6.4 l1.7 3.1 0.3 15.3 0.4 15.2 -7.5 0 -7.5 0 -0.4 -13.4 -0.3 -13.4 -1.9 -2.1 -1.9 -2.1 -47.7 0 -47.7 0 -1.8 2 -1.8 2 -0.5 14.5 -0.5 14.5 -3.3 0 -3.4 0 0 -1z"/>
  <path d="M119 460 l0 -23 58.5 0 58.6 0 3.7 1.9 c4.3 2.2 8.3 6.3 10.6 10.8 l1.6 3.2 0 15.1 0 15 -7.5 0 -7.5 0 0 -13.5 0 -13.5 -2 -2 -2 -2 -47.3 0 -47.4 0 -1.9 2.1 -1.9 2.1 -0.3 13.4 -0.4 13.4 -7.4 0 -7.4 0 0 -23z"/>
  <path d="M365 481 l-1.1 -2.1 -3 -0.6 -2.9 -0.5 0 -0.9 0 -0.9 -42.7 -0.2 -42.8 -0.3 -0.3 -6.2 -0.3 -6.3 42.8 -0.2 c23.5 -0.1 43.7 -0.2 44.8 -0.3 1.1 -0.1 3.9 0.4 6.1 1.1 l4.2 1.1 3.5 2.8 3.6 2.7 2.6 5.1 c1.4 2.8 2.5 5.7 2.5 6.4 l0 1.3 -8 0 -7.9 0 -1.1 -2z"/>
  <path d="M498 460 l0 -23 60.5 0 60.5 0 0 7.5 0 7.5 -53 0 -53 0 0 6.5 0 6.5 -1.5 0 -1.5 0 0 9 0 9 -6 0 -6 0 0 -23z"/>
  <path d="M630 435 l0 -8 7.3 0 c4.1 0 7.6 0.2 7.8 0.4 0.2 0.2 0.3 3.8 0.1 8 l-0.4 7.6 -7.4 0 -7.4 0 0 -8z"/>
 </g>
 <g fill="#48c6ad">
  <path d="M119 557.7 l0 -12.3 7.5 -0.1 7.5 -0.1 0 2.5 0 2.4 2.5 2.4 2.4 2.5 46.4 0 46.4 0 2.7 -2.1 2.6 -2 0 -6 0 -5.9 2 0 2 0 0 3.5 0 3.5 5.6 0 5.7 0 -0.5 5 -0.5 5 -2.7 4 -2.6 4 -4.2 2.7 -4.2 2.8 -59.3 0.3 -59.3 0.2 0 -12.3z"/>
  <path d="M286.5 568.6 c-1.6 -0.7 -4.5 -2.6 -6.4 -4.2 l-3.4 -2.8 -2.3 -5.1 -2.4 -5 0 -6.2 0 -6.3 2 0 2 0 0 3.5 0 3.5 3 0 3 0 0 -3.5 0 -3.5 1.5 0 1.5 0 0 1.5 0 1.5 1.5 0 1.5 0 0 4.4 0 4.5 2.6 2 2.7 2.1 32.6 0 32.6 0 3.8 -0.6 3.7 -0.7 0 -6.8 0 -6.9 2 0 2 0 0 3 0 3 3 0 3 0 0 -1 0 -1 3 0 3 0 0 13 0 13 -46.2 0 -46.3 -0.1 -3 -1.3z"/>
  <path d="M497.5 569 l-0.7 -1.1 0.3 -12.2 c0.2 -6.7 0.5 -13 0.7 -13.9 l0.4 -1.8 1.4 0 1.4 0 0 3 0 3 3 0 3 0 0 -4 0 -4 3 0 3 0 0 16 0 16 -7.4 0 -7.5 0 -0.6 -1z"/>
  <path d="M630 557 l0 -13 2 0 2 0 0 1 0 1 5.5 0 5.5 0 0 12 0 12 -7.5 0 -7.5 0 0 -13z"/>
  <path d="M720 558 l0 -12 7.5 0 7.5 0 0 2 0 2.1 2.5 2.4 2.4 2.5 46.4 0 46.4 0 2.7 -2.1 2.6 -2 0 -4 0 -3.9 2 0 2 0 0 1.5 0 1.5 5.6 0 5.7 0 -0.5 5 -0.5 5 -2.7 4 -2.6 4 -4.2 2.7 -4.2 2.8 -59.3 0.3 -59.3 0.2 0 -12z"/>
  <path d="M874 554.5 l0 -15.5 2 0 2 0 0 3.5 0 3.5 5.5 0 5.5 0 0 12 0 12 -7.5 0 -7.5 0 0 -15.5z"/>
  <path d="M993 558 l0 -12 4.5 0 4.5 0 0 -5 0 -5 3 0 3 0 0 17 0 17 -7.5 0 -7.5 0 0 -12z"/>
  <path d="M1042 568.4 c-6.8 -3 -12 -9.7 -13.4 -17.7 l-0.7 -3.9 0.6 -2.9 0.7 -2.9 1.4 0 1.4 0 0 2.5 0 2.5 3 0 3 0 0 -1 0 -1 2.4 0 2.4 0 1.1 4.5 1.1 4.4 1.9 1.1 2 1 45.5 0 45.5 0 2.5 -1.2 2.6 -1.1 0.4 -1.6 c0.2 -0.9 0.7 -3.3 1.1 -5.3 l0.6 -3.8 1.4 0 1.5 0 0 2 0 2 3 0 3 0 0 -3 0 -3 3.1 0 3.2 0 -0.5 6.8 -0.5 6.7 -2.1 4 c-1.1 2.2 -3.3 5.2 -4.9 6.7 l-2.8 2.7 -3.7 1.5 -3.7 1.6 -49.3 0 -49.3 -0.1 -3.5 -1.5z"/>
 </g>
 <g fill="#40d59f">
  <path d="M639.5 503 l-0.6 -1 -3.8 0.6 -3.8 0.6 -0.6 -5.3 c-0.4 -3 -0.7 -8.3 -0.7 -11.9 l0 -6.5 4.7 0.4 4.7 0.3 1.4 1.4 c0.7 0.8 2 1.4 2.8 1.4 l1.4 0 0 10.5 0 10.5 -2.4 0 -2.5 0 -0.6 -1z"/>
  <path d="M720.6 501.8 c-0.3 -1.3 -0.6 -6.7 -0.6 -12 l0 -9.8 4.9 0 4.9 0 0.6 1.5 0.5 1.5 2.1 0 2 0 0 10.5 0 10.5 -2.4 0 -2.5 0 -0.6 -1 -0.6 -1 -3 0 -2.9 0 0 1 c0 0.6 -0.4 1 -0.9 1 l-0.9 0 -0.6 -2.2z"/>
  <path d="M849.4 502.9 l-0.7 -1.1 -4.7 0.4 -4.7 0.5 -0.7 -7.5 c-0.3 -4.1 -0.5 -10.2 -0.4 -13.6 l0.1 -6.1 0.4 3.3 0.4 3.2 1 0 c0.5 0 0.9 -0.4 0.9 -1 l0 -1 6 0 6 0 0 12 0 12 -1.4 0 c-0.8 0 -1.8 -0.5 -2.2 -1.1z"/>
  <path d="M1039.4 502.9 l-0.7 -1.1 -4.8 0.4 -4.9 0.5 0 -11.3 0 -11.4 5 0 5 0 0 1 0 1 2 0 2 0 0 11 0 11 -1.4 0 c-0.8 0 -1.8 -0.5 -2.2 -1.1z"/>
  <path d="M124.5 502.1 l-4 -0.6 -0.7 -4 c-0.4 -2.2 -0.7 -7.8 -0.6 -12.5 l0 -8.5 0.5 1.8 0.4 1.7 7 0 6.9 0 0 11.5 0 11.5 -2.7 -0.1 c-1.6 -0.1 -4.6 -0.5 -6.8 -0.8z"/>
  <path d="M237.6 487.1 l-0.7 -15.3 0.6 -0.6 0.5 -0.5 0 4.6 0 4.7 7 0 7 0 0 11.4 0 11.3 -6.9 -0.1 -6.8 -0.1 -0.7 -15.4z"/>
  <path d="M366.7 493.3 c-0.2 -5.4 -0.7 -11.1 -1.1 -12.8 l-0.8 -3 1 1.3 c0.5 0.8 1.2 1.3 1.6 1.3 0.3 -0.1 3.8 -0.1 7.6 -0.1 l7 0 0 7.5 0 7.5 -1.5 0 -1.5 0 0 3.5 0 3.5 -4.4 0 c-2.4 0 -5.1 0.3 -6 0.6 l-1.5 0.6 -0.4 -9.9z"/>
  <path d="M499 502.2 l-1 -0.4 0 -10.9 0 -10.9 4.4 0 c2.4 0 5.1 -0.3 6 -0.6 l1.6 -0.6 0 8 0 8 2.3 0.6 2.2 0.6 41.8 0 41.7 0 0 3 0 3 -1.2 0 c-22 0.3 -97.1 0.4 -97.8 0.2z"/>
  <path d="M875 491.3 l0 -11.3 5 0 5 0 0 1 0 1 2 0 2 0 0 10.4 0 10.4 -7 -0.2 -7 -0.1 0 -11.2z"/>
  <path d="M998.3 502.3 l-5.3 -0.4 0 -11 0 -10.9 6 0 6 0 0 -5.5 0 -5.5 1.5 0 1.5 0 0 7 0 7 -1.5 0 -1.5 0 0 10 0 10 -0.7 -0.2 c-0.5 -0.1 -3.2 -0.3 -6 -0.5z"/>
  <path d="M1152.3 502.3 l-5.3 -0.4 0 -11 0 -10.9 6 0 6 0 0 -5 0 -5 1.5 0 1.5 0 0 7 0 7 -1.5 0 -1.5 0 0 9.5 0 9.5 -0.7 -0.2 c-0.5 -0.1 -3.2 -0.3 -6 -0.5z"/>
  <path d="M360.3 478.2 l-2.3 -0.3 0 -1 0 -0.9 -42.7 -0.2 -42.8 -0.3 -0.1 -2.3 -0.2 -2.2 0.5 2 0.4 1.9 44.4 0.3 44.3 0.3 0.7 0.7 c0.4 0.4 0.5 1 0.4 1.5 l-0.4 0.8 -2.2 -0.3z"/>
  <path d="M378 477.4 l0 -1.6 1.2 0.4 c0.6 0.2 1.4 1 1.6 1.6 l0.4 1.2 -1.6 0 -1.6 0 0 -1.6z"/>
 </g>
 <g fill="#3ecaa7">
  <path d="M720 537.5 l0 -12 0.9 1.4 0.9 1.4 1.2 -0.8 1.2 -0.7 5.4 0.7 5.4 0.6 0 10.5 0 10.4 -0.7 0 c-0.5 0.1 -3.8 0.2 -7.6 0.3 l-6.7 0.2 0 -12z"/>
  <path d="M874.5 542.2 l-0.7 -7.2 0.7 -4 0.7 -4 5.4 0 5.4 0 0 1 0 1 1.5 0 1.5 0 0 9.9 0 9.9 -6.9 0.4 -6.9 0.3 -0.7 -7.3z"/>
  <path d="M119.7 548.3 l-0.7 -0.6 0.1 -13.1 0.2 -13.1 0.4 2.7 0.4 2.8 7 0 6.9 0 0 10.4 0 10.4 -2.2 0.6 c-1.3 0.3 -4.4 0.6 -6.9 0.6 l-4.6 0 -0.6 -0.7z"/>
  <path d="M237.6 543.8 c-0.3 -2.9 -0.6 -8 -0.6 -11.3 l0 -6 7.5 0.3 7.5 0.4 0 10.9 0 10.9 -6.9 0 -6.8 0 -0.7 -5.2z"/>
  <path d="M272.6 543.8 c-0.3 -2.9 -0.6 -7.4 -0.6 -10 l0 -4.7 1.9 -1.1 2 -1 3.3 0 3.4 0 1.2 1.2 1.2 1.2 0 1.8 0 1.8 1.5 0 1.5 0 0 2.5 0 2.5 -1.5 0 -1.5 0 0 5.5 0 5.5 -5.9 0 -5.8 0 -0.7 -5.2z"/>
  <path d="M366.6 543.9 l-0.7 -5 0.7 -6 0.7 -5.9 5.8 0 5.9 0 0 -3 0 -3 1.5 0 1.5 0 0 13 0 13 -1.5 0 -1.5 0 0 1 0 1 -5.9 0 -5.8 0 -0.7 -5.1z"/>
  <path d="M497.8 543.8 c-0.2 -7 0.1 -14 0.7 -15.5 l0.4 -1.3 5.6 0 5.5 0 0 2 0 2 1.5 0 1.5 0 0 5 0 5 -1.5 0 -1.5 0 0 4 0 4 -6 0 -6 0 -0.2 -5.2z"/>
  <path d="M630.6 547.4 l-0.6 -1.6 0.1 -10.6 c0.1 -5.9 0.3 -10 0.6 -9.1 l0.4 1.6 5.4 -0.5 5.5 -0.4 0 1.1 0 1.1 1.5 0 1.5 0 0 10 0 10 -6.9 0 -6.9 0 -0.6 -1.6z"/>
  <path d="M838.7 548.3 c-0.3 -0.5 -0.5 -6.2 -0.5 -12.8 l0 -12 0.5 1.8 0.4 1.7 5.5 0 5.4 0 0 1.5 0 1.5 1.5 0 1.5 0 0 9.5 0 9.5 -6.9 0 -7 0 -0.4 -0.7z"/>
  <path d="M993 538 l0 -11 6 0 6 0 0 1.5 0 1.5 1.5 0 1.5 0 0 4.5 0 4.5 -1.5 0 -1.5 0 0 5 0 5 -6 0 -6 0 0 -11z"/>
  <path d="M1028.7 543.5 l-0.6 -5.5 0.6 -5.5 0.6 -5.5 5.3 0 5.4 0 0 1.5 0 1.5 1.5 0 1.5 0 0 8.1 0 8 -1.4 1.5 -1.5 1.4 -5.4 0 -5.4 0 -0.6 -5.5z"/>
  <path d="M1147 538 l0 -11 6 0 6 0 0 -1 0 -1 1.5 0 1.5 0 0 9 0 9 -1.5 0 -1.5 0 0 3 0 3 -6 0 -6 0 0 -11z"/>
 </g>
</svg>