<?xml version="1.0" standalone="no"?>
<!DOCTYPE svg PUBLIC "-//W3C//DTD SVG 20010904//EN"
 "http://www.w3.org/TR/2001/REC-SVG-20010904/DTD/svg10.dtd">
<svg version="1.0" xmlns="http://www.w3.org/2000/svg"
 width="96.000000pt" height="25.000000pt" viewBox="0 0 96.000000 25.000000"
 preserveAspectRatio="xMidYMid meet">

<g transform="translate(0.000000,25.000000) scale(0.075000,-0.050000)"
fill="#FFFFFF" stroke="rgb(255,255,255)">
<path d="M0 250 l0 -250 680 0 680 0 0 250 0 250 -680 0 -680 0 0 -250z m689
6 c1 -24 -3 -47 -9 -51 -6 -4 -10 9 -10 34 0 40 -1 41 -35 41 -19 0 -35 -4
-35 -10 0 -5 11 -10 24 -10 14 0 28 -4 31 -10 4 -6 -6 -10 -24 -10 -23 0 -31
-5 -34 -22 -2 -13 -5 -2 -6 24 l-1 47 43 4 c23 2 45 4 48 5 3 1 6 -18 8 -42z
m-249 11 c0 -21 4 -23 33 -18 31 5 31 6 5 9 -40 5 -35 24 5 20 29 -3 32 -6 35
-40 3 -36 2 -38 -27 -38 -16 0 -33 5 -37 11 -4 8 -9 8 -17 0 -6 -6 -28 -11
-49 -11 l-38 0 0 45 0 45 45 0 c40 0 45 -2 45 -23z m472 10 c6 -9 8 -9 8 1 0
8 16 12 46 12 l45 0 -3 -42 c-3 -43 -3 -43 -43 -43 -33 0 -40 4 -46 25 -7 24
-7 24 -9 -5 -1 -18 -4 -23 -7 -12 -3 11 -14 17 -34 17 -20 0 -29 -5 -30 -17
-1 -17 -2 -17 -6 -1 -4 16 -6 16 -19 3 -9 -8 -31 -15 -50 -15 -34 0 -34 1 -34
44 l0 45 87 -1 c56 0 91 -4 95 -11z m-332 -37 c0 -5 -11 -10 -25 -10 -14 0
-25 5 -25 10 0 6 11 10 25 10 14 0 25 -4 25 -10z"/>
<path d="M360 250 c0 -27 3 -30 30 -30 27 0 30 3 30 30 0 27 -3 30 -30 30 -27
0 -30 -3 -30 -30z"/>
<path d="M468 223 c6 -2 18 -2 25 0 6 3 1 5 -13 5 -14 0 -19 -2 -12 -5z"/>
<path d="M740 250 c0 -27 3 -30 30 -30 27 0 30 3 30 30 0 27 -3 30 -30 30 -27
0 -30 -3 -30 -30z"/>
<path d="M840 265 c0 -10 10 -15 30 -15 20 0 30 5 30 15 0 10 -10 15 -30 15
-20 0 -30 -5 -30 -15z"/>
<path d="M940 250 c0 -27 3 -30 30 -30 27 0 30 3 30 30 0 27 -3 30 -30 30 -27
0 -30 -3 -30 -30z"/>
</g>
</svg>
