<?xml version="1.0" encoding="utf-8"?>
<!DOCTYPE svg PUBLIC "-//W3C//DTD SVG 1.1//EN" "http://www.w3.org/Graphics/SVG/1.1/DTD/svg11.dtd">
<svg version="1.1" xmlns="http://www.w3.org/2000/svg" width="25px" height="24px" viewBox="2.5 0 25 24" preserveAspectRatio="xMidYMid meet">
   <defs>
      <linearGradient id="lg0" gradientUnits="userSpaceOnUse" x1="31.40625%" y1="50.097656%" x2="68.515625%" y2="50.097656%">
         <stop offset="0%" style="stop-color:rgb(3,255,100);"></stop>
         <stop offset="100%" style="stop-color:rgb(1,68,135);"></stop>
      </linearGradient>
   </defs>
 <g fill="#ffffff">
  <path fill="url(#lg0)" d="M16.42 20.67 c-0.45 -0.07 -0.87 -0.47 -0.97 -0.93 -0.06 -0.28 -0 -0.60 0.14 -0.83 0.10 -0.17 0.33 -0.39 0.48 -0.46 l0.11 -0.05 0 -5.60 0 -5.61 -1.16 -1.02 c-0.64 -0.56 -1.17 -1.02 -1.18 -1.03 -0.01 -0 -0.02 1.56 -0.02 3.76 l0 3.77 0.12 0.06 c0.28 0.13 0.56 0.49 0.63 0.81 0.14 0.65 -0.32 1.30 -0.98 1.41 -0.55 0.09 -1.11 -0.26 -1.30 -0.80 -0.05 -0.15 -0.06 -0.19 -0.05 -0.41 0.01 -0.18 0.03 -0.28 0.06 -0.37 0.11 -0.27 0.31 -0.49 0.57 -0.62 l0.16 -0.08 0 -1.38 0 -1.38 -1.02 -0.83 c-0.56 -0.46 -1.03 -0.83 -1.04 -0.84 -0.01 -0 -0.02 1.27 -0.02 3.41 l0 3.42 0.14 0.07 c0.16 0.08 0.42 0.33 0.50 0.49 0.19 0.38 0.18 0.83 -0.03 1.17 -0.50 0.80 -1.66 0.75 -2.07 -0.09 -0.28 -0.57 -0.06 -1.26 0.50 -1.56 l0.15 -0.08 0 -4.28 c0 -2.35 0 -4.28 0.01 -4.28 0.01 0 0.65 0.52 1.44 1.16 0.78 0.64 1.43 1.16 1.44 1.16 0.01 0 0.02 -1.24 0.02 -2.74 l0.01 -2.74 1.97 1.73 1.98 1.73 0 2.08 c0 1.14 0.01 2.08 0.02 2.08 0.01 0 0.66 -0.52 1.45 -1.16 l1.43 -1.16 0.01 3.39 0 3.39 0.10 0.04 c0.24 0.11 0.47 0.34 0.58 0.58 0.36 0.77 -0.22 1.68 -1.08 1.68 -0.31 0 -0.56 -0.10 -0.80 -0.33 -0.25 -0.23 -0.37 -0.51 -0.37 -0.86 0 -0.44 0.25 -0.85 0.63 -1.04 l0.12 -0.06 0 -2.54 c0 -1.44 -0.01 -2.54 -0.02 -2.53 -0.01 0 -0.48 0.38 -1.04 0.84 l-1.02 0.83 0 3.17 0 3.17 0.08 0.03 c0.12 0.04 0.39 0.24 0.48 0.35 0.20 0.25 0.27 0.48 0.26 0.82 -0.01 0.22 -0.02 0.26 -0.11 0.43 -0.17 0.35 -0.47 0.58 -0.86 0.66 -0.18 0.04 -0.20 0.04 -0.40 0.01z m0.46 -0.56 c0.24 -0.11 0.38 -0.31 0.39 -0.58 0.01 -0.15 0 -0.18 -0.06 -0.32 -0.12 -0.24 -0.32 -0.37 -0.59 -0.37 -0.20 0 -0.37 0.07 -0.49 0.21 -0.13 0.15 -0.17 0.24 -0.17 0.45 0 0.15 0.01 0.20 0.06 0.30 0.07 0.14 0.19 0.25 0.33 0.32 0.13 0.06 0.39 0.06 0.53 -0z m2.93 -2.99 c0.31 -0.17 0.43 -0.55 0.28 -0.87 -0.07 -0.15 -0.26 -0.30 -0.41 -0.35 -0.34 -0.10 -0.71 0.09 -0.82 0.42 -0.06 0.17 -0.04 0.40 0.05 0.54 0.08 0.13 0.22 0.26 0.35 0.31 0.15 0.06 0.40 0.04 0.55 -0.05z m-8.98 -0.34 c0.48 -0.24 0.48 -0.94 -0 -1.19 -0.16 -0.08 -0.44 -0.08 -0.59 -0 -0.24 0.13 -0.37 0.34 -0.37 0.60 0 0.20 0.05 0.33 0.20 0.48 0.20 0.20 0.51 0.24 0.76 0.11z m2.84 -2.38 c0.14 -0.06 0.26 -0.18 0.33 -0.31 0.05 -0.10 0.06 -0.15 0.06 -0.30 0 -0.14 -0.01 -0.20 -0.06 -0.30 -0.12 -0.23 -0.33 -0.36 -0.59 -0.36 -0.38 0 -0.67 0.28 -0.67 0.66 0 0.31 0.20 0.56 0.49 0.64 0.15 0.04 0.29 0.03 0.43 -0.03z"/>
 </g>
</svg>