<svg xmlns="http://www.w3.org/2000/svg" width="1280" height="1024"><rect paint-order="stroke" x="-640" y="-512" rx="0" ry="0" width="1280" height="1024" fill="none" transform="translate(640 512)"/><g transform="matrix(1.0848 0 0 -1.0848 262.816 523.887)" paint-order="stroke"><linearGradient id="prefix__a" gradientUnits="userSpaceOnUse" gradientTransform="translate(-13.565 -112.95)" x1="0" y1="0" x2="0" y2="435"><stop offset="0%" stop-color="#42e695"/><stop offset="100%" stop-color="#3bb2b8"/></linearGradient><path transform="translate(-128.597 -104.64)" d="M0 0c0 5.101 2.369 9.603 6.011 12.622 2.85 2.363 6.461 3.841 10.453 3.841 3.974 0 7.571-1.466 10.416-3.812C30.543 9.633 32.927 5.117 32.927 0c0-5.118-2.384-9.633-6.047-12.653-2.845-2.345-6.442-3.811-10.416-3.811-3.992 0-7.603 1.479-10.453 3.841C2.369-9.603 0-5.102 0 0m78.286 73.029c2.784 2.157 6.235 3.492 10.03 3.492 4.172 0 7.937-1.601 10.839-4.16 3.422-3.016 5.624-7.382 5.624-12.303 0-4.92-2.202-9.287-5.624-12.303-2.902-2.559-6.667-4.161-10.839-4.161-3.795 0-7.246 1.336-10.03 3.493-3.888 3.011-6.434 7.673-6.434 12.971s2.546 9.96 6.434 12.971m79.236-144.072c2.957 2.826 6.943 4.585 11.356 4.585 3.538 0 6.797-1.14 9.48-3.039 4.214-2.982 6.983-7.869 6.983-13.424s-2.769-10.443-6.983-13.425c-2.683-1.899-5.942-3.039-9.48-3.039-4.413 0-8.399 1.76-11.356 4.586-3.134 2.998-5.108 7.198-5.108 11.878s1.974 8.88 5.108 11.878m72.259 74.364c2.914 2.615 6.726 4.251 10.949 4.251 3.735 0 7.14-1.291 9.903-3.387 3.962-3.007 6.56-7.719 6.56-13.077 0-5.356-2.598-10.069-6.56-13.076-2.763-2.095-6.168-3.386-9.903-3.386-4.223 0-8.035 1.635-10.949 4.25-3.36 3.013-5.514 7.343-5.514 12.212 0 4.871 2.154 9.2 5.514 12.213M-13.565 0c0-12.894 8.166-23.798 19.576-28.054 3.266-1.218 6.761-1.975 10.453-1.975 3.678 0 7.159.754 10.416 1.965C38.308-23.819 46.493-12.907 46.493 0c0 12.906-8.185 23.818-19.613 28.063v170.912c18.499-15.042 46.247-37.594 51.406-41.802V88.242C66.659 84.1 58.287 73.106 58.287 60.058c0-13.048 8.372-24.042 19.999-28.185 3.151-1.122 6.494-1.845 10.03-1.845 3.834 0 7.468.787 10.839 2.097 11.212 4.355 19.19 15.182 19.19 27.933s-7.978 23.577-19.19 27.932V276.2c19.918-17.489 53.359-46.84 58.367-51.222V-55.148c-10.948-4.482-18.673-15.212-18.673-27.773s7.725-23.291 18.673-27.773a29.902 29.902 0 0111.356-2.256c3.334 0 6.483.671 9.48 1.674 11.91 3.986 20.549 15.104 20.549 28.355 0 13.25-8.639 24.368-20.549 28.355v158.331c5.193 4.207 32.924 26.762 51.423 41.806V19.008C218.626 14.624 210.7 3.819 210.7-8.892c0-12.711 7.926-23.515 19.081-27.898 3.4-1.336 7.075-2.131 10.949-2.131 3.49 0 6.788.712 9.903 1.806 11.691 4.107 20.126 15.129 20.126 28.223 0 13.096-8.435 24.118-20.126 28.224V189.4l-72.275-58.772v103.8L78.286 322.229V184.041L6.011 242.809V28.053C-5.399 23.797-13.565 12.893-13.565 0" fill="url(#prefix__a)"/></g><g transform="matrix(1.92115 0 0 1.92115 823.47 511.182)"><linearGradient id="prefix__b" gradientUnits="userSpaceOnUse" gradientTransform="translate(3.66 -48.51)" x1="0" y1="0" x2="0" y2="71"><stop offset="0%" stop-color="#42e695"/><stop offset="100%" stop-color="#3bb2b8"/></linearGradient><path paint-order="stroke" transform="translate(-181.08 24.255)" d="M41.47 0H3.66v-45.37h37.81q3.13 0 5.33 2.21 2.2 2.22 2.2 5.35h0v30.24q0 3.14-2.2 5.36Q44.6 0 41.47 0h0zM8.77-37.81v30.24q0 1.02.72 1.74t1.74.72h30.24q1.01 0 1.72-.72t.71-1.74h0v-30.24q0-1.01-.73-1.73-.72-.73-1.7-.73h0-30.24q-1.02 0-1.74.73-.72.72-.72 1.73h0zM55.8-7.63h0v-13.23h32.02v-8.06q0-1.01-.72-1.73-.72-.73-1.74-.73h0H55.8v-5.16h29.56q3.2 0 5.45 2.24 2.24 2.25 2.24 5.38h0V0H63.43q-3.14 0-5.38-2.23-2.25-2.23-2.25-5.4zm5.17-8.06v8.06q0 1.02.74 1.74t1.72.72h24.39v-10.52H60.97zm63.58-.37H99.98v-5.17h24.57v5.17zM137.57 0h-5.11v-45.37h41.37v5.1h-36.26v15.01h29.16v5.17h-29.16V0zm45.19 0h-5.17v-36.54h5.17V0zm0-43.34h-5.17v-5.17h5.17v5.17zM246 0h-37.8v-45.37H246q3.14 0 5.34 2.21 2.2 2.22 2.2 5.35h0v30.24q0 3.14-2.2 5.36Q249.14 0 246 0h0zm-32.7-37.81v30.24q0 1.02.72 1.74.73.72 1.74.72H246q1.02 0 1.72-.72.71-.72.71-1.74h0v-30.24q0-1.01-.72-1.73-.72-.73-1.71-.73h0-30.24q-1.01 0-1.74.73-.72.72-.72 1.73h0zM265.84 0h-5.1v-37.81q0-3.13 2.21-5.35 2.22-2.21 5.35-2.21h30.24q3.14 0 5.34 2.21 2.2 2.22 2.2 5.35h0V0h-5.11v-16.58h-35.13V0zm0-37.81v16.12h35.13v-16.12q0-1.01-.72-1.73-.72-.73-1.71-.73h0-30.24q-1.01 0-1.73.73-.73.72-.73 1.73h0zm47.31 30.24h0v-30.24q0-3.13 2.2-5.35 2.2-2.21 5.34-2.21h30.24q3.14 0 5.35 2.21 2.22 2.22 2.22 5.35h0v30.24q0 3.14-2.2 5.36Q354.1 0 350.93 0h0-30.24q-3.14 0-5.34-2.2-2.2-2.2-2.2-5.37zm5.08-30.24v30.24q0 1.02.72 1.74.73.72 1.74.72h30.24q1.01 0 1.74-.72.72-.72.72-1.74h0v-30.24q0-1.01-.72-1.73-.73-.73-1.74-.73h0-30.24q-1.01 0-1.74.73-.72.72-.72 1.73h0z" stroke="#37b6ff" stroke-width="3" fill="url(#prefix__b)"/></g></svg>