<?xml version="1.0" encoding="utf-8"?>
<!DOCTYPE svg PUBLIC "-//W3C//DTD SVG 20010904//EN" "http://www.w3.org/TR/2001/REC-SVG-20010904/DTD/svg10.dtd">
<svg version="1.0" xmlns="http://www.w3.org/2000/svg" width="25" height="25" viewBox="3 0 25 25" preserveAspectRatio="xMidYMid meet">
 <g fill="#ffffff">
  <path d="M17.10 21.53 c-0.47 -0.07 -0.91 -0.49 -1.01 -0.97 -0.06 -0.29 -0 -0.62 0.14 -0.87 0.10 -0.17 0.34 -0.40 0.50 -0.48 l0.11 -0.06 0 -5.84 0 -5.84 -1.21 -1.06 c-0.67 -0.58 -1.22 -1.07 -1.23 -1.07 -0.01 -0 -0.02 1.62 -0.02 3.92 l0 3.93 0.13 0.06 c0.29 0.13 0.58 0.51 0.65 0.85 0.14 0.68 -0.33 1.35 -1.03 1.47 -0.57 0.10 -1.16 -0.27 -1.36 -0.84 -0.06 -0.16 -0.06 -0.20 -0.05 -0.43 0.01 -0.19 0.03 -0.29 0.07 -0.39 0.11 -0.28 0.32 -0.51 0.59 -0.65 l0.17 -0.09 0 -1.44 0 -1.44 -1.06 -0.86 c-0.58 -0.48 -1.07 -0.87 -1.09 -0.87 -0.01 -0 -0.02 1.32 -0.02 3.55 l0 3.56 0.14 0.07 c0.17 0.08 0.44 0.34 0.52 0.51 0.20 0.40 0.19 0.87 -0.03 1.22 -0.52 0.83 -1.73 0.78 -2.16 -0.09 -0.29 -0.59 -0.06 -1.32 0.52 -1.62 l0.15 -0.08 0 -4.46 c0 -2.45 0 -4.45 0.01 -4.45 0.01 0 0.68 0.54 1.50 1.21 0.82 0.66 1.49 1.21 1.50 1.21 0.01 0 0.02 -1.29 0.02 -2.86 l0.01 -2.86 2.06 1.80 2.06 1.80 0 2.17 c0 1.19 0.01 2.17 0.02 2.17 0.01 0 0.69 -0.55 1.51 -1.21 l1.49 -1.21 0.01 3.53 0 3.53 0.10 0.05 c0.25 0.11 0.49 0.35 0.61 0.60 0.38 0.81 -0.23 1.75 -1.13 1.75 -0.32 0 -0.59 -0.11 -0.84 -0.34 -0.26 -0.24 -0.38 -0.53 -0.38 -0.89 0 -0.46 0.26 -0.88 0.65 -1.08 l0.13 -0.06 0 -2.65 c0 -1.50 -0.01 -2.64 -0.02 -2.64 -0.01 0 -0.50 0.40 -1.09 0.87 l-1.06 0.87 0 3.30 0 3.30 0.08 0.03 c0.12 0.04 0.41 0.25 0.50 0.36 0.21 0.26 0.29 0.50 0.27 0.85 -0.01 0.23 -0.02 0.27 -0.11 0.45 -0.18 0.37 -0.49 0.61 -0.90 0.69 -0.19 0.04 -0.21 0.04 -0.42 0.01z m0.48 -0.59 c0.25 -0.11 0.39 -0.32 0.41 -0.60 0.01 -0.16 0 -0.19 -0.07 -0.33 -0.13 -0.25 -0.33 -0.39 -0.61 -0.39 -0.21 0 -0.38 0.07 -0.52 0.22 -0.14 0.15 -0.18 0.25 -0.18 0.47 0 0.15 0.01 0.21 0.06 0.31 0.07 0.14 0.20 0.26 0.35 0.33 0.14 0.06 0.41 0.06 0.55 -0z m3.05 -3.11 c0.32 -0.17 0.45 -0.58 0.29 -0.91 -0.07 -0.15 -0.27 -0.32 -0.43 -0.36 -0.35 -0.10 -0.73 0.10 -0.85 0.44 -0.06 0.17 -0.04 0.42 0.05 0.56 0.08 0.14 0.23 0.27 0.37 0.32 0.16 0.06 0.42 0.04 0.57 -0.05z m-9.36 -0.36 c0.50 -0.25 0.50 -0.98 -0 -1.24 -0.17 -0.08 -0.46 -0.09 -0.61 -0 -0.25 0.13 -0.38 0.35 -0.38 0.63 0 0.21 0.06 0.35 0.21 0.50 0.21 0.21 0.53 0.25 0.79 0.12z m2.95 -2.48 c0.14 -0.06 0.27 -0.18 0.35 -0.33 0.05 -0.10 0.06 -0.16 0.06 -0.31 0 -0.15 -0.01 -0.21 -0.06 -0.31 -0.13 -0.24 -0.34 -0.37 -0.62 -0.38 -0.40 0 -0.70 0.29 -0.70 0.68 0 0.32 0.21 0.59 0.52 0.67 0.15 0.04 0.30 0.03 0.45 -0.03z"/>
 </g>
</svg>