<?xml version="1.0" encoding="utf-8"?>
<!DOCTYPE svg PUBLIC "-//W3C//DTD SVG 20010904//EN" "http://www.w3.org/TR/2001/REC-SVG-20010904/DTD/svg10.dtd">
<svg version="1.0" xmlns="http://www.w3.org/2000/svg" width="95px" height="25px" viewBox="0 25.5 95 25" preserveAspectRatio="xMidYMid meet">
 <g fill="none" stroke="#212626" stroke-width="0.">
  <path d="M0.03 0.03L0.40 0.01L1.44 0.01L5.45 0.01L21 0.01L75.87 0.01L90.03 0.01L93.68 0.01L94.61 0.01L94.96 0.03L94.99 0.25L94.99 0.92L94.99 3.62L94.99 14.65L94.99 59.66L94.99 71.98L94.99 74.99L94.99 75.73L94.96 75.99L94.61 76L93.68 76L90.03 76L75.87 76L20.99 76L5.45 76L1.44 76L0.40 76L0.03 75.99L0 75.73L0 74.99L0 71.98L0 59.64L0 14.64L0 3.61L0 0.92L0 0.25L0.03 0.03M46.12 31.07C46.19 31.01 46.48 31.05 46.58 31.05C47.01 31.05 47.46 31.07 47.89 31.07L48.27 31.07C48.32 31.07 48.38 31.05 48.41 31.10C48.44 31.13 48.42 31.20 48.42 31.25L48.42 31.62L48.42 32.85C48.42 32.98 48.46 33.24 48.41 33.35C48.38 33.43 48.08 33.38 48 33.38C47.63 33.38 47.28 33.41 46.91 33.41C46.83 33.41 46.58 33.37 46.55 33.46C46.45 33.67 46.73 33.64 46.85 33.64C47.23 33.64 47.63 33.67 48.02 33.67C48.11 33.67 48.39 33.62 48.42 33.71C48.46 33.80 48.44 33.93 48.44 34.02L48.44 34.73L48.44 37.21C48.44 38.64 48.46 40.06 48.46 41.49L48.46 42.50C48.46 42.57 48.49 42.79 48.44 42.82C48.32 42.88 48.05 42.84 47.92 42.84C47.50 42.84 47.08 42.85 46.67 42.85L46.28 42.85C46.24 42.85 46.16 42.87 46.13 42.82C46.06 42.72 46.12 42.42 46.12 42.30C46.12 41.86 46.10 41.40 46.10 40.95C46.10 39.91 46.09 38.88 46.08 37.84C46.08 37.21 46.10 36.59 46.06 35.98C46.03 35.55 46.06 35.11 46.06 34.67C46.06 34.56 46.10 34.29 46.05 34.19C45.99 34.11 45.72 34.16 45.63 34.16L44.35 34.16C42.99 34.16 41.64 34.13 40.27 34.13L39.16 34.13C39.04 34.13 38.82 34.08 38.70 34.14C38.62 34.17 38.67 34.44 38.67 34.51L38.67 35.67C38.67 35.74 38.62 36.06 38.71 36.09C38.85 36.11 39.02 36.09 39.16 36.09C39.48 36.09 39.81 36.07 40.14 36.09C41.22 36.11 42.30 36.11 43.39 36.11L44.46 36.11C44.58 36.11 44.78 36.07 44.90 36.13C44.96 36.14 44.95 36.22 44.95 36.26L44.95 36.63C44.95 37.05 44.98 37.48 44.98 37.90C44.98 38.03 45.02 38.27 44.95 38.37C44.84 38.50 44.66 38.47 44.52 38.47L43.43 38.47C42.28 38.47 41.13 38.49 39.97 38.49L39.05 38.49C38.96 38.49 38.77 38.46 38.70 38.50C38.64 38.55 38.67 38.70 38.67 38.76L38.67 39.51L38.67 41.95L38.67 42.59C38.67 42.65 38.70 42.76 38.65 42.81C38.62 42.85 38.55 42.84 38.50 42.84L38.10 42.84C37.67 42.84 37.26 42.87 36.83 42.87C36.68 42.87 36.46 42.91 36.32 42.85C36.14 42.78 36.22 42.41 36.22 42.25C36.22 41.64 36.23 41.01 36.23 40.40C36.23 38.25 36.25 36.10 36.25 33.95L36.25 32.33L36.25 31.91C36.25 31.87 36.23 31.80 36.28 31.77C36.32 31.72 36.41 31.74 36.47 31.74L36.98 31.74C37.66 31.74 38.34 31.72 39.02 31.72C40.75 31.72 42.47 31.72 44.19 31.68C44.64 31.66 45.08 31.68 45.53 31.68C45.64 31.68 45.93 31.74 46.03 31.66C46.10 31.60 46.09 31.31 46.09 31.22C46.09 31.17 46.08 31.10 46.12 31.07M8.19 31.72C8.22 31.69 8.33 31.71 8.37 31.71L8.86 31.71L10.76 31.71C12.47 31.71 14.16 31.74 15.87 31.74L16.98 31.74C17.16 31.74 17.37 31.71 17.53 31.75C17.65 31.77 17.77 31.84 17.87 31.90C18.02 31.96 18.20 32 18.33 32.11C18.44 32.18 18.51 32.30 18.60 32.39C18.70 32.51 18.84 32.61 18.94 32.75C19.01 32.85 19.04 32.98 19.10 33.10C19.15 33.21 19.24 33.32 19.25 33.44C19.30 33.78 19.25 34.16 19.25 34.50L19.25 37.72C19.25 38.65 19.27 39.59 19.24 40.52C19.24 40.76 19.27 41.03 19.21 41.27C19.16 41.50 18.97 41.77 18.84 41.96C18.78 42.04 18.76 42.11 18.69 42.17C18.44 42.38 18.17 42.54 17.89 42.68C17.78 42.74 17.68 42.81 17.56 42.82C17.37 42.88 17.11 42.84 16.91 42.84L15.59 42.84L10.67 42.84L8.80 42.84L8.34 42.84C8.30 42.84 8.21 42.85 8.18 42.81C8.12 42.74 8.16 42.50 8.16 42.41L8.16 41.31L8.16 36.99L8.16 33.03L8.16 32.05C8.16 31.97 8.13 31.77 8.19 31.72M46.79 31.72C46.83 31.68 46.95 31.71 47.01 31.71C47.22 31.71 47.43 31.69 47.63 31.71C47.69 31.72 47.83 31.71 47.87 31.77C47.96 31.88 47.89 32.21 47.89 32.36C47.89 32.49 47.89 32.63 47.87 32.75C47.87 32.79 47.87 32.85 47.83 32.88C47.78 32.92 47.66 32.89 47.60 32.89L47.01 32.89C46.95 32.89 46.82 32.92 46.77 32.86C46.74 32.83 46.76 32.75 46.76 32.70L46.76 32.24L46.76 31.85C46.76 31.81 46.74 31.75 46.79 31.72M52.83 31.72C52.89 31.69 52.99 31.71 53.05 31.71L53.54 31.71L55.34 31.71C57.09 31.71 58.86 31.74 60.61 31.74L61.68 31.74C61.84 31.74 62.03 31.71 62.20 31.74C62.31 31.77 62.42 31.85 62.52 31.90C62.85 32.08 63.22 32.33 63.46 32.63C63.56 32.76 63.62 32.95 63.69 33.10C63.75 33.21 63.83 33.31 63.86 33.43C63.89 33.59 63.86 33.80 63.86 33.98L63.86 35.12L63.86 39.74C63.86 40.32 63.96 41.03 63.72 41.58C63.69 41.65 63.62 41.68 63.58 41.76C63.56 41.79 63.58 41.83 63.55 41.87C63.52 41.90 63.46 41.90 63.43 41.95C63.40 41.99 63.43 42.05 63.40 42.10C63.25 42.29 63 42.42 62.79 42.53C62.61 42.63 62.37 42.79 62.17 42.84C61.96 42.88 61.72 42.84 61.51 42.84L60.16 42.84L55.10 42.84L53.35 42.84C53.19 42.84 52.84 42.91 52.72 42.76C52.64 42.65 52.70 42.30 52.70 42.16L52.70 40.52L52.70 34.19L52.70 32.34C52.70 32.17 52.64 31.83 52.83 31.72M66.13 31.72C66.37 31.66 66.66 31.71 66.90 31.71L68.47 31.71L71.72 31.71L72.82 31.71C73 31.71 73.21 31.68 73.39 31.71C73.88 31.80 74.38 32.06 74.74 32.40C74.90 32.57 75.04 32.83 75.15 33.04C75.23 33.18 75.24 33.34 75.27 33.49C75.42 34.10 75.36 34.75 75.36 35.37C75.36 37.11 75.32 38.85 75.32 40.58C75.32 41.16 75.30 41.74 75.30 42.32L75.30 42.74C75.30 42.78 75.32 42.85 75.26 42.87C75.11 42.91 74.89 42.87 74.74 42.87C74.34 42.87 73.94 42.85 73.54 42.85C73.37 42.85 73.09 42.91 72.99 42.76C72.94 42.71 72.96 42.60 72.96 42.54L72.96 42.04L72.96 40.05L72.96 39.50C72.96 39.44 72.97 39.35 72.94 39.31C72.90 39.25 72.70 39.28 72.63 39.28L71.71 39.28L67.95 39.28L66.93 39.28C66.86 39.28 66.63 39.25 66.59 39.31C66.54 39.35 66.57 39.47 66.57 39.53L66.57 40.15L66.57 41.96L66.57 42.50C66.57 42.57 66.59 42.66 66.56 42.74C66.50 42.90 66.20 42.85 66.07 42.85C65.62 42.85 65.19 42.88 64.75 42.88C64.64 42.88 64.38 42.93 64.30 42.87C64.26 42.84 64.27 42.72 64.27 42.68L64.27 42.14C64.27 41.40 64.26 40.67 64.26 39.93C64.26 38.39 64.24 36.83 64.24 35.28L64.24 33.93C64.24 33.77 64.20 33.50 64.26 33.35C64.27 33.29 64.35 33.25 64.38 33.19C64.41 33.12 64.41 33.03 64.44 32.95C64.47 32.89 64.56 32.86 64.59 32.80C64.61 32.76 64.60 32.72 64.63 32.67C64.97 32.17 65.54 31.84 66.13 31.72M77.57 31.72C77.81 31.66 78.11 31.71 78.36 31.71L79.95 31.71L83.08 31.71L84.24 31.71C84.43 31.71 84.64 31.68 84.82 31.71C84.98 31.74 85.14 31.83 85.29 31.88C85.41 31.93 85.56 31.96 85.68 32.02C85.78 32.09 85.89 32.23 85.97 32.31C86.15 32.49 86.38 32.66 86.52 32.86C86.61 33 86.64 33.24 86.69 33.38C86.78 33.70 86.76 34.01 86.76 34.33L86.76 35.57C86.76 36.89 86.75 38.22 86.75 39.54C86.75 39.93 86.73 40.32 86.73 40.70C86.73 40.94 86.76 41.22 86.67 41.44C86.66 41.49 86.61 41.49 86.58 41.53C86.54 41.61 86.54 41.71 86.48 41.80C86.39 41.96 86.20 42.10 86.06 42.22C85.93 42.33 85.83 42.50 85.68 42.59C85.50 42.71 85.19 42.78 84.98 42.82C84.77 42.88 84.51 42.84 84.30 42.84L82.89 42.84C81.36 42.84 79.84 42.82 78.32 42.82C78 42.82 77.65 42.88 77.35 42.82C76.98 42.75 76.68 42.51 76.40 42.29C76.30 42.20 76.18 42.13 76.10 42.02C75.99 41.89 75.93 41.70 75.85 41.53C75.78 41.40 75.69 41.27 75.66 41.12C75.64 40.95 75.66 40.79 75.66 40.63L75.66 39.66C75.66 38.19 75.63 36.74 75.63 35.27C75.63 34.69 75.57 34.07 75.70 33.50C75.72 33.44 75.69 33.35 75.72 33.29C75.73 33.25 75.79 33.28 75.81 33.24C75.84 33.18 75.78 33.10 75.79 33.04C75.84 32.95 75.94 32.89 75.99 32.82C76.06 32.70 76.15 32.61 76.24 32.51C76.27 32.46 76.27 32.42 76.30 32.39C76.36 32.31 76.47 32.26 76.55 32.20C76.64 32.11 76.73 31.99 76.85 31.93C77.05 31.83 77.35 31.77 77.57 31.72M8.86 32.46C8.89 32.43 8.98 32.45 9.02 32.45L9.44 32.45L11.09 32.45L16.12 32.45L17.06 32.45C17.20 32.45 17.38 32.42 17.52 32.45C17.86 32.54 18.21 32.86 18.42 33.13C18.52 33.26 18.64 33.44 18.69 33.61C18.73 33.72 18.70 33.86 18.70 33.98L18.70 34.72C18.70 35.76 18.69 36.78 18.69 37.82C18.69 38.70 18.67 39.57 18.67 40.45C18.67 40.69 18.72 40.98 18.67 41.22C18.66 41.30 18.60 41.37 18.55 41.43C18.45 41.56 18.38 41.76 18.24 41.86C18.14 41.95 18.01 41.99 17.90 42.07C17.80 42.14 17.74 42.23 17.59 42.28C17.40 42.33 17.17 42.30 16.98 42.30L15.87 42.30C14.26 42.30 12.68 42.32 11.07 42.32L9.44 42.32C9.32 42.32 8.97 42.38 8.89 42.29C8.82 42.20 8.83 41.99 8.83 41.89L8.83 40.91L8.83 37.04L8.83 33.59L8.83 32.75C8.83 32.69 8.80 32.51 8.86 32.46M36.99 32.46C37.02 32.43 37.09 32.45 37.14 32.45L37.55 32.45L39.14 32.45L43.82 32.45L45.24 32.45C45.44 32.45 45.70 32.40 45.90 32.45C45.97 32.48 45.94 32.63 45.94 32.69L45.94 33.31C45.94 33.37 45.97 33.49 45.93 33.53C45.88 33.61 45.63 33.56 45.56 33.56L44.43 33.56L39.86 33.56L38.50 33.56C38.43 33.56 38.10 33.52 38.07 33.61C38.01 33.84 38.07 34.20 38.09 34.44C38.12 34.96 38.10 35.51 38.10 36.03L38.10 36.59C38.10 36.65 38.09 36.74 38.13 36.78C38.21 36.83 38.37 36.80 38.45 36.80L39.23 36.80C40.23 36.80 41.22 36.81 42.22 36.81C42.74 36.81 43.27 36.83 43.79 36.83L44.20 36.83C44.25 36.83 44.32 36.81 44.35 36.84C44.40 36.87 44.38 36.95 44.38 36.99L44.38 37.39L44.38 37.76C44.38 37.81 44.40 37.88 44.37 37.91C44.32 37.99 44.09 37.94 44.01 37.94L42.93 37.94L39.35 37.94L38.43 37.94C38.36 37.94 38.16 37.91 38.10 37.96C38.04 38 38.07 38.13 38.07 38.19L38.07 38.91L38.07 41.79L38.07 42.16C38.07 42.20 38.09 42.26 38.06 42.29C38.01 42.35 37.87 42.32 37.81 42.32C37.61 42.32 37.44 42.32 37.24 42.32C37.17 42.32 37.06 42.33 36.99 42.30C36.86 42.25 36.92 41.90 36.92 41.79C36.92 41.25 36.93 40.70 36.93 40.17C36.93 38.24 36.96 36.29 36.96 34.36L36.96 32.94L36.96 32.60C36.96 32.55 36.95 32.49 36.99 32.46M53.47 32.46C53.50 32.43 53.59 32.45 53.63 32.45L54.05 32.45L55.69 32.45L60.73 32.45L61.66 32.45C61.81 32.45 61.99 32.42 62.12 32.45C62.46 32.54 62.82 32.86 63.03 33.13C63.13 33.26 63.25 33.44 63.29 33.61C63.34 33.72 63.31 33.86 63.31 33.98L63.31 34.72C63.31 35.76 63.29 36.78 63.29 37.82C63.29 38.70 63.28 39.57 63.28 40.45C63.28 40.69 63.32 40.98 63.28 41.22C63.26 41.30 63.20 41.37 63.16 41.43C63.06 41.56 62.98 41.76 62.85 41.86C62.74 41.95 62.61 41.99 62.51 42.07C62.40 42.14 62.34 42.23 62.20 42.28C62 42.33 61.78 42.30 61.59 42.30L60.47 42.30C58.87 42.30 57.25 42.32 55.65 42.32L54 42.32L53.60 42.32C53.56 42.32 53.48 42.33 53.45 42.29C53.39 42.23 53.44 42.02 53.44 41.93L53.44 40.94L53.44 37.05L53.44 33.59L53.44 32.75C53.44 32.69 53.41 32.51 53.47 32.46M66.10 32.46C66.25 32.42 66.46 32.45 66.62 32.45L67.70 32.45C68.93 32.45 70.18 32.48 71.41 32.48L73 32.48C73.22 32.48 73.52 32.42 73.73 32.49C73.83 32.52 73.91 32.60 74 32.66C74.11 32.75 74.28 32.83 74.38 32.94C74.53 33.10 74.65 33.35 74.75 33.55C74.83 33.70 74.78 33.95 74.78 34.13L74.78 35.48C74.78 37.09 74.81 38.70 74.81 40.32L74.81 41.84C74.81 41.93 74.86 42.29 74.77 42.32C74.55 42.38 74.20 42.32 73.97 42.32C73.91 42.32 73.76 42.35 73.71 42.29C73.68 42.26 73.70 42.16 73.70 42.11L73.70 41.61L73.70 39.69C73.70 39.44 73.73 39.17 73.70 38.92C73.68 38.85 73.65 38.71 73.58 38.68C73.42 38.64 73.19 38.68 73.03 38.68L71.86 38.68L68.06 38.68L66.66 38.68C66.51 38.68 66.23 38.62 66.10 38.70C66.04 38.71 66.04 38.83 66.03 38.89C65.95 39.11 65.98 39.35 65.98 39.59L65.98 41.52L65.98 42.05C65.98 42.11 66 42.23 65.97 42.29C65.94 42.35 65.80 42.32 65.74 42.32L65.21 42.32C65.13 42.32 65.03 42.33 64.97 42.30C64.91 42.28 64.91 42.20 64.91 42.14C64.91 41.99 64.90 41.84 64.90 41.70C64.90 41.09 64.87 40.46 64.87 39.86L64.87 35.86L64.87 34.57C64.87 34.36 64.84 34.13 64.87 33.92C64.97 33.28 65.46 32.64 66.10 32.46M77.17 42.08C77.23 42.05 77.26 42.08 77.26 42.14C77.17 42.13 77.14 42.07 77.08 42.02C76.80 41.86 76.61 41.59 76.46 41.31C76.42 41.22 76.34 41.15 76.33 41.04C76.30 40.86 76.33 40.66 76.33 40.48C76.33 38.73 76.30 36.98 76.30 35.22C76.30 34.69 76.25 34.14 76.40 33.62C76.45 33.47 76.47 33.28 76.58 33.16C76.73 33 76.91 32.76 77.10 32.64C77.66 32.31 78.43 32.45 79.07 32.45L83.04 32.45L84.33 32.45C84.54 32.45 84.76 32.42 84.97 32.45C85.05 32.46 85.14 32.52 85.22 32.55C85.63 32.72 86.05 33.16 86.20 33.59C86.26 33.77 86.21 34.05 86.21 34.24L86.21 35.70C86.21 36.95 86.24 38.18 86.24 39.42L86.24 40.42C86.24 40.58 86.27 40.76 86.24 40.91C86.20 41.09 86.11 41.30 86.03 41.46C85.95 41.64 85.77 41.79 85.63 41.93C85.59 41.99 85.53 42.07 85.46 42.08C85.38 42.11 85.28 42.04 85.20 42.02C85.10 42.02 85.04 42.10 84.95 42.13C84.88 42.16 84.77 42.10 84.70 42.13C84.64 42.16 84.62 42.25 84.61 42.30C84.80 42.36 84.98 42.29 85.16 42.22C85.23 42.20 85.31 42.19 85.35 42.11M64.47 32.76L64.59 32.73M64.61 32.76L64.75 32.73M10.26 33.58C10.36 33.52 10.60 33.56 10.72 33.56L11.83 33.56L15.88 33.56L16.85 33.56C16.97 33.56 17.16 33.53 17.28 33.58C17.38 33.61 17.50 33.75 17.56 33.83C17.63 33.93 17.59 34.16 17.59 34.27L17.59 35.45L17.59 39.68L17.59 40.54C17.59 40.64 17.62 40.81 17.58 40.89C17.52 41 17.32 41.13 17.22 41.19C17.10 41.25 16.89 41.21 16.76 41.21L15.66 41.21L11.67 41.21L10.76 41.21C10.63 41.21 10.46 41.24 10.35 41.19C10.24 41.16 10.08 41.03 10 40.94C9.93 40.84 9.98 40.63 9.98 40.51L9.98 39.41C9.98 38 9.95 36.59 9.95 35.18L9.95 34.35C9.95 34.23 9.92 34.08 9.96 33.96C9.99 33.86 10.15 33.64 10.26 33.58M54.86 33.58C54.97 33.52 55.20 33.56 55.32 33.56L56.44 33.56L60.49 33.56L61.45 33.56C61.57 33.56 61.76 33.53 61.88 33.58C61.99 33.61 62.11 33.75 62.17 33.83C62.24 33.93 62.20 34.16 62.20 34.27L62.20 35.45L62.20 39.68L62.20 40.54C62.20 40.64 62.22 40.81 62.18 40.89C62.12 41 61.93 41.13 61.82 41.19C61.71 41.25 61.50 41.21 61.36 41.21L60.27 41.21L56.27 41.21L55.37 41.21C55.23 41.21 55.07 41.24 54.95 41.19C54.85 41.16 54.68 41.03 54.61 40.94C54.54 40.84 54.58 40.63 54.58 40.51L54.58 39.41C54.58 38 54.55 36.59 54.55 35.18L54.55 34.35C54.55 34.23 54.52 34.08 54.57 33.96C54.60 33.86 54.76 33.64 54.86 33.58M66.31 33.58C66.43 33.52 66.63 33.56 66.75 33.56L67.84 33.56L71.72 33.56L72.91 33.56C73.05 33.56 73.28 33.52 73.39 33.59C73.73 33.80 73.67 34.14 73.67 34.48C73.67 35.19 73.70 35.91 73.70 36.62C73.70 36.86 73.74 37.12 73.68 37.35C73.67 37.41 73.65 37.54 73.61 37.55C73.49 37.61 73.25 37.57 73.14 37.57L71.98 37.57L67.85 37.57L66.56 37.57C66.44 37.57 66.17 37.61 66.07 37.55C66.01 37.51 65.98 37.38 65.98 37.30C65.98 37.08 65.98 36.86 65.98 36.63C65.98 35.89 66.01 35.15 66.01 34.41C66.01 34.10 65.97 33.74 66.31 33.58M77.74 33.58C77.86 33.52 78.08 33.56 78.21 33.56L79.34 33.56L83.38 33.56L84.36 33.56C84.48 33.56 84.67 33.53 84.79 33.58C84.89 33.61 85 33.75 85.07 33.84C85.14 33.95 85.10 34.14 85.10 34.26L85.10 35.34C85.10 36.71 85.13 38.09 85.13 39.45C85.13 39.84 85.20 40.32 85.08 40.69C85.05 40.81 85.04 41 84.92 41.06C84.64 41.22 84.37 41.21 84.06 41.21L83.17 41.21L79.27 41.21L78.24 41.21C78.11 41.21 77.91 41.24 77.80 41.19C77.71 41.16 77.57 41.03 77.53 40.94C77.45 40.84 77.45 40.64 77.44 40.52C77.38 40.14 77.41 39.74 77.41 39.35C77.41 37.99 77.44 36.60 77.44 35.24L77.44 34.33C77.44 34.20 77.41 34.04 77.45 33.90C77.48 33.80 77.65 33.62 77.74 33.58M25.12 33.64C25.38 33.61 25.65 33.64 25.92 33.64C26.24 33.64 26.57 33.61 26.90 33.64C27.05 33.65 27.22 33.72 27.37 33.78C28.10 34.07 28.65 34.67 28.86 35.43C28.90 35.57 28.87 35.73 28.87 35.86L28.87 36.68L28.87 39.37L28.87 42.02L28.87 42.63C28.87 42.72 28.87 42.82 28.77 42.85C28.60 42.91 28.35 42.87 28.17 42.87C27.71 42.87 27.24 42.85 26.78 42.85C25.35 42.85 23.94 42.81 22.52 42.81C22.21 42.81 21.91 42.81 21.60 42.81C21.45 42.81 21.29 42.84 21.14 42.81C21.03 42.78 20.93 42.69 20.83 42.65C20.66 42.56 20.47 42.48 20.32 42.36C19.94 42.02 19.62 41.49 19.53 40.98C19.46 40.55 19.53 40.05 19.53 39.60C19.53 38.98 19.55 38.37 19.55 37.75L19.55 37.29C19.55 37.23 19.53 37.14 19.58 37.11C19.64 37.05 19.85 37.08 19.92 37.08C20.25 37.08 20.59 37.11 20.91 37.08C21.27 37.05 21.64 37.06 22.01 37.06C22.61 37.06 23.22 37.04 23.81 37.04C24.25 37.04 24.70 37.06 25.13 37.02C25.44 36.99 25.77 37.02 26.08 37.02C26.15 37.02 26.36 37.05 26.42 37.01C26.48 36.96 26.45 36.84 26.45 36.78C26.45 36.56 26.48 36.32 26.45 36.10C26.44 36.03 26.36 36.04 26.30 36.04L25.89 36.04C25.28 36.04 24.66 36.04 24.05 36.03C22.95 36 21.84 36.01 20.74 36.01L19.86 36.01C19.79 36.01 19.61 36.04 19.55 36C19.49 35.95 19.52 35.77 19.52 35.71C19.52 35.45 19.53 35.16 19.53 34.90C19.53 34.60 19.55 34.30 19.55 34.01C19.55 33.93 19.52 33.75 19.58 33.70C19.62 33.65 19.71 33.67 19.77 33.67L20.31 33.67C21.02 33.67 21.73 33.65 22.44 33.65L24.20 33.65C24.49 33.65 24.82 33.68 25.12 33.64M55.17 34.08C55.23 34.04 55.44 34.10 55.52 34.10C55.81 34.14 56.11 34.16 56.41 34.16L60.12 34.16L61.16 34.16C61.23 34.16 61.47 34.11 61.51 34.19C61.56 34.23 61.53 34.35 61.53 34.41L61.53 35.02C61.53 35.80 61.51 36.60 61.51 37.39C61.51 38.15 61.50 38.92 61.50 39.68L61.50 40.23C61.50 40.29 61.51 40.39 61.47 40.42C61.39 40.46 61.23 40.43 61.14 40.43C60.86 40.43 60.58 40.42 60.30 40.43C59.89 40.46 59.48 40.43 59.08 40.45C58.25 40.46 57.43 40.48 56.60 40.48L55.55 40.48C55.47 40.48 55.23 40.52 55.19 40.45C55.14 40.38 55.16 40.24 55.16 40.17L55.16 39.53C55.16 38.73 55.14 37.94 55.14 37.14L55.14 34.84L55.14 34.27C55.14 34.23 55.13 34.11 55.17 34.08M10.57 34.17C10.63 34.13 10.84 34.16 10.91 34.16L11.85 34.16L15.50 34.16L16.55 34.16C16.63 34.16 16.86 34.11 16.91 34.19C16.95 34.23 16.92 34.36 16.92 34.42L16.92 35.06L16.92 37.57L16.92 39.74L16.92 40.27C16.92 40.32 16.94 40.42 16.89 40.45C16.83 40.49 16.63 40.46 16.55 40.46L15.62 40.46C14.41 40.46 13.20 40.49 11.99 40.49C11.64 40.49 11.30 40.48 10.94 40.48C10.87 40.48 10.63 40.52 10.58 40.45C10.54 40.38 10.55 40.24 10.55 40.17L10.55 39.50C10.55 38.68 10.54 37.87 10.54 37.05L10.54 34.88L10.54 34.35C10.54 34.30 10.52 34.20 10.57 34.17M66.60 34.17C66.66 34.11 66.89 34.16 66.97 34.16L68 34.16L71.65 34.16L72.59 34.16C72.66 34.16 72.87 34.13 72.93 34.17C72.97 34.20 72.96 34.29 72.96 34.33C72.96 34.48 72.96 34.62 72.96 34.76C72.96 35.28 72.93 35.79 72.93 36.31L72.93 36.69C72.93 36.74 72.94 36.81 72.90 36.84C72.84 36.92 72.63 36.87 72.54 36.87L71.49 36.87C70.31 36.87 69.13 36.90 67.95 36.90L67.03 36.90C66.93 36.90 66.75 36.93 66.66 36.87C66.51 36.78 66.57 36.49 66.57 36.34L66.57 34.76L66.57 34.33C66.57 34.29 66.56 34.20 66.60 34.17M78.03 34.17C78.09 34.13 78.30 34.16 78.38 34.16L79.31 34.16L82.96 34.16L84.02 34.16C84.09 34.16 84.33 34.11 84.37 34.19C84.42 34.23 84.39 34.36 84.39 34.42L84.39 35.06L84.39 37.57L84.39 39.74L84.39 40.27C84.39 40.32 84.40 40.42 84.36 40.45C84.30 40.49 84.09 40.46 84.02 40.46L83.08 40.46L79.43 40.46L78.38 40.46C78.30 40.46 78.06 40.51 78.02 40.43C77.97 40.39 78 40.26 78 40.20L78 39.56L78 37.05L78 34.88L78 34.35C78 34.30 77.99 34.20 78.03 34.17M24.97 34.30C25.35 34.26 25.78 34.30 26.17 34.30C26.54 34.30 27 34.32 27.34 34.47C27.74 34.63 28.01 34.97 28.19 35.34C28.25 35.45 28.31 35.54 28.34 35.64C28.38 35.76 28.35 35.89 28.35 36.01L28.35 36.78L28.35 39.26L28.35 41.58C28.35 41.76 28.35 41.95 28.35 42.13C28.35 42.17 28.37 42.29 28.32 42.30C28.26 42.33 28.16 42.32 28.10 42.32C27.91 42.32 27.73 42.32 27.54 42.32L25.56 42.32L22.77 42.32L21.91 42.32C21.79 42.32 21.61 42.35 21.49 42.32C21.36 42.28 21.24 42.16 21.12 42.10C20.69 41.89 20.40 41.55 20.23 41.09C20.17 40.92 20.22 40.69 20.22 40.51C20.22 40.12 20.20 39.75 20.20 39.37C20.20 38.99 20.19 38.64 20.19 38.27C20.19 38.15 20.14 37.93 20.20 37.82C20.23 37.75 20.50 37.79 20.57 37.79L21.72 37.79C23.08 37.79 24.43 37.76 25.80 37.76L26.79 37.76C26.87 37.76 27.08 37.79 27.12 37.73C27.19 37.61 27.13 37.33 27.13 37.20C27.15 36.87 27.16 36.55 27.16 36.22C27.16 36.10 27.19 35.94 27.16 35.82C27.13 35.71 26.94 35.52 26.84 35.49C26.69 35.46 26.48 35.49 26.33 35.49L25.28 35.49L21.89 35.49L20.71 35.49C20.57 35.49 20.34 35.54 20.22 35.48C20.16 35.45 20.19 35.30 20.19 35.24C20.19 35.02 20.22 34.79 20.22 34.57C20.22 34.51 20.19 34.38 20.26 34.35C20.32 34.32 20.42 34.33 20.48 34.33L21 34.33C21.60 34.33 22.18 34.32 22.77 34.32L24.20 34.32C24.45 34.32 24.71 34.35 24.97 34.30M46.82 34.35C46.88 34.32 47 34.33 47.05 34.33L47.63 34.33C47.69 34.33 47.83 34.30 47.86 34.36C47.92 34.48 47.87 34.72 47.87 34.85L47.87 36.06L47.87 40.38L47.87 41.83L47.87 42.17C47.87 42.22 47.89 42.28 47.84 42.30C47.80 42.35 47.66 42.32 47.60 42.32L47 42.32C46.91 42.32 46.82 42.33 46.79 42.23C46.73 42.04 46.76 41.81 46.76 41.61C46.76 41.19 46.77 40.79 46.77 40.38C46.77 39.01 46.79 37.63 46.79 36.26L46.79 34.82C46.79 34.73 46.74 34.41 46.82 34.35M29.23 36.99C29.35 36.93 29.58 36.98 29.70 36.98C30.10 36.98 30.49 36.96 30.89 36.99C31.34 37.02 31.78 36.99 32.23 36.99C32.92 36.99 33.64 37.01 34.33 37.01L35.30 37.01C35.40 37.01 35.60 36.96 35.70 37.02C35.74 37.04 35.73 37.09 35.73 37.14L35.73 37.51L35.73 38.86C35.73 38.95 35.77 39.25 35.70 39.31C35.63 39.37 35.39 39.32 35.30 39.32L34.17 39.32C33.50 39.32 32.83 39.34 32.17 39.34C31.75 39.34 31.31 39.31 30.89 39.34C30.50 39.37 30.10 39.35 29.72 39.35C29.58 39.35 29.35 39.40 29.23 39.34C29.11 39.29 29.12 38.94 29.11 38.83C29.05 38.39 29.09 37.91 29.09 37.47C29.09 37.32 29.06 37.08 29.23 36.99M33.87 37.64C34.19 37.61 34.51 37.64 34.82 37.64C34.90 37.64 35.09 37.61 35.15 37.66C35.21 37.70 35.18 37.84 35.18 37.90L35.18 38.56C35.18 38.62 35.21 38.79 35.15 38.82C35.06 38.86 34.90 38.83 34.81 38.83L34.01 38.83L31.13 38.83L30.24 38.83C30.13 38.83 29.95 38.86 29.87 38.82C29.81 38.79 29.84 38.64 29.84 38.58C29.84 38.37 29.87 38.15 29.87 37.94C29.87 37.88 29.84 37.75 29.90 37.70C29.94 37.64 30.09 37.67 30.16 37.67L30.92 37.67C31.54 37.67 32.15 37.66 32.78 37.66C33.13 37.66 33.52 37.70 33.87 37.64M21.40 38.92C21.46 38.88 21.67 38.91 21.75 38.91L22.73 38.91L25.89 38.91L26.76 38.91C26.87 38.91 27.05 38.88 27.13 38.92C27.18 38.94 27.16 38.99 27.16 39.04L27.16 39.41L27.16 40.75C27.16 40.84 27.21 41.13 27.13 41.19C27.09 41.22 26.88 41.19 26.82 41.19C26.51 41.22 26.20 41.21 25.89 41.21L22.92 41.21L22.10 41.21C22 41.21 21.84 41.24 21.75 41.19C21.64 41.13 21.45 41 21.39 40.89C21.35 40.79 21.38 40.60 21.38 40.49L21.38 39.53L21.38 39.08C21.38 39.04 21.36 38.95 21.40 38.92M21.95 39.47C22.03 39.42 22.18 39.45 22.25 39.45L23.01 39.45L25.46 39.45L26.14 39.45C26.21 39.45 26.35 39.42 26.42 39.47C26.48 39.50 26.45 39.62 26.45 39.68L26.45 40.23C26.45 40.27 26.47 40.39 26.42 40.42C26.38 40.46 26.21 40.43 26.14 40.43L25.37 40.43C24.63 40.43 23.84 40.40 23.10 40.45C22.81 40.46 22.55 40.46 22.27 40.46C22.18 40.46 22.01 40.49 21.92 40.45C21.86 40.42 21.89 40.30 21.89 40.24C21.89 40.05 21.92 39.87 21.92 39.68C21.92 39.62 21.91 39.51 21.95 39.47M27.02 41.18L27.15 41.12M74.59 42.30L74.59 41.68L74.60 41.46L74.80 41.43M37.85 42.30L37.85 41.77L37.88 41.59L38.06 41.58M17.98 41.81L18.12 41.95M62.58 41.81L62.73 41.95M18.06 41.83L18.21 41.87M62.67 41.83L62.82 41.87M18.69 42.02L18.79 42.04M21.54 42.02L21.43 42.26M77.65 42.02C77.63 42.08 77.62 42.10 77.59 42.13C77.56 42.17 77.56 42.22 77.53 42.23C77.47 42.30 77.34 42.17 77.28 42.16M17.16 42.29L17.22 42.14L17.40 42.11L17.87 42.05M61.76 42.29L61.82 42.14L62 42.11L62.48 42.05M28.13 42.30C28.13 42.11 28.14 42.10 28.34 42.10M21.55 42.11L21.67 42.30M77.66 42.11C77.71 42.14 77.78 42.22 77.77 42.29C77.74 42.35 77.59 42.32 77.56 42.28M21.23 42.16C21.29 42.13 21.32 42.16 21.32 42.22M77.32 42.16C77.40 42.13 77.43 42.14 77.43 42.22M77.80 42.32L84.59 42.32"/>
 </g>
</svg>