<?xml version="1.0" encoding="utf-8"?>
<!DOCTYPE svg PUBLIC "-//W3C//DTD SVG 20010904//EN" "http://www.w3.org/TR/2001/REC-SVG-20010904/DTD/svg10.dtd">
<svg version="1.0" xmlns="http://www.w3.org/2000/svg" width="95px" height="25px" viewBox="0 25.5 95 25" preserveAspectRatio="xMidYMid meet">
 <g fill="none" stroke="#000000" stroke-width="0.1">
  <path d="M0.03 0.03L0.40 0.01L1.44 0.01L5.45 0.01L21 0.01L75.87 0.01L90.03 0.01L93.68 0.01L94.61 0.01L94.96 0.03L94.99 0.25L94.99 0.92L94.99 3.62L94.99 14.65L94.99 59.66L94.99 71.98L94.99 74.99L94.99 75.73L94.96 75.99L94.61 76L93.68 76L90.03 76L75.87 76L20.99 76L5.45 76L1.44 76L0.40 76L0.03 75.99L0 75.73L0 74.99L0 71.98L0 59.64L0 14.64L0 3.61L0 0.92L0 0.25L0.03 0.03M46.12 31.07C46.19 31.01 46.48 31.05 46.58 31.05C47.01 31.05 47.46 31.07 47.89 31.07L48.27 31.07C48.32 31.07 48.38 31.05 48.41 31.10C48.44 31.13 48.42 31.20 48.42 31.25L48.42 31.62L48.42 32.85C48.42 32.98 48.46 33.24 48.41 33.35C48.38 33.43 48.08 33.38 48 33.38C47.65 33.38 47.26 33.38 46.91 33.41C46.83 33.41 46.59 33.41 46.56 33.50C46.52 33.64 46.88 33.64 46.95 33.64C47.32 33.64 47.69 33.67 48.06 33.67C48.14 33.67 48.39 33.62 48.42 33.71C48.46 33.80 48.44 33.93 48.44 34.02L48.44 34.76C48.44 35.61 48.44 36.47 48.44 37.32C48.44 38.71 48.45 40.11 48.45 41.50C48.45 41.83 48.45 42.19 48.42 42.51C48.42 42.59 48.45 42.79 48.38 42.82C48.26 42.88 48 42.84 47.87 42.84C47.47 42.84 47.05 42.85 46.65 42.85L46.27 42.85C46.22 42.85 46.16 42.87 46.13 42.82C46.06 42.72 46.12 42.42 46.12 42.30C46.12 41.86 46.10 41.40 46.10 40.95C46.10 39.91 46.09 38.88 46.08 37.84C46.08 37.21 46.10 36.59 46.06 35.98C46.03 35.55 46.06 35.11 46.06 34.67C46.06 34.56 46.10 34.29 46.05 34.19C45.99 34.11 45.72 34.16 45.63 34.16L44.35 34.16C42.99 34.16 41.64 34.13 40.27 34.13L39.16 34.13C39.04 34.13 38.82 34.08 38.70 34.14C38.62 34.17 38.67 34.44 38.67 34.51L38.67 35.67C38.67 35.74 38.62 36.06 38.71 36.09C38.85 36.11 39.02 36.09 39.16 36.09C39.48 36.09 39.81 36.07 40.14 36.09C41.22 36.11 42.30 36.11 43.39 36.11L44.46 36.11C44.58 36.11 44.78 36.07 44.90 36.13C44.96 36.14 44.95 36.22 44.95 36.26L44.95 36.63C44.95 37.05 44.96 37.48 44.96 37.90C44.96 38.01 44.99 38.28 44.92 38.39C44.86 38.46 44.62 38.43 44.53 38.43C44.16 38.45 43.79 38.46 43.42 38.46C42.28 38.46 41.12 38.49 39.97 38.49L39.05 38.49C38.96 38.49 38.77 38.46 38.70 38.50C38.64 38.55 38.67 38.70 38.67 38.76L38.67 39.51L38.67 41.95L38.67 42.59C38.67 42.65 38.70 42.76 38.65 42.81C38.62 42.85 38.55 42.84 38.50 42.84L38.10 42.84C37.69 42.84 37.27 42.85 36.86 42.85C36.71 42.85 36.47 42.90 36.32 42.82C36.26 42.81 36.28 42.74 36.28 42.68C36.26 42.53 36.26 42.38 36.26 42.23C36.25 41.62 36.23 41 36.23 40.39C36.23 38.24 36.25 36.10 36.25 33.95L36.25 32.33L36.25 31.91C36.25 31.87 36.23 31.80 36.28 31.77C36.31 31.72 36.41 31.74 36.46 31.74L36.96 31.74C37.64 31.74 38.31 31.72 38.99 31.72C40.64 31.72 42.29 31.68 43.94 31.68C44.40 31.68 44.87 31.65 45.33 31.65C45.53 31.65 45.85 31.69 46.02 31.60C46.10 31.54 46.09 31.29 46.09 31.20C46.09 31.16 46.08 31.10 46.12 31.07M8.19 31.72C8.22 31.69 8.33 31.71 8.37 31.71L8.85 31.71L10.70 31.71C12.44 31.71 14.16 31.74 15.90 31.74L17 31.74C17.16 31.74 17.37 31.71 17.53 31.75C18.02 31.85 18.51 32.26 18.81 32.64C18.97 32.83 19.12 33.07 19.18 33.31C19.30 33.74 19.25 34.24 19.25 34.67L19.25 37.73C19.25 38.67 19.27 39.59 19.24 40.52C19.24 40.76 19.27 41.03 19.21 41.27C19.16 41.50 18.99 41.77 18.84 41.95C18.78 42.02 18.78 42.11 18.69 42.17C18.44 42.38 18.17 42.54 17.89 42.68C17.78 42.74 17.68 42.81 17.56 42.82C17.37 42.88 17.11 42.84 16.91 42.84L15.59 42.84L10.67 42.84L8.80 42.84L8.34 42.84C8.30 42.84 8.21 42.85 8.18 42.81C8.12 42.74 8.16 42.50 8.16 42.41L8.16 41.31L8.16 36.99L8.16 33.03L8.16 32.05C8.16 31.97 8.13 31.77 8.19 31.72M46.79 31.72C46.83 31.68 46.95 31.71 47.01 31.71C47.22 31.71 47.43 31.69 47.63 31.71C47.69 31.72 47.83 31.71 47.87 31.77C47.96 31.88 47.89 32.21 47.89 32.36C47.89 32.49 47.89 32.63 47.87 32.75C47.87 32.79 47.87 32.85 47.83 32.88C47.78 32.92 47.66 32.89 47.60 32.89L47.01 32.89C46.95 32.89 46.82 32.92 46.77 32.86C46.74 32.83 46.76 32.75 46.76 32.70L46.76 32.24L46.76 31.85C46.76 31.81 46.74 31.75 46.79 31.72M67.45 31.71C67.67 31.68 67.93 31.71 68.15 31.71L69.50 31.71C70.39 31.71 71.28 31.71 72.17 31.72C72.65 31.74 73.15 31.69 73.61 31.80C74.34 31.94 74.92 32.54 75.20 33.21C75.35 33.58 75.33 34.01 75.33 34.41C75.33 34.82 75.35 35.22 75.35 35.64C75.35 37.30 75.32 38.95 75.32 40.61C75.32 41.19 75.30 41.76 75.30 42.33L75.30 42.74C75.30 42.79 75.32 42.85 75.24 42.87C74.95 42.91 74.59 42.87 74.29 42.87C74 42.87 73.71 42.84 73.42 42.84C73.33 42.84 73.12 42.85 73.06 42.79C73 42.75 73 42.66 73 42.60C72.99 42.45 72.97 42.29 72.97 42.14C72.97 41.53 72.96 40.94 72.96 40.33L72.96 39.56C72.96 39.50 72.99 39.34 72.93 39.29C72.87 39.25 72.66 39.28 72.59 39.28L71.65 39.28L68 39.28L66.95 39.28C66.87 39.28 66.63 39.23 66.59 39.31C66.54 39.35 66.57 39.48 66.57 39.54L66.57 40.21C66.57 40.79 66.59 41.35 66.56 41.93C66.54 42.19 66.59 42.48 66.53 42.74C66.49 42.88 66.16 42.84 66.04 42.84C65.61 42.87 65.18 42.88 64.75 42.88C64.64 42.88 64.38 42.93 64.30 42.87C64.24 42.82 64.27 42.71 64.27 42.65L64.27 41.99C64.27 41.10 64.26 40.23 64.26 39.34C64.26 37.76 64.24 36.17 64.24 34.60C64.24 34.26 64.23 33.92 64.26 33.59C64.26 33.50 64.26 33.43 64.27 33.34C64.30 33.28 64.35 33.25 64.38 33.19C64.42 33.10 64.42 33.01 64.48 32.92C64.51 32.88 64.57 32.85 64.60 32.79C64.67 32.64 64.79 32.42 64.93 32.30C65.21 32.08 65.58 31.85 65.94 31.78C66.44 31.69 66.95 31.78 67.45 31.71M79.01 31.71C79.24 31.68 79.47 31.71 79.70 31.71L81 31.71C81.92 31.71 82.86 31.68 83.78 31.72C84.19 31.74 84.62 31.71 85.04 31.80C85.62 31.93 86.20 32.40 86.51 32.91C86.67 33.21 86.70 33.56 86.72 33.89C86.75 34.29 86.76 34.70 86.76 35.11C86.76 36.55 86.75 37.99 86.75 39.42C86.75 39.86 86.73 40.27 86.73 40.70C86.73 40.94 86.76 41.22 86.67 41.44C86.64 41.52 86.55 41.61 86.51 41.68C86.15 42.22 85.68 42.68 85.03 42.78C84.48 42.85 83.93 42.79 83.38 42.82C81.88 42.88 80.36 42.82 78.85 42.82C77.97 42.82 77.02 42.93 76.36 42.25C76.07 41.95 75.75 41.53 75.67 41.13C75.63 40.95 75.66 40.73 75.66 40.55L75.66 39.41C75.66 37.87 75.64 36.34 75.64 34.79C75.64 34.53 75.66 34.27 75.66 34.01C75.66 33.80 75.64 33.53 75.73 33.32C75.75 33.28 75.79 33.26 75.81 33.22C75.84 33.16 75.81 33.09 75.84 33.03C75.91 32.85 76.07 32.67 76.21 32.52C76.24 32.48 76.24 32.42 76.28 32.39C76.34 32.33 76.43 32.29 76.50 32.23C76.65 32.11 76.77 31.99 76.95 31.90C77.60 31.63 78.35 31.80 79.01 31.71M53.59 31.72C53.84 31.69 54.09 31.72 54.34 31.72L55.81 31.72C57.37 31.72 58.94 31.74 60.50 31.74L61.65 31.74C61.82 31.74 62.03 31.71 62.20 31.74C62.31 31.77 62.42 31.85 62.52 31.90C62.83 32.08 63.13 32.29 63.37 32.57C63.55 32.79 63.78 33.13 63.86 33.43C63.89 33.59 63.86 33.78 63.86 33.95L63.86 35L63.86 39.23C63.86 39.65 63.84 40.05 63.84 40.46C63.84 40.78 63.86 41.12 63.78 41.43C63.71 41.64 63.58 41.79 63.44 41.95C63.40 41.99 63.40 42.07 63.35 42.13C63.16 42.35 62.88 42.48 62.61 42.62C62.48 42.69 62.30 42.81 62.15 42.84C61.88 42.88 61.57 42.84 61.30 42.84L59.57 42.84C58.04 42.84 56.50 42.90 54.97 42.82C54.42 42.79 53.87 42.81 53.32 42.81C53.19 42.81 53.04 42.81 52.90 42.79C52.86 42.79 52.78 42.81 52.75 42.76C52.72 42.72 52.74 42.63 52.74 42.59C52.72 42.41 52.72 42.23 52.72 42.05C52.72 41.46 52.72 40.86 52.71 40.27C52.67 38.22 52.71 36.16 52.71 34.11C52.71 33.53 52.67 32.91 52.74 32.33C52.75 32.18 52.68 31.94 52.77 31.81C52.81 31.75 52.93 31.75 52.99 31.75C53.19 31.74 53.39 31.75 53.59 31.72M8.86 32.46C8.89 32.43 8.98 32.45 9.02 32.45L9.44 32.45L11.07 32.45C12.80 32.45 14.55 32.39 16.27 32.46C16.73 32.48 17.26 32.39 17.71 32.55C17.99 32.66 18.24 32.89 18.42 33.13C18.75 33.58 18.69 34.16 18.69 34.67L18.69 37.87C18.69 38.62 18.67 39.40 18.67 40.15L18.67 40.88C18.67 40.98 18.70 41.13 18.66 41.24C18.58 41.50 18.27 41.83 18.06 41.99C17.95 42.10 17.75 42.23 17.60 42.28C17.43 42.33 17.26 42.28 17.10 42.28C16.70 42.28 16.31 42.30 15.91 42.30C14.28 42.30 12.63 42.32 11 42.32L9.43 42.32C9.31 42.32 8.97 42.38 8.89 42.29C8.82 42.22 8.85 41.99 8.85 41.90L8.85 40.91C8.85 39.60 8.83 38.30 8.83 36.99L8.83 33.58L8.83 32.75C8.83 32.69 8.80 32.51 8.86 32.46M36.99 32.46C37.02 32.43 37.09 32.45 37.14 32.45L37.55 32.45L39.14 32.45L43.82 32.45L45.24 32.45C45.44 32.45 45.70 32.40 45.90 32.45C45.97 32.48 45.94 32.63 45.94 32.69L45.94 33.31C45.94 33.37 45.97 33.49 45.93 33.53C45.88 33.61 45.63 33.56 45.56 33.56L44.43 33.56L39.86 33.56L38.50 33.56C38.43 33.56 38.10 33.52 38.07 33.61C38.01 33.84 38.07 34.20 38.09 34.44C38.12 34.96 38.10 35.51 38.10 36.03L38.10 36.59C38.10 36.65 38.09 36.74 38.13 36.78C38.21 36.83 38.37 36.80 38.45 36.80L39.23 36.80C40.23 36.80 41.22 36.81 42.22 36.81C42.74 36.81 43.27 36.83 43.79 36.83L44.20 36.83C44.25 36.83 44.32 36.81 44.35 36.84C44.40 36.87 44.38 36.95 44.38 36.99L44.38 37.39L44.38 37.76C44.38 37.81 44.40 37.88 44.37 37.91C44.32 37.99 44.09 37.94 44.01 37.94L42.93 37.94L39.35 37.94L38.43 37.94C38.36 37.94 38.16 37.91 38.10 37.96C38.04 38 38.07 38.13 38.07 38.19L38.07 38.91L38.07 41.77C38.07 41.89 38.13 42.19 38.04 42.29C38 42.35 37.90 42.30 37.82 42.32C37.64 42.33 37.44 42.32 37.26 42.32C37.18 42.32 37.06 42.33 36.99 42.30C36.86 42.25 36.92 41.90 36.92 41.79C36.92 41.25 36.93 40.70 36.93 40.17C36.93 38.24 36.96 36.29 36.96 34.36L36.96 32.94L36.96 32.60C36.96 32.55 36.95 32.49 36.99 32.46M53.47 32.46C53.50 32.43 53.59 32.45 53.63 32.45L54.05 32.45L55.68 32.45C57.40 32.45 59.15 32.39 60.87 32.46C61.33 32.48 61.87 32.39 62.31 32.55C62.60 32.66 62.85 32.89 63.03 33.13C63.35 33.58 63.29 34.16 63.29 34.67L63.29 37.87C63.29 38.62 63.28 39.40 63.28 40.15L63.28 40.88C63.28 40.98 63.31 41.13 63.26 41.24C63.19 41.50 62.88 41.83 62.67 41.99C62.55 42.10 62.36 42.23 62.21 42.28C62.03 42.33 61.87 42.28 61.71 42.28C61.30 42.28 60.92 42.30 60.52 42.30C58.87 42.30 57.22 42.32 55.58 42.32L53.99 42.32L53.60 42.32C53.56 42.32 53.48 42.33 53.45 42.29C53.39 42.23 53.44 42.02 53.44 41.93L53.44 40.92L53.44 37.02L53.44 33.59L53.44 32.75C53.44 32.69 53.41 32.51 53.47 32.46M74.60 42.29C74.44 42.38 74.11 42.32 73.92 42.32C73.88 42.32 73.74 42.33 73.71 42.29C73.68 42.25 73.70 42.16 73.70 42.10L73.70 41.59C73.70 40.92 73.70 40.27 73.68 39.60C73.68 39.41 73.68 39.23 73.67 39.04C73.67 38.96 73.68 38.86 73.64 38.80C73.60 38.76 73.51 38.74 73.45 38.73C72.79 38.64 72.11 38.68 71.46 38.68L68.15 38.68L66.69 38.68C66.53 38.68 66.25 38.62 66.10 38.70C66.04 38.73 66.04 38.85 66.03 38.91C65.98 39.13 66 39.37 66 39.59C66 40.26 65.98 40.92 65.98 41.59L65.98 42.10C65.98 42.16 66 42.25 65.97 42.29C65.92 42.35 65.80 42.32 65.74 42.32L65.21 42.32C65.15 42.32 65.05 42.33 64.99 42.30C64.94 42.29 64.96 42.23 64.94 42.19C64.91 42.04 64.90 41.89 64.90 41.74C64.90 41.18 64.88 40.60 64.88 40.03L64.88 35.18C64.88 34.59 64.81 33.83 65.09 33.29C65.19 33.09 65.39 32.91 65.55 32.76C65.85 32.49 66.28 32.49 66.66 32.48C67.46 32.45 68.28 32.46 69.08 32.46C70.21 32.46 71.32 32.48 72.45 32.48L73.37 32.48C73.51 32.48 73.67 32.45 73.79 32.51C74.17 32.75 74.63 33.16 74.77 33.61C74.83 33.78 74.78 34.05 74.78 34.24L74.78 35.63C74.78 37.06 74.81 38.52 74.81 39.96C74.81 40.32 74.83 40.67 74.80 41.03C74.80 41.13 74.81 41.24 74.80 41.34C74.77 41.41 74.69 41.41 74.65 41.47C74.60 41.53 74.60 41.62 74.59 41.68C74.57 41.83 74.57 42.01 74.59 42.16C74.60 42.20 74.59 42.28 74.63 42.30C74.74 42.36 74.81 42.28 74.81 42.19C74.81 41.95 74.86 41.62 74.78 41.40M78.78 32.45C79.31 32.39 79.90 32.45 80.44 32.45C81.61 32.45 82.78 32.46 83.96 32.46C84.40 32.46 84.94 32.43 85.35 32.61C85.59 32.73 85.84 32.98 85.99 33.21C86.14 33.41 86.15 33.68 86.17 33.92C86.21 34.41 86.21 34.91 86.21 35.40C86.21 36.53 86.21 37.66 86.23 38.79C86.24 39.45 86.29 40.18 86.20 40.85C86.12 41.38 85.84 41.83 85.37 42.08C85.23 42.16 85.13 42.25 84.97 42.28C84.82 42.29 84.70 42.28 84.56 42.28C84.21 42.29 83.85 42.29 83.50 42.30C82.03 42.36 80.53 42.32 79.06 42.32C78.78 42.32 78.49 42.30 78.21 42.29C78.08 42.29 77.93 42.30 77.81 42.26C77.74 42.25 77.74 42.14 77.66 42.13C77.59 42.11 77.56 42.23 77.48 42.22C77.23 42.20 76.95 41.98 76.79 41.80C76.25 41.21 76.33 40.39 76.33 39.63C76.33 38.15 76.31 36.68 76.31 35.19C76.31 34.76 76.31 34.32 76.37 33.89C76.40 33.62 76.46 33.35 76.62 33.13C76.76 32.95 76.94 32.76 77.13 32.64C77.62 32.37 78.24 32.52 78.78 32.45M10.26 33.58C10.36 33.52 10.58 33.56 10.70 33.56L11.80 33.56L15.81 33.56C16.18 33.56 16.57 33.59 16.94 33.59C17.11 33.59 17.35 33.59 17.47 33.74C17.58 33.87 17.55 34.05 17.56 34.21C17.59 34.57 17.59 34.94 17.59 35.30L17.59 39.45L17.59 40.48C17.59 40.60 17.63 40.79 17.58 40.89C17.53 40.98 17.40 41.06 17.32 41.10C17.19 41.18 17.03 41.16 16.88 41.18C16.48 41.22 16.06 41.21 15.66 41.21L11.70 41.21C11.36 41.21 11.01 41.19 10.67 41.18C10.42 41.16 10.18 41.15 10 40.94C9.93 40.84 9.98 40.63 9.98 40.51L9.98 39.41C9.98 38 9.95 36.59 9.95 35.18C9.95 34.79 9.93 34.38 10 33.99C10.03 33.86 10.12 33.65 10.26 33.58M54.86 33.58C54.97 33.52 55.19 33.56 55.31 33.56L56.41 33.56L60.41 33.56C60.79 33.56 61.17 33.59 61.54 33.59C61.72 33.59 61.96 33.59 62.08 33.74C62.18 33.87 62.15 34.05 62.17 34.21C62.20 34.57 62.20 34.94 62.20 35.30L62.20 39.47L62.20 40.48C62.20 40.60 62.24 40.79 62.18 40.89C62.14 40.98 62 41.06 61.93 41.10C61.79 41.18 61.63 41.16 61.48 41.18C61.08 41.22 60.67 41.21 60.27 41.21L56.30 41.21C55.96 41.21 55.62 41.19 55.28 41.18C55.03 41.16 54.79 41.15 54.61 40.94C54.54 40.84 54.58 40.63 54.58 40.51L54.58 39.41C54.58 38 54.55 36.59 54.55 35.18C54.55 34.79 54.54 34.38 54.61 33.99C54.64 33.86 54.73 33.65 54.86 33.58M67.26 33.56C67.75 33.50 68.27 33.56 68.76 33.56L71.74 33.56C72.17 33.56 72.60 33.55 73.02 33.59C73.16 33.61 73.33 33.59 73.46 33.67C73.70 33.81 73.64 34.19 73.65 34.42C73.73 35.16 73.68 35.94 73.68 36.68C73.68 36.90 73.68 37.12 73.67 37.35C73.67 37.41 73.67 37.54 73.60 37.57C73.43 37.61 73.21 37.57 73.05 37.57L71.86 37.57L67.95 37.57C67.48 37.57 67 37.57 66.54 37.54C66.41 37.53 66.19 37.57 66.05 37.50C66 37.45 66 37.35 66 37.27C66 37.08 66.01 36.87 65.98 36.68C65.95 36.44 66 36.17 66 35.94C66 35.46 65.98 34.97 66.03 34.50C66.04 34.26 66 33.93 66.14 33.74C66.23 33.64 66.35 33.62 66.47 33.61C66.74 33.56 66.99 33.61 67.26 33.56M78.69 33.56C79.19 33.50 79.76 33.56 80.26 33.56L83.41 33.56C83.76 33.56 84.13 33.58 84.49 33.59C84.65 33.59 84.86 33.61 84.97 33.74C85.08 33.89 85.07 34.11 85.07 34.29C85.08 34.65 85.10 35 85.10 35.36C85.10 36.74 85.11 38.13 85.11 39.51C85.11 39.91 85.16 40.39 85.05 40.78C85.03 40.94 84.89 41.10 84.71 41.15C84.21 41.24 83.67 41.18 83.17 41.19C81.91 41.25 80.65 41.21 79.38 41.21C78.98 41.21 78.57 41.19 78.17 41.18C77.97 41.16 77.74 41.18 77.59 41.01C77.45 40.85 77.44 40.58 77.44 40.38C77.44 40.02 77.43 39.68 77.43 39.32C77.43 38.01 77.44 36.72 77.44 35.42C77.44 35.06 77.45 34.70 77.47 34.35C77.47 34.17 77.45 33.93 77.56 33.77C77.63 33.65 77.77 33.62 77.90 33.61C78.17 33.56 78.42 33.61 78.69 33.56M22.04 33.65C22.25 33.64 22.49 33.65 22.70 33.65L23.93 33.65L25.72 33.65C26.18 33.65 26.67 33.62 27.13 33.71C27.67 33.83 28.22 34.24 28.53 34.69C28.90 35.24 28.81 35.85 28.86 36.47C28.90 37.12 28.87 37.81 28.87 38.46C28.87 39.29 28.89 40.12 28.86 40.95C28.84 41.43 28.84 41.90 28.84 42.38C28.84 42.47 28.87 42.81 28.78 42.84C28.68 42.87 28.56 42.85 28.46 42.85L27.79 42.85C27.02 42.85 26.23 42.84 25.46 42.84C24.48 42.84 23.50 42.81 22.52 42.81C22.21 42.81 21.88 42.81 21.57 42.81C21.43 42.81 21.26 42.84 21.12 42.79C21 42.76 20.89 42.68 20.78 42.62C20.26 42.33 19.82 41.89 19.65 41.31C19.56 41.04 19.56 40.78 19.55 40.49C19.52 40 19.52 39.50 19.55 39.01C19.58 38.55 19.55 38.09 19.55 37.63C19.55 37.51 19.49 37.21 19.56 37.11C19.61 37.05 19.83 37.08 19.91 37.08C20.23 37.08 20.59 37.11 20.91 37.08C21.33 37.04 21.78 37.06 22.19 37.06C22.73 37.06 23.27 37.04 23.81 37.04C24.25 37.04 24.70 37.05 25.15 37.02C25.46 37.01 25.78 37.02 26.11 37.02C26.18 37.02 26.39 37.05 26.44 36.99C26.47 36.95 26.45 36.86 26.45 36.80L26.45 36.25C26.45 36.19 26.48 36.07 26.41 36.04C26.26 36 26.04 36.04 25.87 36.04L24.70 36.04C23.48 36.04 22.27 36.01 21.05 36.01L20.02 36.01C19.89 36.01 19.70 36.04 19.56 36.01C19.50 36 19.52 35.92 19.52 35.88L19.52 35.51C19.52 35.05 19.55 34.60 19.55 34.14C19.55 34.05 19.50 33.74 19.58 33.68C19.64 33.65 19.71 33.67 19.77 33.67L20.25 33.67C20.83 33.67 21.46 33.74 22.04 33.65M55.17 34.08C55.23 34.04 55.46 34.10 55.53 34.11C55.81 34.14 56.12 34.14 56.41 34.14C57.64 34.14 58.89 34.16 60.12 34.16L61.16 34.16C61.23 34.16 61.47 34.11 61.51 34.19C61.56 34.23 61.53 34.35 61.53 34.41L61.53 35.02C61.53 35.80 61.51 36.60 61.51 37.39C61.51 38.15 61.50 38.92 61.50 39.68L61.50 40.23C61.50 40.29 61.51 40.39 61.47 40.42C61.39 40.46 61.23 40.43 61.14 40.43C60.86 40.43 60.58 40.42 60.30 40.43C59.89 40.46 59.48 40.43 59.08 40.45C58.25 40.46 57.43 40.48 56.60 40.48L55.55 40.48C55.47 40.48 55.23 40.52 55.19 40.45C55.14 40.38 55.16 40.24 55.16 40.17L55.16 39.53C55.16 38.73 55.14 37.94 55.14 37.14L55.14 34.84L55.14 34.27C55.14 34.23 55.13 34.11 55.17 34.08M10.57 34.17C10.63 34.13 10.84 34.16 10.91 34.16L11.85 34.16L15.50 34.16L16.55 34.16C16.63 34.16 16.86 34.11 16.91 34.19C16.95 34.23 16.92 34.36 16.92 34.42L16.92 35.06L16.92 37.57L16.92 39.74L16.92 40.27C16.92 40.32 16.94 40.42 16.89 40.45C16.83 40.49 16.63 40.46 16.55 40.46L15.62 40.46C14.41 40.46 13.20 40.49 11.99 40.49C11.64 40.49 11.30 40.48 10.94 40.48C10.87 40.48 10.63 40.52 10.58 40.45C10.54 40.38 10.55 40.24 10.55 40.17L10.55 39.50C10.55 38.68 10.54 37.87 10.54 37.05L10.54 34.88L10.54 34.35C10.54 34.30 10.52 34.20 10.57 34.17M66.60 34.17C66.66 34.11 66.89 34.16 66.97 34.16L68 34.16L71.65 34.16L72.59 34.16C72.66 34.16 72.87 34.13 72.93 34.17C72.97 34.20 72.96 34.29 72.96 34.33C72.96 34.48 72.96 34.62 72.96 34.76C72.96 35.28 72.93 35.79 72.93 36.31L72.93 36.69C72.93 36.74 72.94 36.81 72.90 36.84C72.84 36.92 72.63 36.87 72.54 36.87L71.49 36.87C70.31 36.87 69.14 36.89 67.97 36.89C67.66 36.89 67.36 36.87 67.05 36.87C66.95 36.87 66.75 36.90 66.65 36.84C66.56 36.77 66.59 36.41 66.59 36.31C66.59 35.79 66.57 35.27 66.57 34.75L66.57 34.32C66.57 34.27 66.56 34.20 66.60 34.17M78.03 34.17C78.09 34.13 78.30 34.16 78.38 34.16L79.31 34.16L82.96 34.16L84.02 34.16C84.09 34.16 84.33 34.11 84.37 34.19C84.42 34.23 84.39 34.36 84.39 34.42L84.39 35.06L84.39 37.57L84.39 39.74L84.39 40.27C84.39 40.32 84.40 40.42 84.36 40.45C84.30 40.49 84.09 40.46 84.02 40.46L83.08 40.46L79.43 40.46L78.38 40.46C78.30 40.46 78.06 40.51 78.02 40.43C77.97 40.39 78 40.26 78 40.20L78 39.56L78 37.05L78 34.88L78 34.35C78 34.30 77.99 34.20 78.03 34.17M22.35 34.32C22.81 34.26 23.32 34.32 23.78 34.32C24.43 34.32 25.09 34.33 25.74 34.33C26.61 34.33 27.52 34.30 28.07 35.12C28.16 35.27 28.31 35.48 28.35 35.65C28.38 35.79 28.35 35.97 28.35 36.10L28.35 37.01L28.35 40.61C28.35 40.98 28.37 41.35 28.34 41.71C28.34 41.80 28.37 41.95 28.32 42.04C28.29 42.10 28.22 42.10 28.17 42.13C28.13 42.19 28.14 42.28 28.05 42.29C27.89 42.35 27.65 42.32 27.48 42.32L26.33 42.32C25.09 42.32 23.84 42.36 22.61 42.30C22.31 42.29 22 42.32 21.72 42.28C21.63 42.26 21.63 42.13 21.54 42.13C21.46 42.13 21.46 42.23 21.39 42.23C21.33 42.25 21.29 42.20 21.24 42.17C21.12 42.11 20.97 42.05 20.87 41.98C20.65 41.79 20.44 41.55 20.34 41.28C20.17 40.85 20.26 40.38 20.22 39.93C20.17 39.41 20.19 38.88 20.19 38.36L20.19 37.97C20.19 37.93 20.17 37.85 20.20 37.82C20.25 37.75 20.51 37.79 20.59 37.79L21.75 37.79C23.08 37.79 24.42 37.76 25.75 37.76L26.76 37.76C26.84 37.76 27.05 37.79 27.10 37.73C27.15 37.70 27.13 37.63 27.13 37.58C27.13 37.47 27.13 37.33 27.13 37.21C27.15 36.83 27.15 36.44 27.15 36.06C27.15 35.86 27.12 35.65 26.91 35.58C26.78 35.52 26.63 35.54 26.48 35.52C26.08 35.48 25.66 35.49 25.26 35.49L21.78 35.49L20.72 35.49C20.57 35.49 20.38 35.52 20.23 35.49C20.16 35.46 20.19 35.30 20.19 35.24C20.19 35.02 20.22 34.79 20.22 34.57C20.22 34.51 20.19 34.38 20.26 34.35C20.41 34.27 20.69 34.33 20.86 34.33C21.35 34.33 21.86 34.39 22.35 34.32M46.82 34.35C46.88 34.32 46.98 34.33 47.04 34.33C47.23 34.33 47.44 34.33 47.63 34.35C47.69 34.35 47.83 34.35 47.86 34.42C47.92 34.56 47.87 34.79 47.87 34.93L47.87 36.14L47.87 40.38L47.87 41.84L47.87 42.19C47.87 42.23 47.89 42.29 47.84 42.30C47.77 42.35 47.65 42.32 47.57 42.32C47.37 42.32 46.88 42.42 46.79 42.19C46.73 42.05 46.77 41.81 46.77 41.67L46.77 40.48C46.77 39.10 46.79 37.72 46.79 36.34L46.79 34.84C46.79 34.73 46.74 34.41 46.82 34.35M29.76 36.99C30.19 36.95 30.67 36.99 31.11 36.99C32.09 36.99 33.06 37.01 34.04 37.01L35.22 37.01C35.34 37.01 35.58 36.96 35.70 37.02C35.77 37.05 35.73 37.38 35.73 37.45L35.73 38.82L35.73 39.19C35.73 39.23 35.74 39.31 35.68 39.32C35.55 39.35 35.36 39.32 35.22 39.32L34.20 39.32C33.12 39.32 32.02 39.32 30.93 39.34C30.53 39.34 30.12 39.35 29.72 39.35C29.58 39.35 29.35 39.40 29.23 39.34C29.12 39.29 29.11 38.94 29.11 38.83C29.09 38.42 29.11 38.01 29.11 37.60C29.11 37.47 29.08 37.20 29.17 37.08C29.26 36.96 29.61 37.02 29.76 36.99M33.87 37.64C34.19 37.61 34.51 37.64 34.82 37.64C34.90 37.64 35.09 37.61 35.15 37.66C35.21 37.70 35.18 37.84 35.18 37.90L35.18 38.56C35.18 38.62 35.21 38.79 35.15 38.82C35.06 38.86 34.90 38.83 34.81 38.83L34.01 38.83L31.13 38.83L30.24 38.83C30.13 38.83 29.95 38.86 29.87 38.82C29.81 38.79 29.84 38.64 29.84 38.58C29.84 38.37 29.87 38.15 29.87 37.94C29.87 37.88 29.84 37.75 29.90 37.70C29.94 37.64 30.09 37.67 30.16 37.67L30.92 37.67C31.54 37.67 32.15 37.66 32.78 37.66C33.13 37.66 33.52 37.70 33.87 37.64M21.40 38.92C21.46 38.88 21.67 38.91 21.75 38.91L22.73 38.91L25.89 38.91L26.76 38.91C26.87 38.91 27.05 38.88 27.13 38.92C27.18 38.94 27.16 38.99 27.16 39.04L27.16 39.41L27.16 40.75C27.16 40.84 27.21 41.13 27.13 41.19C27.09 41.22 26.87 41.19 26.79 41.19C26.48 41.19 26.15 41.21 25.84 41.21L22.98 41.21C22.68 41.21 22.37 41.21 22.07 41.18C21.92 41.16 21.79 41.16 21.66 41.10C21.39 40.95 21.38 40.70 21.38 40.43L21.38 39.47L21.38 39.07C21.38 39.02 21.36 38.95 21.40 38.92M21.95 39.47C22.03 39.42 22.18 39.45 22.25 39.45L23.01 39.45L25.46 39.45L26.14 39.45C26.21 39.45 26.35 39.42 26.42 39.47C26.48 39.50 26.45 39.62 26.45 39.68L26.45 40.23C26.45 40.27 26.47 40.39 26.42 40.42C26.38 40.46 26.21 40.43 26.14 40.43L25.37 40.43C24.63 40.43 23.84 40.40 23.10 40.45C22.81 40.46 22.55 40.46 22.27 40.46C22.18 40.46 22.01 40.49 21.92 40.45C21.86 40.42 21.89 40.30 21.89 40.24C21.89 40.05 21.92 39.87 21.92 39.68C21.92 39.62 21.91 39.51 21.95 39.47M27.02 41.18L27.15 41.12M37.87 42.29C37.87 42.07 37.75 41.62 38.04 41.56M18.11 41.93L18.05 41.84L18.15 41.83M62.71 41.93L62.66 41.84L62.76 41.83M84.62 42.28C84.67 42.11 84.79 42.16 84.92 42.13C85.08 42.10 85.19 41.98 85.35 42.08M17.16 42.28C17.22 42.08 17.49 42.11 17.65 42.08C17.72 42.07 17.80 42.05 17.87 42.08M61.76 42.28C61.82 42.08 62.09 42.11 62.25 42.08C62.33 42.07 62.40 42.05 62.48 42.08M77.17 42.07C77.23 42.05 77.26 42.08 77.26 42.14M28.34 42.08C28.37 42.26 28.31 42.38 28.11 42.29M64.91 42.13C64.87 42.20 64.84 42.30 64.94 42.32M77.54 42.22C77.60 42.26 77.66 42.29 77.74 42.28M21.45 42.23C21.51 42.28 21.55 42.29 21.63 42.28M46.76 42.23C46.76 42.29 46.77 42.30 46.83 42.32"/>
 </g>
</svg>