<svg version="1.1" id="Layer_1" xmlns="http://www.w3.org/2000/svg" xmlns:xlink="http://www.w3.org/1999/xlink" x="0px" y="0px"
	 width="100%" viewBox="0 0 500 500" enable-background="new 0 0 500 500" xml:space="preserve">
<path fill="#000000" opacity="1.000000" stroke="none" 
	d="
M321.000000,501.000000 
	C214.000031,501.000000 107.500053,501.000000 1.000057,501.000000 
	C1.000038,334.333405 1.000038,167.666794 1.000019,1.000147 
	C167.666565,1.000098 334.333130,1.000098 500.999756,1.000049 
	C500.999847,167.666519 500.999847,334.333038 500.999939,500.999786 
	C441.166656,501.000000 381.333344,501.000000 321.000000,501.000000 
M98.077972,187.589905 
	C123.239365,203.584000 148.400772,219.578094 173.611145,235.603333 
	C174.690521,225.377731 174.366196,224.721039 168.377197,221.028900 
	C155.338852,212.990921 142.363251,204.851212 129.356766,196.761505 
	C118.835861,190.217728 108.307304,183.686264 97.102631,177.013763 
	C87.001732,183.313583 76.900841,189.613419 66.799942,195.913239 
	C66.825378,196.489197 66.850815,197.065155 66.876251,197.641113 
	C70.255394,198.582932 74.504204,201.293091 76.852264,200.138336 
	C84.193123,196.528183 90.816216,191.458527 98.077972,187.589905 
M97.353455,274.691895 
	C98.947334,273.912781 100.627403,273.270935 102.121292,272.332611 
	C112.943436,265.535156 123.772766,258.747192 134.509918,251.816956 
	C142.708298,246.525345 150.774887,241.029526 159.183792,235.435822 
	C157.645874,234.421509 156.463318,233.831009 155.513687,232.980469 
	C152.423828,230.213013 149.761200,230.513077 146.361450,232.957489 
	C140.196060,237.390457 133.617279,241.251938 127.179939,245.302490 
	C117.205772,251.578568 107.205475,257.813110 96.867111,263.426331 
	C79.681511,252.556351 62.493435,241.690277 45.311394,230.814682 
	C37.419689,225.819504 29.539846,220.805588 21.002264,215.386063 
	C21.002264,219.027863 20.787189,221.696228 21.099657,224.301285 
	C21.240391,225.474625 22.178934,226.915543 23.187138,227.567383 
	C39.857288,238.344894 56.564095,249.066742 73.333954,259.688538 
	C81.147438,264.637512 89.113068,269.346222 97.353455,274.691895 
M97.166023,157.026764 
	C82.073265,166.683533 66.980515,176.340286 51.707794,186.112198 
	C57.347263,191.352142 59.260696,192.215195 61.684605,190.698776 
	C64.717987,188.801071 67.649391,186.740494 70.680626,184.839218 
	C79.751694,179.149597 88.849953,173.503326 98.604134,168.111038 
	C123.529663,184.058929 148.455200,200.006821 173.998795,216.350174 
	C173.998795,212.595673 174.262787,210.061935 173.893768,207.624023 
	C173.692047,206.291336 172.710175,204.670624 171.586136,203.944641 
	C154.855682,193.138931 138.057159,182.438217 121.242416,171.763596 
	C113.481300,166.836548 105.650322,162.019547 97.166023,157.026764 
M98.134369,128.629379 
	C123.255707,144.684113 148.377045,160.738846 173.999771,177.114014 
	C173.999771,175.061844 173.838974,173.735931 174.028641,172.462204 
	C174.716507,167.842621 172.880844,165.285522 168.736420,162.769730 
	C152.908417,153.161621 137.468735,142.915665 121.831940,132.989960 
	C113.907486,127.959770 105.871841,123.104721 97.174812,118.041275 
	C96.446083,118.361229 95.659935,118.591194 94.996964,119.014221 
	C75.131683,131.689819 55.276974,144.381989 35.424664,157.077896 
	C30.476702,160.242203 25.542641,163.428238 20.809412,166.471085 
	C26.111229,172.769669 30.783735,172.158157 36.358444,167.463226 
	C41.124424,163.449402 46.943516,160.697830 52.241463,157.301620 
	C67.452515,147.550705 82.635490,137.756012 98.134369,128.629379 
M97.920250,293.943756 
	C99.375832,293.285553 100.940475,292.797272 102.270592,291.943573 
	C121.282890,279.741150 140.265869,267.493011 159.250137,255.246948 
	C164.315674,251.979385 169.361832,248.681808 174.949829,245.051804 
	C171.404495,242.985367 168.782196,241.456940 166.191788,239.947098 
	C155.047943,247.015381 144.000259,253.970123 133.006912,261.009705 
	C121.060555,268.659515 109.164688,276.388184 96.917778,283.437866 
	C71.758598,267.379669 46.599411,251.321472 21.000572,234.982666 
	C21.000572,238.154480 20.630064,240.562866 21.115356,242.784271 
	C21.518742,244.630753 22.493530,246.927246 23.959040,247.878601 
	C40.012821,258.300293 56.178841,268.550842 72.387108,278.732086 
	C80.589043,283.884155 88.939072,288.800415 97.920250,293.943756 
M97.635139,137.318619 
	C77.102966,150.273117 56.570797,163.227615 35.952229,176.236618 
	C43.518528,182.336548 43.510086,182.323380 51.016125,177.510651 
	C52.514130,176.550156 54.142250,175.793243 55.645290,174.839844 
	C69.726578,165.908035 83.793694,156.953873 98.193184,148.637939 
	C123.341904,164.598648 148.490631,180.559357 174.000031,196.748978 
	C174.000031,193.952240 173.695770,191.736511 174.069092,189.641495 
	C174.676849,186.230865 172.765518,184.596008 170.314880,183.057816 
	C157.920273,175.278030 145.560562,167.442535 133.154282,159.681473 
	C121.451149,152.360275 109.705322,145.107330 97.635139,137.318619 
M97.159378,224.726837 
	C71.901161,208.572189 46.642937,192.417557 20.999706,176.016678 
	C20.999706,177.940613 21.158085,179.130951 20.972130,180.264832 
	C20.191095,185.027267 21.963394,188.132904 26.151932,190.723877 
	C44.929192,202.339249 63.510315,214.271179 82.219414,225.997620 
	C87.371521,229.226868 92.721207,232.140884 98.696518,235.019836 
	C108.545235,228.757446 118.393951,222.495041 128.549850,216.037308 
	C126.173042,214.475815 124.553635,212.995544 122.647491,212.290573 
	C121.105209,211.720200 118.794746,211.390198 117.553841,212.147614 
	C110.826027,216.254166 104.324699,220.731766 97.159378,224.726837 
M98.558113,254.839386 
	C113.408051,245.310516 128.257980,235.781647 143.149277,226.226242 
	C137.757721,219.786316 136.055069,219.584198 129.841156,223.635132 
	C119.220802,230.558655 108.506165,237.337540 97.132645,244.026474 
	C71.930466,228.012299 46.728279,211.998123 20.999414,195.649277 
	C20.999414,198.138458 21.229450,199.676529 20.956490,201.119446 
	C20.121359,205.534073 22.262264,207.846970 25.869232,210.064468 
	C42.409279,220.232971 58.755367,230.716354 75.214767,241.016907 
	C82.702759,245.702988 90.291992,250.227310 98.558113,254.839386 
M215.030090,179.042831 
	C205.844345,178.545105 196.658615,178.047379 187.303711,177.540482 
	C187.303711,193.557281 187.303711,208.612320 187.303711,223.560837 
	C196.047195,223.560837 204.694839,224.730545 212.872620,223.269745 
	C223.498260,221.371689 227.767532,213.800171 228.830734,202.965408 
	C229.800537,193.082611 226.510590,184.281265 215.030090,179.042831 
M261.489014,205.000031 
	C265.253723,205.000031 269.018433,205.000031 272.784241,205.000031 
	C272.784241,202.057114 272.784241,199.781418 272.784241,196.994049 
	C264.528229,196.994049 256.461212,196.994049 248.309311,196.994049 
	C248.309311,193.086624 248.309311,189.700668 248.309311,185.819855 
	C257.011139,185.819855 265.413940,185.819855 273.784790,185.819855 
	C273.784790,183.037277 273.784790,180.760986 273.784790,178.263016 
	C261.851196,178.263016 250.132919,178.263016 238.300781,178.263016 
	C238.300781,193.572647 238.300781,208.617661 238.300781,223.669312 
	C250.993484,223.669312 263.382935,223.669312 275.609558,223.669312 
	C275.609558,220.940063 275.609558,218.551620 275.609558,215.839005 
	C266.288544,215.839005 257.354462,215.839005 248.300842,215.839005 
	C248.300842,212.104294 248.300842,208.718872 248.300842,205.000031 
	C252.565125,205.000031 256.532471,205.000031 261.489014,205.000031 
M323.650635,186.000107 
	C328.142059,186.000076 332.633484,186.001022 337.124908,185.999832 
	C344.493805,185.997879 344.566376,185.911835 343.519287,178.270569 
	C332.160706,178.270569 320.779846,178.270569 309.289856,178.270569 
	C309.289856,193.580978 309.289856,208.619339 309.289856,223.661926 
	C312.639771,223.661926 315.691620,223.661926 319.245728,223.661926 
	C319.245728,217.939804 319.245728,212.546890 319.245728,206.853012 
	C327.359772,206.853012 334.962402,206.853012 342.718567,206.853012 
	C342.718567,204.136032 342.718567,201.751892 342.718567,198.866211 
	C334.723907,198.866211 326.999146,198.866211 319.000885,198.866211 
	C319.000885,195.393951 319.191528,192.405594 318.947754,189.453125 
	C318.699493,186.446747 320.034607,185.626205 323.650635,186.000107 
M361.999573,220.304749 
	C361.999573,206.355637 361.999573,192.406509 361.999573,178.284348 
	C358.473053,178.284348 355.419373,178.284348 352.327454,178.284348 
	C352.327454,193.627060 352.327454,208.683197 352.327454,223.992096 
	C354.966309,223.992096 357.323792,224.251205 359.571564,223.867569 
	C360.501251,223.708878 361.195770,222.172684 361.999573,220.304749 
M370.188995,246.563828 
	C372.213531,245.670410 374.238068,244.776993 375.971558,244.012009 
	C376.066772,244.238235 376.709717,245.766190 377.352692,247.294159 
	C377.829559,247.119461 378.306458,246.944763 378.783325,246.770065 
	C378.783325,242.663544 378.783325,238.557022 378.783325,234.360031 
	C372.862579,232.730209 374.270996,238.307281 372.437775,240.604889 
	C368.314819,234.177338 368.314819,234.177338 365.149475,234.625870 
	C365.149475,238.569077 365.149475,242.526123 365.149475,248.081131 
	C367.026489,246.618210 368.097595,245.764542 369.215393,244.977173 
	C369.262848,244.943756 369.743134,245.524765 370.188995,246.563828 
M292.465637,211.000031 
	C294.899384,211.000031 297.333160,211.000031 299.615234,211.000031 
	C299.615234,207.941635 299.615234,205.558258 299.615234,203.249039 
	C293.955444,203.249039 288.683746,203.249039 283.297485,203.249039 
	C283.297485,205.890671 283.297485,208.277054 283.297485,211.000031 
	C286.226868,211.000031 288.863434,211.000031 292.465637,211.000031 
M210.775238,241.259598 
	C211.421371,233.779633 209.197235,232.412476 200.191040,234.755966 
	C200.191040,238.692963 200.191040,242.629944 200.191040,247.863647 
	C201.930939,246.648895 203.042145,246.020203 203.959900,245.180176 
	C204.562683,244.628433 204.886124,243.771500 205.334671,243.051239 
	C205.902802,243.658447 206.418182,244.328705 207.051193,244.858398 
	C208.058563,245.701370 209.144302,246.450638 210.972305,247.820633 
	C210.972305,244.992065 210.972305,243.522949 210.775238,241.259598 
M261.318848,246.127228 
	C262.066956,245.064499 263.508636,243.945786 263.428253,242.949921 
	C263.218536,240.351761 263.102203,237.026428 261.506256,235.473358 
	C260.069153,234.074951 256.386963,233.800613 254.318665,234.614777 
	C252.714157,235.246384 251.314194,238.258591 251.144699,240.321198 
	C250.662018,246.194977 252.759521,247.422607 261.318848,246.127228 
M298.990845,238.795059 
	C298.010956,237.214645 297.189087,234.452942 296.018738,234.296356 
	C293.474548,233.955994 289.450165,234.064972 288.412903,235.599945 
	C286.911804,237.821274 286.822205,241.647858 287.537659,244.427460 
	C287.871155,245.723221 291.457855,246.680771 293.658295,246.898270 
	C299.087769,247.434937 298.939545,243.356598 298.990845,238.795059 
M348.068085,245.577286 
	C349.889130,246.051392 351.685120,246.702438 353.536194,246.964157 
	C357.890747,247.579880 358.862732,244.629929 358.954224,241.247284 
	C359.037109,238.183212 359.280792,234.511475 355.018463,234.107437 
	C351.633057,233.786530 347.197906,232.795090 347.019531,238.546570 
	C346.953339,240.681610 347.337280,242.830612 348.068085,245.577286 
M217.000397,240.506592 
	C216.862686,245.125580 218.667343,247.223816 223.713928,247.146011 
	C228.456146,247.072922 229.384323,244.019913 229.374161,240.844391 
	C229.365570,238.157272 229.476410,234.480606 225.051941,233.972870 
	C219.355103,233.319122 218.181808,234.046692 217.000397,240.506592 
M184.071793,245.977066 
	C186.571976,246.674591 186.571976,246.674591 187.795029,243.009064 
	C191.514420,243.419174 194.823914,242.981674 194.423218,238.010788 
	C194.081573,233.772476 191.799393,233.066574 184.011108,234.708557 
	C184.011108,238.124146 184.011108,241.601227 184.071793,245.977066 
M276.342651,246.998657 
	C278.091278,245.914764 279.839874,244.830887 281.588501,243.746994 
	C281.194122,243.059525 280.799744,242.372055 280.405396,241.684586 
	C278.743958,242.441864 277.123657,243.703659 275.411896,243.843124 
	C272.542389,244.076874 272.615936,239.728943 275.307983,237.293411 
	C277.166962,237.945969 278.873657,238.545074 281.069580,239.315918 
	C280.590027,233.371078 276.633820,233.167557 273.798615,234.287842 
	C271.690033,235.121002 269.476471,238.345200 269.257019,240.686951 
	C268.918304,244.301498 270.931488,247.366486 276.342651,246.998657 
M333.038422,246.954269 
	C336.433838,246.889481 340.556335,248.047333 340.994049,241.458282 
	C338.637787,242.475876 336.927979,243.214310 334.153748,244.412415 
	C334.153748,241.643265 334.153748,239.347763 334.153748,236.809982 
	C336.997375,237.824844 338.775726,238.459518 340.554108,239.094193 
	C340.899567,238.453430 341.245056,237.812668 341.590515,237.171906 
	C340.057709,236.116806 338.488464,234.155594 337.000549,234.215500 
	C334.673859,234.309189 331.579437,235.125412 330.277191,236.785965 
	C327.498413,240.329300 329.076080,243.882721 333.038422,246.954269 
M305.000031,242.407578 
	C305.086487,243.847275 305.172913,245.286957 305.257721,246.699005 
	C308.355957,246.699005 311.096161,246.699005 313.836365,246.699005 
	C313.985474,246.246399 314.134552,245.793808 314.283630,245.341202 
	C312.577515,244.625626 310.871399,243.910049 308.836731,243.056656 
	C308.836731,240.246674 308.836731,237.303345 308.836731,234.360016 
	C308.415131,234.079498 307.993500,233.798965 307.571899,233.518448 
	C306.716644,234.504913 305.426971,235.371017 305.112091,236.507248 
	C304.684326,238.050980 305.002014,239.801270 305.000031,242.407578 
M245.863297,236.287201 
	C245.482834,235.544403 245.137405,234.181305 244.716370,234.157547 
	C241.520004,233.977112 238.308853,234.058807 235.102310,234.058807 
	C234.973038,234.573227 234.843781,235.087631 234.714508,235.602051 
	C236.126617,236.377121 237.538742,237.152191 239.249786,238.091339 
	C239.249786,240.943558 239.249786,243.883835 239.249786,246.824112 
	C239.844711,246.902481 240.439636,246.980835 241.034561,247.059204 
	C241.356323,245.155182 241.845169,243.260864 241.956680,241.344604 
	C242.089447,239.063309 241.479126,236.462097 245.863297,236.287201 
z"/>
<path fill="#0057FF" opacity="1.000000" stroke="none" 
	d="
M215.411377,179.180084 
	C226.510590,184.281265 229.800537,193.082611 228.830734,202.965408 
	C227.767532,213.800171 223.498260,221.371689 212.872620,223.269745 
	C204.694839,224.730545 196.047195,223.560837 187.303711,223.560837 
	C187.303711,208.612320 187.303711,193.557281 187.303711,177.540482 
	C196.658615,178.047379 205.844345,178.545105 215.411377,179.180084 
M198.755875,186.146957 
	C198.755875,195.992035 198.755875,205.837112 198.755875,215.999924 
	C200.408493,215.999924 202.226837,215.863144 204.018600,216.023422 
	C212.131165,216.749176 217.222427,210.358917 217.951996,203.824081 
	C219.058029,193.916656 215.313187,187.825546 207.153549,186.185226 
	C204.749741,185.701981 202.178055,186.053864 198.755875,186.146957 
z"/>
<path fill="#0057FF" opacity="1.000000" stroke="none" 
	d="
M260.994415,205.000031 
	C256.532471,205.000031 252.565125,205.000031 248.300842,205.000031 
	C248.300842,208.718872 248.300842,212.104294 248.300842,215.839005 
	C257.354462,215.839005 266.288544,215.839005 275.609558,215.839005 
	C275.609558,218.551620 275.609558,220.940063 275.609558,223.669312 
	C263.382935,223.669312 250.993484,223.669312 238.300781,223.669312 
	C238.300781,208.617661 238.300781,193.572647 238.300781,178.263016 
	C250.132919,178.263016 261.851196,178.263016 273.784790,178.263016 
	C273.784790,180.760986 273.784790,183.037277 273.784790,185.819855 
	C265.413940,185.819855 257.011139,185.819855 248.309311,185.819855 
	C248.309311,189.700668 248.309311,193.086624 248.309311,196.994049 
	C256.461212,196.994049 264.528229,196.994049 272.784241,196.994049 
	C272.784241,199.781418 272.784241,202.057114 272.784241,205.000031 
	C269.018433,205.000031 265.253723,205.000031 260.994415,205.000031 
z"/>
<path fill="#1FB5FF" opacity="1.000000" stroke="none" 
	d="
M97.835304,254.824997 
	C90.291992,250.227310 82.702759,245.702988 75.214767,241.016907 
	C58.755367,230.716354 42.409279,220.232971 25.869232,210.064468 
	C22.262264,207.846970 20.121359,205.534073 20.956490,201.119446 
	C21.229450,199.676529 20.999414,198.138458 20.999414,195.649277 
	C46.728279,211.998123 71.930466,228.012299 97.508972,244.544769 
	C97.868637,248.317047 97.851974,251.571014 97.835304,254.824997 
z"/>
<path fill="#0057FF" opacity="1.000000" stroke="none" 
	d="
M323.169617,186.000275 
	C320.034607,185.626205 318.699493,186.446747 318.947754,189.453125 
	C319.191528,192.405594 319.000885,195.393951 319.000885,198.866211 
	C326.999146,198.866211 334.723907,198.866211 342.718567,198.866211 
	C342.718567,201.751892 342.718567,204.136032 342.718567,206.853012 
	C334.962402,206.853012 327.359772,206.853012 319.245728,206.853012 
	C319.245728,212.546890 319.245728,217.939804 319.245728,223.661926 
	C315.691620,223.661926 312.639771,223.661926 309.289856,223.661926 
	C309.289856,208.619339 309.289856,193.580978 309.289856,178.270569 
	C320.779846,178.270569 332.160706,178.270569 343.519287,178.270569 
	C344.566376,185.911835 344.493805,185.997879 337.124908,185.999832 
	C332.633484,186.001022 328.142059,186.000076 323.169617,186.000275 
z"/>
<path fill="#84FCFF" opacity="1.000000" stroke="none" 
	d="
M97.980240,235.199554 
	C92.721207,232.140884 87.371521,229.226868 82.219414,225.997620 
	C63.510315,214.271179 44.929192,202.339249 26.151932,190.723877 
	C21.963394,188.132904 20.191095,185.027267 20.972130,180.264832 
	C21.158085,179.130951 20.999706,177.940613 20.999706,176.016678 
	C46.642937,192.417557 71.901161,208.572189 97.488564,225.353058 
	C97.871910,229.052689 97.926071,232.126129 97.980240,235.199554 
z"/>
<path fill="#0057FF" opacity="1.000000" stroke="none" 
	d="
M97.978279,137.824356 
	C109.705322,145.107330 121.451149,152.360275 133.154282,159.681473 
	C145.560562,167.442535 157.920273,175.278030 170.314880,183.057816 
	C172.765518,184.596008 174.676849,186.230865 174.069092,189.641495 
	C173.695770,191.736511 174.000031,193.952240 174.000031,196.748978 
	C148.490631,180.559357 123.341904,164.598648 98.060837,147.867767 
	C97.945091,144.006531 97.961685,140.915436 97.978279,137.824356 
z"/>
<path fill="#00C3D6" opacity="1.000000" stroke="none" 
	d="
M97.222153,293.823303 
	C88.939072,288.800415 80.589043,283.884155 72.387108,278.732086 
	C56.178841,268.550842 40.012821,258.300293 23.959040,247.878601 
	C22.493530,246.927246 21.518742,244.630753 21.115356,242.784271 
	C20.630064,240.562866 21.000572,238.154480 21.000572,234.982666 
	C46.599411,251.321472 71.758598,267.379669 97.061737,284.200439 
	C97.211182,287.916443 97.216667,290.869873 97.222153,293.823303 
z"/>
<path fill="#00C3D6" opacity="1.000000" stroke="none" 
	d="
M97.886475,118.170494 
	C105.871841,123.104721 113.907486,127.959770 121.831940,132.989960 
	C137.468735,142.915665 152.908417,153.161621 168.736420,162.769730 
	C172.880844,165.285522 174.716507,167.842621 174.028641,172.462204 
	C173.838974,173.735931 173.999771,175.061844 173.999771,177.114014 
	C148.377045,160.738846 123.255707,144.684113 98.020409,127.859344 
	C97.899788,124.116371 97.893127,121.143433 97.886475,118.170494 
z"/>
<path fill="#1FB5FF" opacity="1.000000" stroke="none" 
	d="
M97.851021,157.152649 
	C105.650322,162.019547 113.481300,166.836548 121.242416,171.763596 
	C138.057159,182.438217 154.855682,193.138931 171.586136,203.944641 
	C172.710175,204.670624 173.692047,206.291336 173.893768,207.624023 
	C174.262787,210.061935 173.998795,212.595673 173.998795,216.350174 
	C148.455200,200.006821 123.529663,184.058929 98.258636,167.531281 
	C97.892433,163.685226 97.871727,160.418945 97.851021,157.152649 
z"/>
<path fill="#0057FF" opacity="1.000000" stroke="none" 
	d="
M97.009735,274.163849 
	C89.113068,269.346222 81.147438,264.637512 73.333954,259.688538 
	C56.564095,249.066742 39.857288,238.344894 23.187138,227.567383 
	C22.178934,226.915543 21.240391,225.474625 21.099657,224.301285 
	C20.787189,221.696228 21.002264,219.027863 21.002264,215.386063 
	C29.539846,220.805588 37.419689,225.819504 45.311394,230.814682 
	C62.493435,241.690277 79.681511,252.556351 97.006393,264.193481 
	C97.100365,268.028381 97.055054,271.096130 97.009735,274.163849 
z"/>
<path fill="#85FCFF" opacity="1.000000" stroke="none" 
	d="
M97.782135,177.149338 
	C108.307304,183.686264 118.835861,190.217728 129.356766,196.761505 
	C142.363251,204.851212 155.338852,212.990921 168.377197,221.028900 
	C174.366196,224.721039 174.690521,225.377731 173.611145,235.603333 
	C148.400772,219.578094 123.239365,203.584000 97.920090,186.831512 
	C97.768852,183.098511 97.775497,180.123932 97.782135,177.149338 
z"/>
<path fill="#85FCFF" opacity="1.000000" stroke="none" 
	d="
M97.530640,118.105881 
	C97.893127,121.143433 97.899788,124.116371 97.867981,127.533920 
	C82.635490,137.756012 67.452515,147.550705 52.241463,157.301620 
	C46.943516,160.697830 41.124424,163.449402 36.358444,167.463226 
	C30.783735,172.158157 26.111229,172.769669 20.809412,166.471085 
	C25.542641,163.428238 30.476702,160.242203 35.424664,157.077896 
	C55.276974,144.381989 75.131683,131.689819 94.996964,119.014221 
	C95.659935,118.591194 96.446083,118.361229 97.530640,118.105881 
z"/>
<path fill="#84FCFF" opacity="1.000000" stroke="none" 
	d="
M97.571198,293.883545 
	C97.216667,290.869873 97.211182,287.916443 97.226265,284.522766 
	C109.164688,276.388184 121.060555,268.659515 133.006912,261.009705 
	C144.000259,253.970123 155.047943,247.015381 166.191788,239.947098 
	C168.782196,241.456940 171.404495,242.985367 174.949829,245.051804 
	C169.361832,248.681808 164.315674,251.979385 159.250137,255.246948 
	C140.265869,267.493011 121.282890,279.741150 102.270592,291.943573 
	C100.940475,292.797272 99.375832,293.285553 97.571198,293.883545 
z"/>
<path fill="#1FB5FF" opacity="1.000000" stroke="none" 
	d="
M97.806709,137.571487 
	C97.961685,140.915436 97.945091,144.006531 97.896698,147.551895 
	C83.793694,156.953873 69.726578,165.908035 55.645290,174.839844 
	C54.142250,175.793243 52.514130,176.550156 51.016125,177.510651 
	C43.510086,182.323380 43.518528,182.336548 35.952229,176.236618 
	C56.570797,163.227615 77.102966,150.273117 97.806709,137.571487 
z"/>
<path fill="#1EB4FF" opacity="1.000000" stroke="none" 
	d="
M97.181595,274.427856 
	C97.055054,271.096130 97.100365,268.028381 97.180969,264.512939 
	C107.205475,257.813110 117.205772,251.578568 127.179939,245.302490 
	C133.617279,241.251938 140.196060,237.390457 146.361450,232.957489 
	C149.761200,230.513077 152.423828,230.213013 155.513687,232.980469 
	C156.463318,233.831009 157.645874,234.421509 159.183792,235.435822 
	C150.774887,241.029526 142.708298,246.525345 134.509918,251.816956 
	C123.772766,258.747192 112.943436,265.535156 102.121292,272.332611 
	C100.627403,273.270935 98.947334,273.912781 97.181595,274.427856 
z"/>
<path fill="#0058FF" opacity="1.000000" stroke="none" 
	d="
M97.508522,157.089706 
	C97.871727,160.418945 97.892433,163.685226 97.925369,167.395844 
	C88.849953,173.503326 79.751694,179.149597 70.680626,184.839218 
	C67.649391,186.740494 64.717987,188.801071 61.684605,190.698776 
	C59.260696,192.215195 57.347263,191.352142 51.707794,186.112198 
	C66.980515,176.340286 82.073265,166.683533 97.508522,157.089706 
z"/>
<path fill="#0057FF" opacity="1.000000" stroke="none" 
	d="
M361.998413,220.783875 
	C361.195770,222.172684 360.501251,223.708878 359.571564,223.867569 
	C357.323792,224.251205 354.966309,223.992096 352.327454,223.992096 
	C352.327454,208.683197 352.327454,193.627060 352.327454,178.284348 
	C355.419373,178.284348 358.473053,178.284348 361.999573,178.284348 
	C361.999573,192.406509 361.999573,206.355637 361.998413,220.783875 
z"/>
<path fill="#0057FF" opacity="1.000000" stroke="none" 
	d="
M98.196709,254.832184 
	C97.851974,251.571014 97.868637,248.317047 97.858223,244.620117 
	C108.506165,237.337540 119.220802,230.558655 129.841156,223.635132 
	C136.055069,219.584198 137.757721,219.786316 143.149277,226.226242 
	C128.257980,235.781647 113.408051,245.310516 98.196709,254.832184 
z"/>
<path fill="#02C4D7" opacity="1.000000" stroke="none" 
	d="
M97.442383,177.081543 
	C97.775497,180.123932 97.768852,183.098511 97.739853,186.513824 
	C90.816216,191.458527 84.193123,196.528183 76.852264,200.138336 
	C74.504204,201.293091 70.255394,198.582932 66.876251,197.641113 
	C66.850815,197.065155 66.825378,196.489197 66.799942,195.913239 
	C76.900841,189.613419 87.001732,183.313583 97.442383,177.081543 
z"/>
<path fill="#00C3D6" opacity="1.000000" stroke="none" 
	d="
M98.338379,235.109695 
	C97.926071,232.126129 97.871910,229.052689 97.781555,225.530411 
	C104.324699,220.731766 110.826027,216.254166 117.553841,212.147614 
	C118.794746,211.390198 121.105209,211.720200 122.647491,212.290573 
	C124.553635,212.995544 126.173042,214.475815 128.549850,216.037308 
	C118.393951,222.495041 108.545235,228.757446 98.338379,235.109695 
z"/>
<path fill="#0057FF" opacity="1.000000" stroke="none" 
	d="
M370.105377,246.191681 
	C369.743134,245.524765 369.262848,244.943756 369.215393,244.977173 
	C368.097595,245.764542 367.026489,246.618210 365.149475,248.081131 
	C365.149475,242.526123 365.149475,238.569077 365.149475,234.625870 
	C368.314819,234.177338 368.314819,234.177338 372.438354,240.605453 
	C374.270996,238.307281 372.862579,232.730209 378.783325,234.360031 
	C378.783325,238.557022 378.783325,242.663544 378.783325,246.770065 
	C378.306458,246.944763 377.829559,247.119461 377.352692,247.294159 
	C376.709717,245.766190 376.066772,244.238235 375.971558,244.012009 
	C374.238068,244.776993 372.213531,245.670410 370.105377,246.191681 
z"/>
<path fill="#0057FF" opacity="1.000000" stroke="none" 
	d="
M291.982819,211.000031 
	C288.863434,211.000031 286.226868,211.000031 283.297485,211.000031 
	C283.297485,208.277054 283.297485,205.890671 283.297485,203.249039 
	C288.683746,203.249039 293.955444,203.249039 299.615234,203.249039 
	C299.615234,205.558258 299.615234,207.941635 299.615234,211.000031 
	C297.333160,211.000031 294.899384,211.000031 291.982819,211.000031 
z"/>
<path fill="#0057FF" opacity="1.000000" stroke="none" 
	d="
M210.873779,241.656723 
	C210.972305,243.522949 210.972305,244.992065 210.972305,247.820633 
	C209.144302,246.450638 208.058563,245.701370 207.051193,244.858398 
	C206.418182,244.328705 205.902802,243.658447 205.334671,243.051239 
	C204.886124,243.771500 204.562683,244.628433 203.959900,245.180176 
	C203.042145,246.020203 201.930939,246.648895 200.191040,247.863647 
	C200.191040,242.629944 200.191040,238.692963 200.191772,234.755219 
	C209.197235,232.412476 211.421371,233.779633 210.873779,241.656723 
z"/>
<path fill="#0057FF" opacity="1.000000" stroke="none" 
	d="
M261.028259,246.423172 
	C252.759521,247.422607 250.662018,246.194977 251.144699,240.321198 
	C251.314194,238.258591 252.714157,235.246384 254.318665,234.614777 
	C256.386963,233.800613 260.069153,234.074951 261.506256,235.473358 
	C263.102203,237.026428 263.218536,240.351761 263.428253,242.949921 
	C263.508636,243.945786 262.066956,245.064499 261.028259,246.423172 
M255.391006,242.858109 
	C256.621429,242.777252 258.721954,243.036575 258.912506,242.549149 
	C259.404327,241.291214 259.250854,239.658142 258.935730,238.270142 
	C258.815582,237.740936 257.551422,237.471466 256.808655,237.083633 
	C256.226624,238.759766 255.644577,240.435898 255.391006,242.858109 
z"/>
<path fill="#0057FF" opacity="1.000000" stroke="none" 
	d="
M298.994751,239.223404 
	C298.939545,243.356598 299.087769,247.434937 293.658295,246.898270 
	C291.457855,246.680771 287.871155,245.723221 287.537659,244.427460 
	C286.822205,241.647858 286.911804,237.821274 288.412903,235.599945 
	C289.450165,234.064972 293.474548,233.955994 296.018738,234.296356 
	C297.189087,234.452942 298.010956,237.214645 298.994751,239.223404 
M294.671600,242.798996 
	C294.468475,240.847275 294.265350,238.895554 294.062195,236.943817 
	C293.444092,236.889145 292.825958,236.834473 292.207855,236.779800 
	C291.495636,238.259247 290.179199,239.791733 290.302612,241.197861 
	C290.374237,242.013519 292.760315,242.626038 294.671600,242.798996 
z"/>
<path fill="#0057FF" opacity="1.000000" stroke="none" 
	d="
M347.791992,245.275269 
	C347.337280,242.830612 346.953339,240.681610 347.019531,238.546570 
	C347.197906,232.795090 351.633057,233.786530 355.018463,234.107437 
	C359.280792,234.511475 359.037109,238.183212 358.954224,241.247284 
	C358.862732,244.629929 357.890747,247.579880 353.536194,246.964157 
	C351.685120,246.702438 349.889130,246.051392 347.791992,245.275269 
M353.535675,237.138123 
	C348.726166,239.775558 348.678345,240.633942 354.542236,244.883347 
	C354.355804,241.808136 354.230347,239.739258 353.535675,237.138123 
z"/>
<path fill="#0057FF" opacity="1.000000" stroke="none" 
	d="
M217.000900,240.079529 
	C218.181808,234.046692 219.355103,233.319122 225.051941,233.972870 
	C229.476410,234.480606 229.365570,238.157272 229.374161,240.844391 
	C229.384323,244.019913 228.456146,247.072922 223.713928,247.146011 
	C218.667343,247.223816 216.862686,245.125580 217.000900,240.079529 
M223.925797,237.449280 
	C220.165466,238.493027 219.868118,240.528564 223.130997,244.047821 
	C225.266815,242.372131 227.673737,240.885620 223.925797,237.449280 
z"/>
<path fill="#0057FF" opacity="1.000000" stroke="none" 
	d="
M184.041443,245.527679 
	C184.011108,241.601227 184.011108,238.124146 184.011108,234.708557 
	C191.799393,233.066574 194.081573,233.772476 194.423218,238.010788 
	C194.823914,242.981674 191.514420,243.419174 187.795029,243.009064 
	C186.571976,246.674591 186.571976,246.674591 184.041443,245.527679 
z"/>
<path fill="#0057FF" opacity="1.000000" stroke="none" 
	d="
M275.928528,246.999100 
	C270.931488,247.366486 268.918304,244.301498 269.257019,240.686951 
	C269.476471,238.345200 271.690033,235.121002 273.798615,234.287842 
	C276.633820,233.167557 280.590027,233.371078 281.069580,239.315918 
	C278.873657,238.545074 277.166962,237.945969 275.307983,237.293411 
	C272.615936,239.728943 272.542389,244.076874 275.411896,243.843124 
	C277.123657,243.703659 278.743958,242.441864 280.405396,241.684586 
	C280.799744,242.372055 281.194122,243.059525 281.588501,243.746994 
	C279.839874,244.830887 278.091278,245.914764 275.928528,246.999100 
z"/>
<path fill="#0057FF" opacity="1.000000" stroke="none" 
	d="
M332.644775,246.832672 
	C329.076080,243.882721 327.498413,240.329300 330.277191,236.785965 
	C331.579437,235.125412 334.673859,234.309189 337.000549,234.215500 
	C338.488464,234.155594 340.057709,236.116806 341.590515,237.171906 
	C341.245056,237.812668 340.899567,238.453430 340.554108,239.094193 
	C338.775726,238.459518 336.997375,237.824844 334.153748,236.809982 
	C334.153748,239.347763 334.153748,241.643265 334.153748,244.412415 
	C336.927979,243.214310 338.637787,242.475876 340.994049,241.458282 
	C340.556335,248.047333 336.433838,246.889481 332.644775,246.832672 
z"/>
<path fill="#0057FF" opacity="1.000000" stroke="none" 
	d="
M305.000000,241.935272 
	C305.002014,239.801270 304.684326,238.050980 305.112091,236.507248 
	C305.426971,235.371017 306.716644,234.504913 307.571899,233.518448 
	C307.993500,233.798965 308.415131,234.079498 308.836731,234.360016 
	C308.836731,237.303345 308.836731,240.246674 308.836731,243.056656 
	C310.871399,243.910049 312.577515,244.625626 314.283630,245.341202 
	C314.134552,245.793808 313.985474,246.246399 313.836365,246.699005 
	C311.096161,246.699005 308.355957,246.699005 305.257721,246.699005 
	C305.172913,245.286957 305.086487,243.847275 305.000000,241.935272 
z"/>
<path fill="#0057FF" opacity="1.000000" stroke="none" 
	d="
M245.534561,236.585022 
	C241.479126,236.462097 242.089447,239.063309 241.956680,241.344604 
	C241.845169,243.260864 241.356323,245.155182 241.034561,247.059204 
	C240.439636,246.980835 239.844711,246.902481 239.249786,246.824112 
	C239.249786,243.883835 239.249786,240.943558 239.249786,238.091339 
	C237.538742,237.152191 236.126617,236.377121 234.714508,235.602051 
	C234.843781,235.087631 234.973038,234.573227 235.102310,234.058807 
	C238.308853,234.058807 241.520004,233.977112 244.716370,234.157547 
	C245.137405,234.181305 245.482834,235.544403 245.534561,236.585022 
z"/>
<path fill="#000000" opacity="1.000000" stroke="none" 
	d="
M199.219589,186.084991 
	C202.178055,186.053864 204.749741,185.701981 207.153549,186.185226 
	C215.313187,187.825546 219.058029,193.916656 217.951996,203.824081 
	C217.222427,210.358917 212.131165,216.749176 204.018600,216.023422 
	C202.226837,215.863144 200.408493,215.999924 198.755875,215.999924 
	C198.755875,205.837112 198.755875,195.992035 199.219589,186.084991 
z"/>
<path fill="#000000" opacity="1.000000" stroke="none" 
	d="
M255.226776,242.485077 
	C255.644577,240.435898 256.226624,238.759766 256.808655,237.083633 
	C257.551422,237.471466 258.815582,237.740936 258.935730,238.270142 
	C259.250854,239.658142 259.404327,241.291214 258.912506,242.549149 
	C258.721954,243.036575 256.621429,242.777252 255.226776,242.485077 
z"/>
<path fill="#000000" opacity="1.000000" stroke="none" 
	d="
M294.388245,243.064484 
	C292.760315,242.626038 290.374237,242.013519 290.302612,241.197861 
	C290.179199,239.791733 291.495636,238.259247 292.207855,236.779800 
	C292.825958,236.834473 293.444092,236.889145 294.062195,236.943817 
	C294.265350,238.895554 294.468475,240.847275 294.388245,243.064484 
z"/>
<path fill="#000000" opacity="1.000000" stroke="none" 
	d="
M353.820312,237.404266 
	C354.230347,239.739258 354.355804,241.808136 354.542236,244.883347 
	C348.678345,240.633942 348.726166,239.775558 353.820312,237.404266 
z"/>
<path fill="#000000" opacity="1.000000" stroke="none" 
	d="
M224.201904,237.716125 
	C227.673737,240.885620 225.266815,242.372131 223.130997,244.047821 
	C219.868118,240.528564 220.165466,238.493027 224.201904,237.716125 
z"/>
</svg>