<?xml version="1.0" standalone="no"?>
<!DOCTYPE svg PUBLIC "-//W3C//DTD SVG 20010904//EN"
 "http://www.w3.org/TR/2001/REC-SVG-20010904/DTD/svg10.dtd">
<svg version="1.0" xmlns="http://www.w3.org/2000/svg"
 width="97.000000pt" height="40.000000pt" viewBox="0 0 97.000000 40.000000"
 preserveAspectRatio="xMidYMid meet">

<g transform="translate(0.000000,40.000000) scale(0.100000,-0.100000)"
fill="#000000" stroke="none">
<path d="M165 299 c-9 -14 4 -29 20 -23 18 7 68 -43 61 -61 -2 -7 0 -15 6 -17
19 -7 -6 -63 -30 -66 -13 -2 -19 -8 -15 -18 9 -23 -74 -22 -93 2 -6 8 -16 14
-23 14 -10 0 -36 49 -29 55 2 1 12 7 23 14 18 11 18 11 -5 5 -54 -14 -67 -47
-25 -66 14 -6 25 -15 25 -19 0 -13 57 -39 85 -39 83 0 135 95 90 163 -20 31
-82 70 -90 56z"/>
<path d="M132 243 c-10 -4 -9 -8 4 -17 19 -14 11 -36 -12 -36 -8 0 -14 -6 -14
-13 0 -37 65 -50 93 -19 43 47 -10 110 -71 85z"/>
<path d="M143 113 c9 -2 23 -2 30 0 6 3 -1 5 -18 5 -16 0 -22 -2 -12 -5z"/>
</g>
</svg>
