<?xml version="1.0" standalone="no"?>
<!DOCTYPE svg PUBLIC "-//W3C//DTD SVG 20010904//EN"
 "http://www.w3.org/TR/2001/REC-SVG-20010904/DTD/svg10.dtd">
<svg version="1.0" xmlns="http://www.w3.org/2000/svg"
 width="64.000000pt" height="64.000000pt" viewBox="0 0 64.000000 64.000000"
 preserveAspectRatio="xMidYMid meet">

<g transform="translate(0.000000,64.000000) scale(0.100000,-0.100000)"
fill="#000000" stroke="none">
<path d="M220 624 c-227 -82 -293 -362 -125 -529 65 -66 125 -90 225 -90 100
0 160 24 225 90 66 65 90 125 90 225 0 100 -24 160 -90 225 -82 82 -222 116
-325 79z m147 -98 c4 -7 26 -23 48 -34 103 -52 143 -162 97 -265 -59 -134
-233 -164 -337 -57 -21 22 -43 40 -49 40 -17 0 -56 43 -56 61 0 9 13 28 28 41
16 13 27 30 24 38 -3 12 -1 12 6 2 6 -10 19 -11 51 -3 23 5 40 7 37 4 -3 -3
-1 -14 5 -24 13 -25 55 -24 69 1 14 27 -4 60 -33 60 -22 1 -22 1 -2 16 46 35
99 30 143 -14 33 -32 40 -78 18 -121 -17 -33 -62 -61 -96 -61 -53 0 -110 57
-110 111 0 18 -4 20 -27 14 -56 -14 -64 -34 -37 -91 20 -42 64 -58 164 -57
119 1 158 10 175 44 19 35 20 109 3 110 -10 0 -10 2 -1 5 21 9 -7 62 -55 104
-30 27 -51 38 -61 34 -28 -11 -43 -9 -54 8 -8 12 -7 20 2 32 16 20 37 21 48 2z
m100 -172 c-3 -3 -12 -4 -19 -1 -8 3 -5 6 6 6 11 1 17 -2 13 -5z"/>
<path d="M107 286 c-5 -11 -1 -29 8 -42 20 -32 26 -30 15 4 -5 15 -10 34 -12
41 -3 12 -6 11 -11 -3z"/>
<path d="M238 156 c46 -24 126 -26 167 -3 17 9 26 17 20 17 -5 1 -58 2 -117 3
l-107 2 37 -19z"/>
</g>
</svg>
