<?xml version="1.0" encoding="UTF-8" standalone="no" ?>
<!DOCTYPE svg PUBLIC "-//W3C//DTD SVG 1.1//EN" "http://www.w3.org/Graphics/SVG/1.1/DTD/svg11.dtd">
<svg xmlns="http://www.w3.org/2000/svg" xmlns:xlink="http://www.w3.org/1999/xlink" version="1.1" width="1280" height="1024" viewBox="0 0 1280 1024" xml:space="preserve">
<desc>Created with Fabric.js 4.4.0</desc>
<defs>
</defs>
<g transform="matrix(1 0 0 1 640 512)" id="background-logo"  >
<rect style="stroke: none; stroke-width: 0; stroke-dasharray: none; stroke-linecap: butt; stroke-dashoffset: 0; stroke-linejoin: miter; stroke-miterlimit: 4; fill: rgb(255,255,255); fill-opacity: 0; fill-rule: nonzero; opacity: 1;"  paint-order="stroke"  x="-640" y="-512" rx="0" ry="0" width="1280" height="1024" />
</g>
<g transform="matrix(1.9211538461538462 0 0 1.9211538461538462 643.6111760843964 500.6299199230769)" id="text-logo-path"  >
<linearGradient id="SVGID_214_273523" gradientUnits="userSpaceOnUse" gradientTransform="matrix(1 0 0 1 7.319999999999993 -90.75)"  x1="0" y1="0" x2="0" y2="142">
<stop offset="0%" style="stop-color:rgb(23,234,217);stop-opacity: 1"/>
<stop offset="100%" style="stop-color:rgb(96,120,234);stop-opacity: 1"/>
</linearGradient>
<filter id="SVGID_273522" y="-38.73278236914601%" height="177.46556473829202%" x="-22.692983984665833%" width="145.38596796933166%" >
	<feGaussianBlur in="SourceAlpha" stdDeviation="8.5"></feGaussianBlur>
	<feOffset dx="0" dy="0" result="oBlur" ></feOffset>
	<feFlood flood-color="rgb(66,66,66)" flood-opacity="1"/>
	<feComposite in2="oBlur" operator="in" />
	<feMerge>
		<feMergeNode></feMergeNode>
		<feMergeNode in="SourceGraphic"></feMergeNode>
	</feMerge>
</filter>
<path style="stroke: rgb(255,255,255); stroke-width: 0; stroke-dasharray: none; stroke-linecap: butt; stroke-dashoffset: 0; stroke-linejoin: miter; stroke-miterlimit: 4; fill: url(#SVGID_214_273523); fill-rule: nonzero; opacity: 1;filter: url(#SVGID_273522);"  paint-order="stroke"  transform=" translate(-322.955, 45.375)" d="M 82.93 0 L 7.32 0 L 7.32 -90.75 L 82.93 -90.75 Q 89.21 -90.75 93.61 -86.32 Q 98.01 -81.89 98.01 -75.61 L 98.01 -75.61 L 98.01 -15.13 Q 98.01 -8.86 93.61 -4.43 Q 89.21 0 82.93 0 L 82.93 0 Z M 17.53 -75.61 L 17.53 -15.13 Q 17.53 -13.1 18.98 -11.66 Q 20.43 -10.21 22.46 -10.21 L 22.46 -10.21 L 82.93 -10.21 Q 84.96 -10.21 86.38 -11.66 Q 87.79 -13.1 87.79 -15.13 L 87.79 -15.13 L 87.79 -75.61 Q 87.79 -77.64 86.35 -79.09 Q 84.9 -80.53 82.93 -80.53 L 82.93 -80.53 L 22.46 -80.53 Q 20.43 -80.53 18.98 -79.09 Q 17.53 -77.64 17.53 -75.61 L 17.53 -75.61 Z M 122.87 0 L 112.66 0 L 112.66 -75.61 Q 112.66 -81.89 117.09 -86.32 Q 121.51 -90.75 127.79 -90.75 L 127.79 -90.75 L 188.27 -90.75 Q 194.54 -90.75 198.94 -86.32 Q 203.34 -81.89 203.34 -75.61 L 203.34 -75.61 L 203.34 0 L 193.13 0 L 193.13 -33.16 L 122.87 -33.16 L 122.87 0 Z M 122.87 -75.61 L 122.87 -43.37 L 193.13 -43.37 L 193.13 -75.61 Q 193.13 -77.64 191.68 -79.09 Q 190.24 -80.53 188.27 -80.53 L 188.27 -80.53 L 127.79 -80.53 Q 125.76 -80.53 124.31 -79.09 Q 122.87 -77.64 122.87 -75.61 L 122.87 -75.61 Z M 228.45 0 L 218.24 0 L 218.24 -90.75 L 300.98 -90.75 L 300.98 -80.53 L 228.45 -80.53 L 228.45 -50.51 L 286.77 -50.51 L 286.77 -40.17 L 228.45 -40.17 L 228.45 0 Z M 319.63 0 L 309.42 0 L 309.42 -90.75 L 319.63 -90.75 L 319.63 0 Z M 413.09 0 L 337.48 0 L 337.48 -90.75 L 413.09 -90.75 Q 419.37 -90.75 423.77 -86.32 Q 428.17 -81.89 428.17 -75.61 L 428.17 -75.61 L 428.17 -15.13 Q 428.17 -8.86 423.77 -4.43 Q 419.37 0 413.09 0 L 413.09 0 Z M 347.69 -75.61 L 347.69 -15.13 Q 347.69 -13.1 349.14 -11.66 Q 350.58 -10.21 352.61 -10.21 L 352.61 -10.21 L 413.09 -10.21 Q 415.12 -10.21 416.54 -11.66 Q 417.95 -13.1 417.95 -15.13 L 417.95 -15.13 L 417.95 -75.61 Q 417.95 -77.64 416.51 -79.09 Q 415.06 -80.53 413.09 -80.53 L 413.09 -80.53 L 352.61 -80.53 Q 350.58 -80.53 349.14 -79.09 Q 347.69 -77.64 347.69 -75.61 L 347.69 -75.61 Z M 453.03 0 L 442.81 0 L 442.81 -75.61 Q 442.81 -81.89 447.24 -86.32 Q 451.67 -90.75 457.95 -90.75 L 457.95 -90.75 L 518.43 -90.75 Q 524.7 -90.75 529.1 -86.32 Q 533.5 -81.89 533.5 -75.61 L 533.5 -75.61 L 533.5 0 L 523.29 0 L 523.29 -33.16 L 453.03 -33.16 L 453.03 0 Z M 453.03 -75.61 L 453.03 -43.37 L 523.29 -43.37 L 523.29 -75.61 Q 523.29 -77.64 521.84 -79.09 Q 520.39 -80.53 518.43 -80.53 L 518.43 -80.53 L 457.95 -80.53 Q 455.92 -80.53 454.47 -79.09 Q 453.03 -77.64 453.03 -75.61 L 453.03 -75.61 Z M 547.9 -15.13 L 547.9 -15.13 L 547.9 -75.61 Q 547.9 -81.89 552.3 -86.32 Q 556.7 -90.75 562.97 -90.75 L 562.97 -90.75 L 623.45 -90.75 Q 629.73 -90.75 634.16 -86.32 Q 638.59 -81.89 638.59 -75.61 L 638.59 -75.61 L 638.59 -15.13 Q 638.59 -8.86 634.19 -4.43 Q 629.79 0 623.45 0 L 623.45 0 L 562.97 0 Q 556.7 0 552.3 -4.4 Q 547.9 -8.8 547.9 -15.13 Z M 558.05 -75.61 L 558.05 -15.13 Q 558.05 -13.1 559.5 -11.66 Q 560.94 -10.21 562.97 -10.21 L 562.97 -10.21 L 623.45 -10.21 Q 625.48 -10.21 626.93 -11.66 Q 628.37 -13.1 628.37 -15.13 L 628.37 -15.13 L 628.37 -75.61 Q 628.37 -77.64 626.93 -79.09 Q 625.48 -80.53 623.45 -80.53 L 623.45 -80.53 L 562.97 -80.53 Q 560.94 -80.53 559.5 -79.09 Q 558.05 -77.64 558.05 -75.61 L 558.05 -75.61 Z" stroke-linecap="round" />
</g>
</svg>