<?xml version="1.0" encoding="utf-8"?>
<!DOCTYPE svg PUBLIC "-//W3C//DTD SVG 1.1//EN" "http://www.w3.org/Graphics/SVG/1.1/DTD/svg11.dtd">
<svg version="1.1" xmlns="http://www.w3.org/2000/svg" width="95px" height="24px" viewBox="0 26 95 24" preserveAspectRatio="xMidYMid meet">
<circle cx="12" cy="12" r="12"/>
 <g fill="#1f1f2b">
  <path d="M2.30 36.74 l0 -5.64 4.96 0 c4.63 0 4.97 0.01 5.25 0.14 0.39 0.18 0.76 0.56 0.96 0.97 0.16 0.33 0.16 0.43 0.16 4.49 0 4.63 0.01 4.50 -0.51 5.07 -0.59 0.64 -0.24 0.61 -5.85 0.61 l-4.96 0 0 -5.64z m9.74 4.36 c0.35 -0.19 0.34 -0.10 0.35 -4.39 l0 -4.07 -0.19 -0.18 -0.20 -0.19 -4.03 0 -4.03 0 -0.21 0.18 -0.21 0.18 0 4.10 0 4.10 0.21 0.18 0.21 0.18 3.97 0 c2.88 0 4.02 -0.02 4.13 -0.09z"/>
  <path d="M16.47 42.17 c-0.45 -0.23 -0.84 -0.69 -0.96 -1.11 -0.04 -0.16 -0.07 -1.05 -0.07 -2.03 l0 -1.77 4.01 0 4.01 0 0 -1.14 c0 -0.63 -0.02 -1.20 -0.04 -1.27 -0.13 -0.33 -0.26 -0.33 -4.22 -0.33 l-3.75 0 0 -0.59 0 -0.59 3.93 0 c4.25 0 4.18 -0.01 4.68 0.42 0.13 0.10 0.33 0.35 0.44 0.54 l0.20 0.34 0.02 3.88 0.02 3.87 -3.93 0 -3.93 0 -0.39 -0.21z m6.98 -2.35 l0 -1.37 -3.41 0 -3.41 0 0 1.03 c0 0.56 0.04 1.13 0.08 1.26 0.16 0.45 0.16 0.45 3.61 0.45 l3.13 0 0 -1.37z"/>
  <path d="M34.73 36.74 l0 -5.64 5.16 0 5.16 0 0 0.59 0 0.59 -4.53 0 -4.53 0 0 1.93 0 1.93 3.64 0 3.64 0 0 0.59 0 0.59 -3.64 0 -3.64 0 0 2.52 0 2.52 -0.63 0 -0.63 0 0 -5.64z"/>
  <path d="M46.09 37.85 l0 -4.53 0.63 0 0.63 0 0 4.53 0 4.53 -0.63 0 -0.63 0 0 -4.53z"/>
  <path d="M53.88 36.74 l0 -5.64 4.96 0 c5.57 0 5.25 -0.03 5.82 0.56 0.52 0.55 0.50 0.37 0.50 5.08 0 4.71 0.01 4.53 -0.50 5.08 -0.56 0.59 -0.25 0.56 -5.82 0.56 l-4.96 0 0 -5.64z m9.74 4.37 c0.10 -0.04 0.22 -0.16 0.27 -0.27 0.06 -0.12 0.08 -1.39 0.08 -4.10 0 -2.72 -0.02 -3.99 -0.08 -4.10 -0.04 -0.10 -0.16 -0.22 -0.27 -0.27 -0.12 -0.06 -1.40 -0.08 -4.15 -0.08 l-3.98 0 -0.22 0.22 -0.22 0.22 0.02 4.05 0.02 4.06 0.21 0.18 0.21 0.18 3.96 0 c2.75 0 4.02 -0.02 4.14 -0.08z"/>
  <path d="M67.09 37.57 c0 -5.28 0 -5.28 0.45 -5.82 0.12 -0.15 0.39 -0.36 0.61 -0.46 l0.39 -0.19 4.24 0 4.24 0 0.39 0.19 c0.47 0.24 0.86 0.73 0.97 1.24 0.04 0.22 0.07 2.09 0.07 5.10 l0 4.75 -0.63 0 -0.63 0 0 -2.08 0 -2.08 -4.43 0.01 -4.44 0.02 -0.02 2.06 -0.01 2.06 -0.59 0 -0.59 0 0 -4.81z m10.09 -2.72 l0 -2.20 -0.19 -0.18 -0.18 -0.19 -4.03 0 c-4.49 0 -4.29 -0.02 -4.44 0.50 -0.08 0.30 -0.10 4.11 -0.02 4.19 0.02 0.03 2.03 0.05 4.45 0.05 l4.40 0 0 -2.19z"/>
  <path d="M81.34 42.18 c-0.45 -0.24 -0.84 -0.69 -0.96 -1.14 -0.05 -0.19 -0.07 -1.70 -0.06 -4.47 0.02 -4.14 0.02 -4.18 0.19 -4.48 0.19 -0.36 0.62 -0.75 0.96 -0.89 0.20 -0.08 1.05 -0.10 4.50 -0.10 3.96 0 4.28 0.01 4.55 0.14 0.39 0.18 0.76 0.56 0.96 0.97 0.16 0.33 0.16 0.43 0.16 4.53 0 4.10 0 4.20 -0.16 4.53 -0.19 0.41 -0.56 0.79 -0.96 0.97 -0.27 0.13 -0.56 0.14 -4.53 0.14 l-4.23 0 -0.41 -0.20z m8.71 -1.08 c0.35 -0.19 0.34 -0.10 0.35 -4.39 l0 -4.07 -0.19 -0.18 -0.20 -0.19 -4.03 0 -4.03 0 -0.21 0.18 -0.21 0.18 0 4.10 0 4.10 0.21 0.18 0.21 0.18 3.97 0 c2.88 0 4.02 -0.02 4.13 -0.09z"/>
  <path d="M26.57 37.74 l0 -0.63 3.04 0 3.04 0 0 0.63 0 0.63 -3.04 0 -3.04 0 0 -0.63z"/>
  <path d="M46.09 30.91 l0 -0.63 0.63 0 0.63 0 0 0.63 0 0.63 -0.63 0 -0.63 0 0 -0.63z"/>
 </g>
</svg>