<?xml version="1.0" encoding="utf-8"?>
<!DOCTYPE svg PUBLIC "-//W3C//DTD SVG 20010904//EN" "http://www.w3.org/TR/2001/REC-SVG-20010904/DTD/svg10.dtd">
<svg version="1.0" xmlns="http://www.w3.org/2000/svg" width="96px" height="24px" viewBox="0 26.5 96 24" preserveAspectRatio="xMidYMid meet">
 <g fill="#f3f3f3">
  <path d="M0 38.40 l0 -38.40 48 0 48 0 0 38.40 0 38.40 -48 0 -48 0 0 -38.40z m12.61 7.04 c0.94 -0.09 1.42 -0.21 2.46 -0.61 0.98 -0.37 1.72 -0.44 2.51 -0.25 1.06 0.25 1.71 0.11 2.30 -0.47 0.38 -0.38 0.60 -0.82 0.87 -1.70 0.28 -0.93 0.44 -1.15 1.09 -1.48 0.33 -0.17 0.39 -0.17 2.59 -0.17 l2.25 0 0.38 0.21 c0.46 0.25 0.76 0.73 1 1.55 0.36 1.21 0.86 1.84 1.66 2.09 0.42 0.13 0.69 0.14 2.42 0.13 2.20 -0.01 2.31 -0.04 2.87 -0.58 0.59 -0.58 0.83 -1.15 1.03 -2.44 0.25 -1.76 0.53 -1.93 3.22 -2 1.84 -0.05 2.27 -0.11 3.30 -0.52 0.64 -0.26 1.18 -0.34 1.50 -0.22 0.31 0.12 0.50 0.87 0.64 2.51 0.13 1.47 0.36 2.09 1.01 2.69 0.50 0.46 0.88 0.57 1.67 0.50 1.87 -0.16 1.75 -0.17 2.87 0.25 1.56 0.58 1.51 0.57 6.11 0.57 4.60 -0.01 4.70 -0.01 6.26 -0.64 0.95 -0.38 1.68 -0.47 2.50 -0.27 1.01 0.24 1.64 0.14 2.18 -0.34 0.46 -0.41 0.66 -0.76 0.98 -1.78 0.31 -0.98 0.52 -1.26 1.10 -1.52 0.39 -0.18 0.44 -0.18 2.61 -0.18 l2.21 0 0.38 0.19 c0.48 0.25 0.71 0.59 1.01 1.53 0.31 0.94 0.39 1.10 0.77 1.52 0.62 0.67 1.25 0.81 2.52 0.57 0.86 -0.17 1.39 -0.10 2.37 0.26 1.70 0.64 2.40 0.71 6.56 0.66 2.72 -0.03 3.11 -0.05 3.70 -0.19 2.12 -0.50 3.30 -1.92 3.58 -4.34 0.06 -0.51 0.08 -1.82 0.06 -4.04 -0.04 -3.27 -0.04 -3.30 -0.23 -4.03 -0.37 -1.39 -1.14 -2.39 -2.24 -2.93 -1.13 -0.56 -1.92 -0.64 -5.57 -0.64 -3.86 0 -4.46 0.09 -6.03 0.86 -1.30 0.64 -1.83 0.63 -3.19 -0.06 -1.38 -0.69 -2.14 -0.80 -5.96 -0.80 -3.89 0 -4.48 0.09 -6.11 0.92 -0.74 0.38 -0.77 0.39 -1.39 0.39 -0.63 0 -0.65 -0.01 -1.61 -0.47 -1.73 -0.82 -2.13 -0.87 -7.06 -0.82 -4.09 0.03 -4.02 0.02 -5.51 0.62 -0.98 0.38 -1.54 0.42 -2.68 0.16 -0.47 -0.10 -1.24 -0.24 -1.73 -0.31 -0.49 -0.07 -1.29 -0.19 -1.78 -0.28 -0.81 -0.14 -1.27 -0.17 -4.54 -0.19 -4.60 -0.05 -4.94 -0.01 -6.53 0.68 -0.65 0.28 -0.76 0.31 -1.35 0.31 -0.57 -0.01 -0.73 -0.04 -1.54 -0.34 -1.54 -0.59 -1.62 -0.60 -5.15 -0.64 -4.34 -0.05 -4.85 0.01 -6.55 0.82 -0.94 0.45 -0.99 0.47 -1.58 0.47 -0.58 0 -0.63 -0.01 -1.58 -0.47 -1.72 -0.82 -2.12 -0.87 -7.04 -0.83 -3.47 0.03 -3.70 0.04 -4.24 0.19 -1.51 0.43 -2.28 1.17 -2.66 2.61 -0.14 0.49 -0.14 0.86 -0.14 5.29 0 4.29 0.01 4.82 0.13 5.27 0.44 1.67 1.43 2.51 3.30 2.74 0.70 0.10 7.12 0.10 8.02 0z"/>
  <path d="M2.75 44.26 l-0.21 -0.05 -0.01 -6.74 c-0.01 -4.44 0.01 -6.73 0.06 -6.74 0.64 -0.05 11.56 0.04 11.80 0.09 0.43 0.09 0.68 0.22 0.98 0.53 0.61 0.62 0.74 0.93 0.67 1.73 -0.02 0.28 -0.02 0.50 0.01 0.50 0.03 0 0.05 1.78 0.05 3.97 0 2.18 -0.01 3.97 -0.04 3.97 -0.02 0 -0.04 0.26 -0.04 0.58 0 0.42 -0.04 0.66 -0.14 0.88 -0.08 0.17 -0.17 0.31 -0.19 0.34 -0.03 0.02 -0.09 0.11 -0.14 0.21 -0.05 0.09 -0.15 0.17 -0.23 0.17 -0.08 0 -0.20 0.09 -0.28 0.19 -0.28 0.39 -0.51 0.41 -6.55 0.40 -3.03 -0.01 -5.61 -0.03 -5.72 -0.06z m11.18 -2.06 l0.21 -0.18 0.02 -4.34 c0.01 -3.17 -0.01 -4.39 -0.07 -4.55 -0.18 -0.44 -0.12 -0.43 -4.76 -0.43 -4.54 0 -4.56 0 -4.76 0.37 -0.05 0.10 -0.08 1.66 -0.08 4.51 l0 4.36 0.22 0.22 0.22 0.22 4.39 0 4.39 0 0.21 -0.18z"/>
  <path d="M7.11 40.88 c-0.58 -0.10 -0.97 -0.36 -1.18 -0.79 -0.19 -0.38 -0.19 -0.38 -0.19 -2.55 0 -1.19 0.03 -2.30 0.06 -2.46 0.08 -0.38 0.51 -0.84 0.94 -1 0.31 -0.12 0.61 -0.14 2.53 -0.14 2.14 0 2.18 0 2.54 0.18 0.37 0.18 0.62 0.48 0.80 0.98 0.13 0.34 0.19 3.35 0.09 4.15 -0.10 0.78 -0.36 1.22 -0.88 1.48 -0.37 0.19 -0.41 0.19 -2.36 0.20 -1.10 0.01 -2.14 -0.01 -2.34 -0.05z"/>
  <path d="M50.26 44.27 l-0.17 -0.03 0.01 -6.76 0.02 -6.76 5.74 0.01 c3.46 0.01 5.87 0.05 6.07 0.09 0.68 0.15 1.21 0.59 1.53 1.27 0.16 0.34 0.16 0.39 0.16 5.36 0 5.18 -0.01 5.48 -0.30 5.77 -0.06 0.06 -0.11 0.14 -0.11 0.18 0 0.09 -0.33 0.39 -0.44 0.39 -0.05 0 -0.09 0.03 -0.09 0.06 0 0.03 -0.15 0.10 -0.33 0.16 -0.19 0.05 -0.35 0.14 -0.37 0.18 -0.02 0.07 -1.51 0.09 -5.80 0.10 -3.17 0.01 -5.84 0 -5.94 -0.02z m11.24 -2.12 l0.22 -0.22 0 -4.36 c0 -2.85 -0.03 -4.41 -0.08 -4.51 -0.20 -0.37 -0.22 -0.37 -4.76 -0.37 -4.64 0 -4.57 -0.01 -4.76 0.43 -0.06 0.16 -0.08 1.38 -0.07 4.55 l0.02 4.34 0.21 0.18 0.21 0.18 4.39 0 4.39 0 0.22 -0.22z"/>
  <path d="M54.67 40.88 c-0.44 -0.08 -0.75 -0.24 -0.99 -0.52 -0.37 -0.44 -0.39 -0.64 -0.39 -2.97 0 -2.06 0.01 -2.19 0.16 -2.52 0.17 -0.37 0.50 -0.66 0.93 -0.82 0.35 -0.14 3.84 -0.19 4.46 -0.08 0.63 0.12 0.98 0.38 1.22 0.89 0.20 0.42 0.20 0.45 0.22 2.31 0.01 1.13 -0.01 2.06 -0.05 2.33 -0.10 0.58 -0.40 0.99 -0.87 1.23 -0.37 0.19 -0.41 0.19 -2.36 0.20 -1.10 0.01 -2.14 -0.01 -2.33 -0.05z"/>
  <path d="M82.24 44.27 c-0.12 -0.02 -0.25 -0.07 -0.29 -0.10 -0.05 -0.04 -0.13 -0.07 -0.19 -0.07 -0.18 0 -0.88 -0.66 -1.07 -1 l-0.17 -0.31 -0.02 -5.16 c-0.02 -5.14 -0.01 -5.15 0.14 -5.53 0.19 -0.44 0.83 -1.07 1.25 -1.22 0.22 -0.08 1.33 -0.10 5.35 -0.10 l5.06 0 0.39 0.17 c0.37 0.17 0.92 0.67 0.92 0.84 0 0.04 0.03 0.08 0.08 0.08 0.04 0 0.12 0.18 0.19 0.41 0.10 0.35 0.11 1.04 0.10 5.38 l-0.02 4.98 -0.21 0.43 c-0.11 0.23 -0.28 0.45 -0.35 0.47 -0.08 0.03 -0.15 0.10 -0.15 0.16 0 0.06 -0.06 0.13 -0.13 0.15 -0.33 0.10 -0.74 0.29 -0.79 0.37 -0.05 0.08 -9.58 0.14 -10.07 0.06z m9.57 -2.12 l0.22 -0.22 0 -4.39 0 -4.39 -0.18 -0.21 -0.18 -0.21 -4.39 -0.02 -4.39 -0.01 -0.25 0.22 -0.25 0.22 -0.02 4.19 c-0.01 2.30 0 4.30 0.02 4.44 0.03 0.14 0.13 0.33 0.22 0.43 l0.18 0.18 4.39 0 4.40 0 0.22 -0.22z"/>
  <path d="M84.94 40.88 c-0.52 -0.09 -0.94 -0.41 -1.17 -0.86 -0.19 -0.38 -0.19 -0.38 -0.19 -2.51 0 -2.29 0.04 -2.59 0.38 -2.98 0.10 -0.12 0.36 -0.30 0.58 -0.40 0.39 -0.17 0.44 -0.18 2.54 -0.18 2.24 0 2.47 0.03 2.89 0.35 0.10 0.08 0.28 0.32 0.40 0.53 l0.20 0.39 0 2.25 0 2.25 -0.22 0.41 c-0.18 0.31 -0.31 0.45 -0.60 0.60 -0.37 0.19 -0.38 0.19 -2.40 0.20 -1.11 0.01 -2.19 -0.01 -2.39 -0.05z"/>
  <path d="M17.65 44.14 c-0.02 -0.07 -0.01 -0.33 0.01 -0.58 0.03 -0.25 0.08 -2.89 0.10 -5.86 0.05 -5.06 0.05 -5.41 0.19 -5.68 0.19 -0.39 0.66 -0.84 1.08 -1.05 l0.35 -0.17 5.10 0 5.10 0 0.42 0.20 c0.47 0.23 0.80 0.56 1.06 1.04 l0.17 0.33 0.02 5.63 c0.01 3.10 -0.01 5.76 -0.05 5.93 l-0.06 0.30 -0.94 0.02 -0.94 0.02 0.04 -2.37 0.05 -2.36 -4.84 0 -4.85 0 -0.01 1.82 c-0.01 1 -0.01 2.06 -0.02 2.34 l-0.01 0.52 -0.96 0.02 c-0.82 0.01 -0.96 0 -1 -0.10z m11.68 -8.77 l0 -2.21 -0.18 -0.21 -0.18 -0.21 -4.34 -0.02 c-3.91 -0.02 -4.36 -0.01 -4.57 0.10 -0.14 0.07 -0.28 0.21 -0.32 0.31 -0.05 0.13 -0.08 0.91 -0.08 2.32 l0 2.14 4.84 0 4.84 0 0 -2.20z"/>
  <path d="M22.22 36.08 c-0.67 -0.14 -0.92 -0.41 -0.92 -1.02 0 -0.47 0.16 -0.74 0.58 -0.94 0.35 -0.18 0.41 -0.18 2.54 -0.18 2.12 0 2.18 0.01 2.49 0.17 0.38 0.20 0.55 0.49 0.55 0.94 0 0.47 -0.13 0.70 -0.48 0.89 -0.29 0.16 -0.41 0.17 -2.37 0.18 -1.13 0.01 -2.20 -0.01 -2.38 -0.05z"/>
  <path d="M32.92 44.20 c-0.02 -0.31 0.01 -13.40 0.04 -13.43 0.01 -0.03 0.55 -0.05 1.18 -0.05 0.63 0.01 3.38 0.01 6.12 0.02 l4.97 0.01 0 0.98 0 0.98 -5.18 0 -5.18 0 0 1.95 0 1.95 3.17 0 c1.90 0 3.53 -0.04 4.08 -0.09 0.71 -0.07 0.94 -0.07 1.02 0 0.08 0.08 0.11 0.28 0.11 0.94 0 0.47 -0.02 0.88 -0.06 0.94 -0.05 0.08 -0.28 0.09 -1.08 0.06 -0.56 -0.02 -1.04 -0.01 -1.07 0.02 -0.02 0.04 -1.42 0.07 -3.11 0.07 l-3.07 0 0 2.57 c0 1.41 -0.02 2.69 -0.05 2.85 l-0.05 0.28 -0.92 0 c-0.51 0 -0.93 -0.02 -0.94 -0.05z"/>
  <path d="M46.01 44.17 c-0.03 -0.04 -0.03 -0.49 0 -0.99 0.02 -0.50 0.06 -3.51 0.07 -6.69 l0.02 -5.78 0.89 0 0.89 0 0.05 0.41 c0.06 0.50 0.07 12.86 0.01 13.01 -0.04 0.09 -0.22 0.11 -0.97 0.11 -0.58 0 -0.94 -0.03 -0.98 -0.08z"/>
  <path d="M65.31 39.74 c0.03 -7.47 0.02 -7.40 0.22 -7.75 0.20 -0.38 0.64 -0.80 1.07 -1.02 l0.34 -0.18 5.14 0 5.14 0 0.34 0.17 c0.38 0.19 0.87 0.67 1.09 1.07 0.14 0.24 0.14 0.55 0.17 5.92 0.01 3.11 0 5.80 -0.02 5.99 l-0.05 0.32 -0.95 -0.02 -0.95 -0.02 0.03 -2.35 0.03 -2.34 -4.83 0.01 -4.83 0.02 0.03 0.88 c0.01 0.65 0 0.88 -0.07 0.88 -0.07 0 -0.08 0.35 -0.06 1.45 l0.02 1.44 -0.94 0.02 -0.94 0.02 0.02 -4.52z m11.57 -4.41 l-0.01 -2.21 -0.19 -0.19 -0.18 -0.19 -4.42 0 -4.42 0 -0.19 0.18 c-0.18 0.17 -0.19 0.23 -0.19 0.85 0 0.39 -0.03 0.66 -0.08 0.66 -0.05 0 -0.08 0.25 -0.08 0.60 0 0.35 0.03 0.60 0.08 0.60 0.05 0 0.08 0.38 0.08 0.98 l0 0.98 4.81 -0.01 4.81 -0.02 -0.01 -2.21z"/>
  <path d="M69.77 36.08 c-0.78 -0.17 -1.13 -0.80 -0.82 -1.53 0.22 -0.54 0.91 -0.67 3.35 -0.63 1.68 0.02 1.86 0.04 2.13 0.18 0.39 0.20 0.58 0.47 0.62 0.86 0.05 0.44 -0.15 0.80 -0.54 1 -0.28 0.15 -0.44 0.16 -2.36 0.17 -1.13 0.01 -2.20 -0.01 -2.38 -0.05z"/>
  <path d="M42.97 35.81 c-0.14 -0.07 -0.44 -0.25 -0.65 -0.42 -0.39 -0.29 -0.40 -0.31 -0.40 -0.68 0 -0.36 0.01 -0.38 0.28 -0.50 0.17 -0.08 0.49 -0.12 0.80 -0.13 0.62 0 1 0.19 1.16 0.56 0.10 0.26 0.07 1.01 -0.06 1.14 -0.14 0.14 -0.85 0.15 -1.14 0.02z"/>
 </g>
 <g fill="#dcdcdb">
  <path d="M4.36 45.67 c-1.88 -0.26 -2.87 -1.08 -3.30 -2.75 -0.11 -0.46 -0.13 -0.99 -0.13 -5.50 0 -4.64 0.01 -5.03 0.14 -5.51 0.38 -1.44 1.15 -2.18 2.66 -2.61 0.54 -0.15 0.76 -0.16 4.47 -0.19 5.18 -0.04 5.57 0.01 7.24 0.82 1.29 0.63 1.43 0.63 2.74 0.01 1.71 -0.82 2.18 -0.87 6.76 -0.82 3.79 0.04 3.83 0.04 5.39 0.63 1.18 0.45 1.47 0.45 2.44 0.04 1.61 -0.68 1.91 -0.71 6.75 -0.68 3.50 0.03 3.94 0.05 4.76 0.19 0.50 0.08 1.30 0.21 1.78 0.28 0.49 0.07 1.26 0.20 1.73 0.31 1.01 0.23 1.27 0.21 2.23 -0.17 1.51 -0.59 1.38 -0.58 5.73 -0.61 5.18 -0.05 5.55 0 7.28 0.82 1.28 0.61 1.49 0.62 2.56 0.07 1.65 -0.83 2.19 -0.92 6.33 -0.92 4.07 0 4.78 0.10 6.18 0.80 0.86 0.44 1.35 0.56 1.76 0.47 0.17 -0.04 0.65 -0.24 1.06 -0.44 1.47 -0.74 2.12 -0.82 6.19 -0.82 3.88 0 4.66 0.09 5.80 0.64 1.10 0.54 1.88 1.54 2.24 2.93 l0.20 0.74 0.03 3.52 c0.03 3.81 -0.01 4.61 -0.33 5.59 -0.37 1.16 -1.18 2.16 -2.16 2.63 -1.03 0.49 -1.45 0.54 -5.07 0.58 -4.35 0.05 -5.13 -0.02 -6.68 -0.62 -1.03 -0.40 -1.30 -0.44 -2.04 -0.30 -0.95 0.18 -1.81 0.16 -2.27 -0.06 -0.39 -0.18 -0.92 -0.69 -1.11 -1.07 -0.06 -0.12 -0.22 -0.56 -0.35 -0.97 -0.30 -0.94 -0.53 -1.27 -1.01 -1.53 l-0.38 -0.19 -1.99 0 c-1.93 0 -2 0.01 -2.38 0.18 -0.58 0.26 -0.79 0.54 -1.10 1.52 -0.15 0.47 -0.35 0.99 -0.45 1.16 -0.24 0.41 -0.81 0.90 -1.15 1 -0.41 0.11 -1.43 0.09 -2.01 -0.05 -0.68 -0.16 -1.12 -0.10 -2.06 0.28 -1.56 0.62 -1.63 0.62 -6.47 0.63 -4.84 0 -4.76 0.01 -6.33 -0.57 -0.92 -0.34 -1.07 -0.38 -1.43 -0.34 -1.07 0.12 -2.03 0.14 -2.37 0.05 -0.46 -0.13 -1.08 -0.70 -1.33 -1.23 -0.28 -0.58 -0.34 -0.86 -0.43 -1.92 -0.19 -2.31 -0.43 -2.77 -1.27 -2.44 -1.55 0.60 -2.22 0.71 -4.25 0.71 -2.07 0 -2.44 0.28 -2.69 1.97 -0.19 1.29 -0.44 1.86 -1.03 2.44 -0.58 0.56 -0.64 0.57 -3.10 0.59 -1.97 0.01 -2.21 0 -2.65 -0.14 -0.81 -0.25 -1.31 -0.88 -1.66 -2.09 -0.24 -0.82 -0.55 -1.30 -1 -1.55 l-0.38 -0.21 -2.03 0 c-1.96 0 -2.03 0.01 -2.36 0.17 -0.64 0.32 -0.81 0.55 -1.09 1.48 -0.27 0.89 -0.50 1.34 -0.91 1.73 -0.49 0.48 -0.83 0.58 -1.73 0.54 -0.41 -0.01 -0.97 -0.08 -1.24 -0.14 -0.57 -0.11 -0.80 -0.07 -2.24 0.45 -0.47 0.17 -1.07 0.34 -1.31 0.39 -0.55 0.10 -8.47 0.16 -9.17 0.07z m9.21 -0.95 c0.31 -0.09 0.94 -0.33 1.39 -0.53 1.18 -0.52 1.32 -0.56 2 -0.52 0.47 0.03 0.59 0.01 0.62 -0.08 0.02 -0.06 0.05 -0.44 0.05 -0.86 l0 -0.74 0.19 0 c0.18 0 0.19 0.01 0.15 0.28 -0.02 0.15 -0.05 0.60 -0.06 0.99 l-0.02 0.71 0.75 0 0.75 0 -0.02 -0.41 c-0.03 -0.54 0.04 -0.90 0.17 -0.90 0.08 0 0.11 0.08 0.11 0.27 0 0.14 0.03 0.25 0.07 0.22 0.07 -0.05 0.34 -0.69 0.62 -1.47 0.13 -0.36 0.27 -0.58 0.56 -0.88 0.62 -0.62 0.82 -0.66 3.48 -0.66 1.89 0 2.27 0.02 2.63 0.13 0.76 0.24 1.32 0.90 1.61 1.90 0.08 0.25 0.22 0.62 0.33 0.82 0.18 0.35 0.19 0.36 0.22 0.17 0.02 -0.17 0.07 -0.21 0.20 -0.21 0.17 0 0.18 0.01 0.14 0.52 l-0.05 0.53 0.74 -0.02 0.74 -0.02 0.07 -0.31 c0.08 -0.42 0.28 -0.44 0.28 -0.04 l0 0.28 0.74 0.01 0.74 0.01 0.05 -0.27 c0.02 -0.15 0.05 -0.47 0.05 -0.70 0 -0.39 0.01 -0.44 0.16 -0.44 0.15 0 0.16 0.03 0.13 0.74 l-0.02 0.73 0.72 0.02 0.72 0.02 0.05 -0.26 c0.02 -0.15 0.12 -0.34 0.21 -0.44 0.25 -0.27 0.51 -0.91 0.59 -1.51 0.18 -1.21 0.31 -1.57 0.70 -1.99 0.51 -0.55 1.08 -0.69 2.78 -0.69 1.42 0 2.23 -0.10 2.81 -0.32 0.38 -0.15 0.41 -0.19 0.39 -0.38 -0.02 -0.20 -0.02 -0.20 0.42 -0.20 0.29 0 0.46 -0.03 0.48 -0.09 0.05 -0.17 0.01 -1.30 -0.05 -1.40 -0.06 -0.09 -0.25 -0.08 -1.11 0.04 -0.27 0.04 -0.28 0.03 -0.28 -0.15 0 -0.19 0.02 -0.19 0.38 -0.19 0.48 0 0.42 -0.11 -0.22 -0.40 -0.61 -0.27 -1.21 -0.35 -2.71 -0.35 -2.16 0 -2.71 -0.24 -2.71 -1.17 0 -0.50 0.15 -0.73 0.62 -0.94 0.39 -0.17 0.47 -0.17 3.62 -0.23 2.06 -0.04 3.32 -0.03 3.49 0.01 0.40 0.11 0.63 0.32 0.87 0.81 0.20 0.42 0.21 0.45 0.18 1.48 -0.06 2.36 -0.04 3.02 0.22 5.78 0.07 0.77 0.25 1.38 0.52 1.79 l0.15 0.22 0 -2.79 0 -2.80 0.17 0 0.17 0 -0.01 1.59 c-0.01 0.88 -0.02 2.26 -0.04 3.06 l-0.03 1.46 0.74 0.02 c0.79 0.02 0.76 0.04 0.73 -0.42 -0.01 -0.36 0.08 -0.69 0.19 -0.69 0.08 0 0.10 0.10 0.10 0.40 l0 0.40 0.62 -0.03 c0.56 -0.03 0.66 -0.01 1.01 0.17 l0.39 0.19 0 -1.13 c0 -1.07 0.01 -1.13 0.15 -1.13 0.14 0 0.15 0.05 0.15 1.12 l0 1.12 0.26 0.05 c0.29 0.06 0.37 0.26 0.10 0.28 -0.28 0.01 0.58 0.37 1.18 0.50 0.44 0.09 1.22 0.10 4.65 0.08 4.72 -0.03 4.39 0.01 6.16 -0.78 1.04 -0.47 1.64 -0.57 2.23 -0.41 0.28 0.08 0.28 0.08 0.28 -0.14 0 -0.18 0.03 -0.22 0.19 -0.22 0.18 0 0.19 0.01 0.14 0.34 l-0.05 0.34 0.74 -0.02 0.74 -0.02 0.02 -0.35 c0.01 -0.28 0.05 -0.36 0.16 -0.36 0.17 0 0.38 -0.40 0.64 -1.18 0.25 -0.76 0.56 -1.22 1 -1.52 0.59 -0.38 0.77 -0.41 3.13 -0.41 2.39 0 2.71 0.05 3.29 0.42 0.43 0.28 0.72 0.76 1.01 1.63 0.24 0.71 0.42 1.07 0.54 1.07 0.04 0 0.07 -0.49 0.07 -1.09 0 -1.06 0.01 -1.09 0.16 -1.09 0.17 0 0.17 0.01 0.14 1.45 l-0.03 1.44 0.72 0.02 0.73 0.02 0.05 -0.27 c0.05 -0.28 0.27 -0.38 0.27 -0.12 0 0.13 0.03 0.14 0.36 0.07 0.58 -0.11 1.09 -0.01 1.96 0.39 1.76 0.82 2.01 0.85 6.47 0.80 3.68 -0.04 3.81 -0.05 4.78 -0.54 1.24 -0.62 1.89 -1.64 2.10 -3.27 0.06 -0.42 0.08 -1.82 0.05 -4.09 -0.03 -3.83 -0.05 -3.91 -0.55 -4.92 -0.51 -1.02 -1.47 -1.70 -2.81 -1.99 -0.57 -0.12 -1.02 -0.14 -4.24 -0.13 -3.42 0 -3.63 0.01 -4.17 0.16 -0.56 0.16 -1.25 0.48 -2.20 1.03 -0.41 0.24 -0.50 0.26 -1.05 0.26 -0.59 0 -0.62 -0.01 -1.27 -0.39 -1.85 -1.07 -1.88 -1.07 -6.34 -1.07 -4.44 0 -4.45 0 -6.22 1.07 -0.71 0.43 -0.71 0.43 -1.32 0.43 l-0.61 0 -0.93 -0.54 c-0.52 -0.29 -1.17 -0.61 -1.46 -0.69 -0.84 -0.25 -2.12 -0.32 -5.89 -0.28 -3.80 0.03 -3.78 0.03 -4.74 0.49 l-0.47 0.22 0.92 0.01 c0.86 0.01 0.92 0.01 0.92 0.15 0 0.14 -0.06 0.15 -0.88 0.15 l-0.88 -0.01 -0.02 1.13 c-0.01 1.07 -0.03 1.13 -0.17 1.13 -0.14 0 -0.15 -0.05 -0.15 -1.20 l0 -1.19 -0.35 0.19 c-0.32 0.17 -0.43 0.19 -1.01 0.17 l-0.66 -0.03 0 0.36 c0 0.26 -0.03 0.36 -0.11 0.36 -0.10 0 -0.16 -0.19 -0.20 -0.71 -0.02 -0.22 -0.03 -0.22 -0.49 -0.25 -0.34 -0.01 -0.47 -0.05 -0.47 -0.13 0 -0.13 -0.08 -0.15 -1.13 -0.30 -0.47 -0.07 -1.18 -0.19 -1.58 -0.27 -1.19 -0.25 -2.51 -0.31 -5.94 -0.28 -3.53 0.04 -3.50 0.03 -4.48 0.50 l-0.42 0.20 0.96 0.02 c0.88 0.01 0.95 0.03 0.95 0.17 0 0.13 -0.07 0.14 -0.94 0.14 -0.52 0 -0.96 0.01 -0.98 0.04 -0.03 0.02 -0.04 0.30 -0.03 0.61 0.01 0.52 0.01 0.56 -0.14 0.56 -0.15 0 -0.16 -0.05 -0.16 -0.67 l0 -0.66 -0.30 0.14 c-0.25 0.13 -0.41 0.14 -0.95 0.12 -0.60 -0.03 -0.73 -0.07 -1.37 -0.38 -1.58 -0.76 -1.68 -0.77 -6 -0.76 -3.40 0 -3.59 0.01 -4.15 0.17 -0.58 0.16 -1.45 0.58 -2.21 1.07 -0.32 0.20 -0.48 0.25 -0.94 0.28 -0.52 0.03 -0.56 0.02 -1.18 -0.31 -2.33 -1.27 -1.96 -1.20 -7.16 -1.21 -4.16 0 -4.21 0 -4.66 0.17 -0.25 0.10 -0.58 0.25 -0.75 0.34 l-0.28 0.17 0.85 0.02 c0.79 0.01 0.84 0.03 0.84 0.17 0 0.14 -0.05 0.15 -0.84 0.14 -0.47 -0.01 -0.89 -0.01 -0.95 -0.01 -0.07 0.01 -0.08 0.07 -0.05 0.19 0.05 0.17 0.02 0.19 -0.14 0.19 -0.10 0 -0.19 -0.05 -0.19 -0.09 0 -0.18 -0.30 0.35 -0.47 0.84 -0.17 0.49 -0.17 0.50 -0.17 5.32 0 4.55 0.01 4.86 0.14 5.25 0.08 0.22 0.20 0.53 0.28 0.68 0.12 0.24 0.16 0.26 0.37 0.23 0.22 -0.03 0.23 -0.02 0.21 0.18 -0.02 0.19 0.01 0.22 0.20 0.25 0.22 0.04 0.37 0.30 0.17 0.30 -0.05 0.01 0.07 0.09 0.27 0.19 0.74 0.38 0.94 0.40 5.45 0.38 3.97 -0.01 4.18 -0.02 4.72 -0.17z m30.17 -9.09 c0.41 -0.16 0.32 -0.86 -0.16 -1.15 -0.46 -0.28 -1.44 -0.13 -1.44 0.23 0 0.17 0.62 0.68 1.05 0.86 0.31 0.14 0.31 0.14 0.55 0.05z"/>
  <path d="M13.65 44.22 c0 -0.07 0.05 -0.12 0.11 -0.12 0.06 0 0.11 -0.04 0.11 -0.08 0 -0.05 0.08 -0.07 0.19 -0.05 0.10 0.02 0.19 0.01 0.19 -0.04 0 -0.04 0.07 -0.05 0.15 -0.03 0.08 0.02 0.20 -0.01 0.28 -0.07 0.08 -0.05 0.10 -0.10 0.07 -0.10 -0.13 0 0.21 -0.22 0.34 -0.22 0.14 0 0.31 -0.25 0.23 -0.33 -0.02 -0.02 0.01 -0.05 0.08 -0.05 0.09 0 0.12 -0.04 0.10 -0.10 -0.02 -0.06 0.01 -0.13 0.08 -0.15 0.06 -0.03 0.10 -0.10 0.07 -0.16 -0.02 -0.06 -0.01 -0.11 0.04 -0.11 0.05 0 0.07 -0.05 0.04 -0.11 -0.02 -0.06 -0.01 -0.11 0.04 -0.11 0.05 0 0.06 -0.18 0.02 -0.52 -0.04 -0.37 -0.02 -0.52 0.04 -0.52 0.05 0 0.08 -0.05 0.08 -0.11 0 -0.06 0.04 -0.11 0.08 -0.11 0.12 0 0.06 1.74 -0.06 1.78 -0.05 0.01 -0.10 0.09 -0.10 0.17 0 0.08 -0.03 0.14 -0.08 0.14 -0.04 0 -0.08 0.05 -0.08 0.11 0 0.06 -0.07 0.11 -0.15 0.11 -0.10 0 -0.15 0.05 -0.15 0.16 0 0.20 -0.20 0.36 -0.47 0.37 -0.13 0 -0.21 0.04 -0.21 0.10 0 0.14 -0.14 0.18 -0.64 0.24 -0.34 0.05 -0.41 0.03 -0.41 -0.08z"/>
  <path d="M61.20 44.22 c0 -0.07 0.05 -0.12 0.11 -0.12 0.06 0 0.11 -0.04 0.11 -0.08 0 -0.05 0.08 -0.07 0.19 -0.05 0.10 0.02 0.19 0.01 0.19 -0.01 0 -0.03 0.15 -0.10 0.33 -0.16 0.19 -0.05 0.31 -0.13 0.30 -0.16 -0.02 -0.03 0.02 -0.06 0.10 -0.06 0.08 0 0.18 -0.04 0.23 -0.09 0.07 -0.07 0.09 -0.04 0.09 0.15 0 0.17 -0.04 0.24 -0.11 0.24 -0.06 0 -0.11 0.03 -0.11 0.07 0 0.10 -0.56 0.30 -1.01 0.35 -0.35 0.05 -0.41 0.03 -0.41 -0.08z"/>
  <path d="M91.50 44.22 c0 -0.07 0.05 -0.12 0.11 -0.12 0.06 0 0.11 -0.04 0.11 -0.08 0 -0.05 0.08 -0.07 0.19 -0.05 0.10 0.02 0.19 0.01 0.19 -0.01 0 -0.04 0.40 -0.21 0.77 -0.34 0.07 -0.02 0.13 -0.09 0.13 -0.14 0 -0.06 0.09 -0.14 0.19 -0.19 0.13 -0.05 0.18 -0.13 0.15 -0.19 -0.02 -0.06 -0.01 -0.11 0.04 -0.11 0.05 0 0.05 -0.03 0.03 -0.08 -0.02 -0.04 -0.01 -0.08 0.04 -0.08 0.05 0 0.06 -0.03 0.04 -0.08 -0.02 -0.04 -0.01 -0.08 0.04 -0.08 0.05 0 0.06 -0.03 0.04 -0.08 -0.02 -0.04 -0.01 -0.08 0.04 -0.08 0.06 0 0.08 -0.07 0.05 -0.19 -0.03 -0.10 -0.01 -0.19 0.03 -0.19 0.04 0 0.08 -0.05 0.08 -0.11 0 -0.06 0.05 -0.11 0.12 -0.11 0.10 0 0.12 0.06 0.08 0.41 -0.05 0.47 -0.25 0.94 -0.40 0.94 -0.05 0 -0.10 0.06 -0.10 0.14 0 0.17 -0.14 0.31 -0.31 0.31 -0.08 0 -0.14 0.05 -0.14 0.12 0 0.16 -0.56 0.39 -1.07 0.45 -0.37 0.05 -0.43 0.03 -0.43 -0.08z"/>
  <path d="M82.04 44.20 c-0.12 -0.01 -0.21 -0.08 -0.21 -0.14 0 -0.07 -0.08 -0.10 -0.22 -0.10 -0.12 0 -0.22 -0.03 -0.22 -0.08 0 -0.04 -0.05 -0.08 -0.10 -0.08 -0.17 0 -0.43 -0.34 -0.43 -0.55 0 -0.15 -0.04 -0.20 -0.15 -0.20 -0.12 0 -0.15 -0.05 -0.15 -0.22 0 -0.12 -0.03 -0.22 -0.08 -0.22 -0.04 0 -0.08 -0.12 -0.08 -0.26 0 -0.21 0.03 -0.26 0.14 -0.26 0.10 0 0.16 0.08 0.19 0.28 0.03 0.15 0.11 0.41 0.19 0.56 0.17 0.32 0.88 0.97 1.07 0.97 0.07 0 0.15 0.04 0.18 0.08 0.02 0.05 0.10 0.07 0.18 0.05 0.14 -0.04 0.38 0.07 0.38 0.17 0 0.08 -0.29 0.08 -0.69 0.02z"/>
  <path d="M62.96 43.20 c0 -0.08 0.03 -0.15 0.08 -0.15 0.04 0 0.11 -0.06 0.17 -0.13 0.09 -0.12 0.10 -0.10 0.10 0.15 0 0.24 -0.02 0.28 -0.17 0.28 -0.12 0 -0.17 -0.05 -0.17 -0.15z"/>
  <path d="M66.94 43.03 c-0.08 -0.29 -0.05 -1.93 0.03 -1.93 0.05 0 0.08 -0.05 0.08 -0.11 0 -0.06 0.04 -0.11 0.08 -0.11 0.05 0 0.08 0.44 0.08 1.16 0 0.94 -0.02 1.16 -0.10 1.16 -0.05 0 -0.12 -0.08 -0.15 -0.17z"/>
  <path d="M63.28 42.60 c-0.02 -0.08 -0.01 -0.15 0.04 -0.15 0.05 0 0.06 -0.08 0.05 -0.19 -0.02 -0.10 -0.01 -0.19 0.02 -0.19 0.04 0 0.07 -0.05 0.07 -0.11 0 -0.06 0.05 -0.11 0.11 -0.11 0.12 0 0.14 0.17 0.07 0.62 -0.05 0.31 -0.28 0.40 -0.35 0.13z"/>
  <path d="M6.85 41.47 c-0.74 -0.16 -1.33 -0.66 -1.57 -1.36 -0.13 -0.36 -0.14 -0.64 -0.14 -2.65 0 -2.68 0.04 -2.89 0.64 -3.49 0.58 -0.59 0.82 -0.64 3.41 -0.64 1.85 0 2.23 0.02 2.60 0.13 0.62 0.19 0.99 0.50 1.24 1.01 l0.22 0.44 0 2.55 0 2.55 -0.20 0.38 c-0.24 0.46 -0.63 0.80 -1.10 0.98 -0.29 0.10 -0.68 0.13 -2.56 0.14 -1.22 0.01 -2.36 -0.01 -2.53 -0.05z m4.74 -0.98 c0.52 -0.26 0.77 -0.70 0.88 -1.48 0.10 -0.77 0.03 -3.35 -0.10 -3.70 -0.18 -0.50 -0.43 -0.80 -0.80 -0.98 -0.35 -0.17 -0.41 -0.18 -2.31 -0.18 -1.70 0 -2 0.01 -2.30 0.14 -0.43 0.17 -0.86 0.62 -0.94 1 -0.03 0.16 -0.06 1.16 -0.06 2.23 0 1.93 0 1.96 0.19 2.33 0.22 0.43 0.60 0.68 1.18 0.79 0.19 0.04 1.15 0.06 2.12 0.05 1.72 -0.01 1.77 -0.02 2.14 -0.20z"/>
  <path d="M54.37 41.44 c-0.80 -0.17 -1.38 -0.73 -1.58 -1.49 -0.07 -0.28 -0.10 -0.99 -0.10 -2.60 0 -2.14 0.01 -2.23 0.18 -2.65 0.22 -0.56 0.62 -0.96 1.18 -1.18 0.41 -0.16 0.59 -0.17 2.30 -0.20 2.68 -0.05 3.42 0.09 4 0.76 0.46 0.54 0.49 0.78 0.47 3.56 -0.02 2.36 -0.03 2.47 -0.19 2.76 -0.32 0.60 -0.82 0.94 -1.56 1.08 -0.61 0.11 -4.16 0.10 -4.70 -0.02z m4.77 -0.94 c0.47 -0.24 0.76 -0.64 0.87 -1.23 0.05 -0.26 0.07 -1.12 0.05 -2.10 -0.02 -1.61 -0.03 -1.67 -0.22 -2.09 -0.24 -0.52 -0.59 -0.77 -1.22 -0.89 -0.62 -0.11 -3.66 -0.05 -4.01 0.08 -0.43 0.16 -0.76 0.45 -0.93 0.82 -0.15 0.32 -0.16 0.47 -0.16 2.30 0 2.09 0.03 2.32 0.39 2.74 0.44 0.52 0.82 0.58 3.10 0.57 1.72 -0.01 1.77 -0.02 2.14 -0.20z"/>
  <path d="M84.67 41.45 c-0.76 -0.17 -1.27 -0.63 -1.53 -1.37 -0.11 -0.30 -0.14 -0.72 -0.17 -2.18 -0.06 -3.19 0.17 -3.90 1.42 -4.39 0.35 -0.14 0.59 -0.17 2.26 -0.19 1.90 -0.03 2.82 0.04 3.35 0.25 0.38 0.16 0.79 0.59 0.99 1.03 0.17 0.37 0.17 0.48 0.19 2.53 0.04 2.77 -0.05 3.21 -0.68 3.83 -0.52 0.51 -0.72 0.54 -3.21 0.56 -1.58 0.01 -2.33 0 -2.63 -0.07z m4.84 -0.95 c0.29 -0.15 0.42 -0.28 0.60 -0.60 l0.22 -0.41 0 -2.03 0 -2.03 -0.20 -0.39 c-0.44 -0.82 -0.65 -0.88 -3.06 -0.88 -1.85 0 -1.93 0.01 -2.31 0.18 -0.22 0.10 -0.47 0.28 -0.58 0.40 -0.33 0.39 -0.38 0.70 -0.38 2.76 0 1.89 0 1.92 0.19 2.29 0.22 0.46 0.65 0.77 1.17 0.86 0.20 0.04 1.18 0.06 2.17 0.05 1.77 -0.01 1.81 -0.01 2.17 -0.20z"/>
  <path d="M50.03 37.65 c0 -3.62 0 -3.67 0.15 -3.67 0.15 0 0.15 0.05 0.15 3.67 0 3.62 0 3.67 -0.15 3.67 -0.15 0 -0.15 -0.05 -0.15 -3.67z"/>
  <path d="M40.65 38.43 c0 -0.14 0.30 -0.25 0.64 -0.25 0.48 0 0.71 0.07 0.71 0.19 0 0.08 -0.15 0.10 -0.68 0.10 -0.37 0 -0.68 -0.02 -0.68 -0.05z"/>
  <path d="M22.20 37.65 c0 -0.15 0.05 -0.15 2.29 -0.15 2.23 0 2.29 0 2.29 0.15 0 0.15 -0.05 0.15 -2.29 0.15 -2.23 0 -2.29 0 -2.29 -0.15z"/>
  <path d="M69.53 37.65 c0 -0.15 0.05 -0.15 2.44 -0.15 2.38 0 2.44 0 2.44 0.15 0 0.15 -0.05 0.15 -2.44 0.15 -2.38 0 -2.44 0 -2.44 -0.15z"/>
  <path d="M45.97 36.26 c0 -0.77 0 -0.79 0.17 -0.79 0.17 0 0.18 0.01 0.17 0.79 -0.01 0.76 -0.01 0.79 -0.17 0.79 -0.17 0 -0.17 -0.02 -0.17 -0.79z"/>
  <path d="M22.09 36.71 c-0.04 -0.01 -0.22 -0.07 -0.40 -0.11 -0.41 -0.10 -0.95 -0.59 -1.07 -0.95 -0.14 -0.43 -0.06 -1.15 0.17 -1.49 0.25 -0.39 0.82 -0.68 1.46 -0.78 0.80 -0.11 3.70 -0.09 4.42 0.04 1.07 0.19 1.54 0.70 1.54 1.66 0 0.72 -0.25 1.12 -0.88 1.42 l-0.44 0.22 -2.36 0.01 c-1.30 0.01 -2.39 0 -2.44 -0.01z m4.66 -0.99 c0.28 -0.15 0.48 -0.42 0.48 -0.67 0 -0.24 -0.24 -0.56 -0.55 -0.72 -0.31 -0.17 -0.38 -0.17 -2.27 -0.17 -1.90 0 -1.96 0.01 -2.31 0.18 -0.90 0.44 -0.70 1.29 0.34 1.51 0.18 0.04 1.15 0.06 2.16 0.05 1.73 -0.01 1.85 -0.02 2.14 -0.18z"/>
  <path d="M69.38 36.63 c-0.75 -0.20 -1.19 -0.68 -1.25 -1.35 -0.06 -0.64 0.07 -1 0.46 -1.37 0.58 -0.53 0.86 -0.58 3.38 -0.58 1.90 0 2.23 0.01 2.63 0.14 0.85 0.26 1.31 0.96 1.21 1.82 -0.06 0.52 -0.36 0.92 -0.91 1.20 l-0.44 0.22 -2.33 0.01 c-1.88 0.01 -2.41 -0.01 -2.74 -0.10z m4.91 -0.90 c0.87 -0.45 0.56 -1.36 -0.53 -1.53 -0.58 -0.10 -3.05 -0.10 -3.55 0 -0.60 0.11 -0.91 0.28 -1.03 0.58 -0.19 0.47 0.15 0.92 0.82 1.07 0.18 0.03 1.15 0.06 2.16 0.05 1.70 -0.01 1.86 -0.03 2.14 -0.17z"/>
  <path d="M67.05 35.96 c0 -0.06 -0.03 -0.11 -0.08 -0.11 -0.05 0 -0.08 -0.32 -0.08 -0.82 0 -0.50 0.03 -0.82 0.08 -0.82 0.05 0 0.08 -0.05 0.08 -0.11 0 -0.06 0.05 -0.11 0.10 -0.11 0.08 0 0.09 0.22 0.08 1 -0.01 0.54 -0.01 1.01 -0.02 1.05 -0.01 0.10 -0.16 0.05 -0.16 -0.06z"/>
  <path d="M76.80 34.99 c0 -0.58 0.01 -0.64 0.15 -0.64 0.14 0 0.15 0.05 0.15 0.64 0 0.58 -0.01 0.64 -0.15 0.64 -0.14 0 -0.15 -0.05 -0.15 -0.64z"/>
  <path d="M15.90 33.94 c0 -0.06 -0.03 -0.11 -0.08 -0.11 -0.08 0 -0.10 -0.53 -0.03 -0.80 0.03 -0.10 0.10 -0.17 0.15 -0.17 0.08 0 0.10 0.14 0.10 0.60 0 0.35 -0.03 0.60 -0.08 0.60 -0.04 0 -0.08 -0.05 -0.08 -0.11z"/>
  <path d="M63.45 32.96 c0 -0.06 -0.03 -0.11 -0.07 -0.11 -0.04 0 -0.05 -0.07 -0.03 -0.15 0.07 -0.26 0.25 -0.18 0.25 0.11 0 0.14 -0.03 0.26 -0.08 0.26 -0.04 0 -0.08 -0.05 -0.08 -0.11z"/>
  <path d="M93.75 32.89 c0 -0.06 -0.03 -0.11 -0.06 -0.11 -0.04 0 -0.07 -0.10 -0.07 -0.24 0 -0.14 -0.04 -0.25 -0.08 -0.27 -0.05 -0.01 -0.08 -0.06 -0.05 -0.10 0.02 -0.04 0 -0.07 -0.04 -0.07 -0.05 0 -0.08 -0.05 -0.08 -0.11 0 -0.06 -0.02 -0.11 -0.06 -0.11 -0.03 0 -0.10 -0.07 -0.15 -0.15 -0.08 -0.14 -0.08 -0.15 0.14 -0.15 0.12 0 0.22 0.04 0.22 0.08 0 0.05 0.05 0.13 0.11 0.19 0.06 0.07 0.11 0.22 0.11 0.34 0 0.12 0.04 0.22 0.08 0.22 0.05 0 0.08 0.14 0.08 0.30 0 0.17 -0.03 0.30 -0.08 0.30 -0.04 0 -0.08 -0.05 -0.08 -0.11z"/>
  <path d="M78.60 32.81 c0 -0.06 -0.03 -0.11 -0.07 -0.11 -0.04 0 -0.05 -0.07 -0.03 -0.15 0.02 -0.08 0 -0.15 -0.05 -0.15 -0.05 0 -0.08 -0.02 -0.08 -0.05 0.02 -0.14 -0.01 -0.24 -0.10 -0.34 -0.31 -0.32 -0.31 -0.36 -0.07 -0.36 0.21 0 0.23 0.02 0.23 0.22 0 0.14 0.04 0.22 0.10 0.22 0.05 0 0.12 0.10 0.15 0.23 0.07 0.34 0.05 0.59 -0.03 0.59 -0.04 0 -0.08 -0.05 -0.08 -0.11z"/>
  <path d="M80.40 32.65 c0 -0.32 0.08 -0.55 0.19 -0.55 0.07 0 0.10 -0.08 0.10 -0.22 0 -0.21 0.01 -0.22 0.31 -0.22 l0.31 0 -0.19 0.22 c-0.10 0.13 -0.25 0.40 -0.32 0.60 -0.09 0.25 -0.17 0.38 -0.26 0.38 -0.10 0 -0.14 -0.06 -0.14 -0.20z"/>
  <path d="M30.98 32.59 c0 -0.06 -0.03 -0.11 -0.06 -0.11 -0.03 0 -0.06 -0.07 -0.07 -0.15 -0.01 -0.10 0.03 -0.15 0.14 -0.15 0.11 0 0.14 0.05 0.14 0.26 0 0.14 -0.03 0.26 -0.08 0.26 -0.04 0 -0.08 -0.05 -0.08 -0.11z"/>
  <path d="M65.32 32.36 c0 -0.18 0.04 -0.26 0.11 -0.26 0.08 0 0.11 -0.08 0.11 -0.22 0 -0.21 0.01 -0.22 0.30 -0.22 l0.30 0 0 -0.30 0 -0.30 0.30 0 c0.25 0 0.30 -0.02 0.30 -0.14 0 -0.12 0.08 -0.15 0.47 -0.19 0.25 -0.02 2.60 -0.04 5.22 -0.02 3.72 0.01 4.76 0.05 4.79 0.12 0.01 0.05 0.11 0.09 0.21 0.09 0.10 0 0.18 0.04 0.18 0.08 0 0.05 0.05 0.08 0.11 0.08 0.08 0 0.11 0.08 0.11 0.23 l0 0.22 -0.20 -0.14 c-0.53 -0.36 -0.44 -0.35 -5.61 -0.35 l-4.88 0 -0.38 0.20 c-0.46 0.24 -0.96 0.76 -1.10 1.13 -0.14 0.38 -0.37 0.38 -0.37 0.01z"/>
  <path d="M15.72 32.44 c0.03 -0.06 0.01 -0.11 -0.05 -0.11 -0.05 0 -0.06 -0.03 -0.04 -0.08 0.02 -0.04 0.01 -0.08 -0.05 -0.08 -0.05 0 -0.08 -0.02 -0.05 -0.05 0.10 -0.10 -0.60 -0.76 -1 -0.95 -0.33 -0.16 -0.44 -0.17 -4.43 -0.20 -3.85 -0.04 -4.09 -0.05 -4.11 -0.17 -0.02 -0.13 0.17 -0.14 4.16 -0.11 3.88 0.02 4.21 0.03 4.51 0.17 0.17 0.08 0.31 0.18 0.31 0.24 0 0.06 0.06 0.10 0.14 0.10 0.17 0 0.39 0.22 0.39 0.40 0 0.07 0.05 0.13 0.10 0.13 0.14 0 0.28 0.32 0.28 0.60 0 0.15 -0.04 0.22 -0.11 0.22 -0.07 0 -0.09 -0.05 -0.07 -0.11z"/>
  <path d="M44.87 32.50 c0.11 -0.03 0.13 -0.14 0.13 -0.78 l0 -0.74 -4.39 0 c-4.34 0 -4.39 0 -4.39 -0.15 0 -0.15 0.04 -0.15 4.52 -0.14 l4.51 0.02 0.02 0.92 0.02 0.92 -0.28 -0.01 c-0.16 -0.01 -0.22 -0.02 -0.15 -0.05z"/>
  <path d="M17.85 32.14 c0 -0.22 0.02 -0.26 0.18 -0.26 0.16 0 0.19 -0.04 0.21 -0.28 0.02 -0.27 0.04 -0.28 0.31 -0.31 0.23 -0.02 0.28 -0.05 0.28 -0.20 0 -0.36 0.11 -0.38 5.25 -0.40 2.62 -0.01 4.94 0 5.16 0.02 0.35 0.05 0.39 0.07 0.39 0.22 0 0.17 -0.02 0.18 -0.24 0.13 -0.14 -0.03 -2.39 -0.05 -5.01 -0.05 l-4.76 0 -0.35 0.17 c-0.41 0.20 -0.91 0.68 -1.05 1 -0.14 0.31 -0.36 0.29 -0.36 -0.05z"/>
  <path d="M45.99 31.49 l0.02 -0.77 0.28 -0.02 c0.20 -0.01 0.28 0.01 0.28 0.08 0 0.06 -0.08 0.13 -0.16 0.15 -0.15 0.04 -0.16 0.08 -0.13 0.68 0.03 0.64 0.03 0.64 -0.14 0.64 -0.18 0 -0.18 -0.01 -0.16 -0.76z"/>
  <path d="M30.53 31.80 c-0.14 -0.17 -0.34 -0.36 -0.47 -0.43 -0.28 -0.17 -0.28 -0.25 0.05 -0.25 0.24 0 0.26 0.01 0.26 0.22 0 0.20 0.02 0.22 0.22 0.22 0.21 0 0.22 0.02 0.22 0.26 0 0.14 -0.01 0.26 -0.02 0.26 -0.01 0 -0.14 -0.14 -0.27 -0.30z"/>
  <path d="M62.87 31.73 c-0.14 -0.16 -0.44 -0.39 -0.68 -0.50 l-0.43 -0.21 -4.14 -0.02 c-4.07 -0.02 -4.15 -0.02 -4.15 -0.17 0 -0.15 0.08 -0.15 4.01 -0.15 4.22 0 4.76 0.04 4.76 0.31 0 0.11 0.05 0.14 0.26 0.14 0.23 0 0.26 0.02 0.26 0.19 0 0.15 0.04 0.19 0.19 0.19 0.17 0 0.19 0.03 0.19 0.26 0 0.14 -0.01 0.26 -0.02 0.26 -0.01 0 -0.13 -0.14 -0.26 -0.30z"/>
  <path d="M92.72 31.33 c-0.31 -0.19 -0.31 -0.28 0.01 -0.28 0.24 0 0.26 0.01 0.26 0.22 0 0.13 -0.01 0.22 -0.01 0.22 -0.01 0 -0.14 -0.08 -0.26 -0.16z"/>
  <path d="M81.53 31.16 c0 -0.45 -0.05 -0.44 5.25 -0.47 2.62 -0.01 4.94 0 5.16 0.02 0.35 0.05 0.39 0.07 0.39 0.22 0 0.17 -0.02 0.18 -0.24 0.13 -0.14 -0.03 -2.39 -0.05 -5.01 -0.05 l-4.77 0 -0.39 0.20 -0.39 0.20 0 -0.25z"/>
 </g>
 <g fill="#cbcbcb">
  <path d="M52.65 45.14 c-1.22 -0.05 -1.70 -0.20 -2.81 -0.85 -0.74 -0.43 -0.76 -0.43 -1.20 -0.38 -0.92 0.10 -0.82 0.17 -0.85 -0.61 l-0.02 -0.69 0.28 -0.05 c1.10 -0.17 1.13 -0.17 1.58 0.22 0.17 0.15 0.31 0.24 0.31 0.19 0 -0.05 0.07 -0.08 0.15 -0.08 0.13 0 0.14 0.06 0.17 0.58 l0.02 0.58 0.64 0.05 c0.35 0.03 0.76 0.09 0.90 0.14 0.20 0.08 1.18 0.09 4.31 0.08 2.23 -0.01 4.22 -0.05 4.43 -0.09 1.57 -0.28 1.70 -0.33 2.36 -0.93 0.25 -0.22 0.58 -0.44 0.72 -0.49 0.25 -0.09 0.99 -0.07 1.63 0.05 0.27 0.05 0.28 0.05 0.28 0.38 0 0.18 -0.03 0.33 -0.08 0.33 -0.04 0 -0.08 0.12 -0.08 0.26 0 0.14 -0.02 0.26 -0.05 0.26 -0.02 0 -0.25 -0.05 -0.51 -0.12 -0.62 -0.16 -0.85 -0.11 -1.97 0.38 -1.73 0.77 -1.50 0.74 -5.62 0.79 -1.98 0.02 -4.06 0.02 -4.61 0z"/>
  <path d="M4.01 45.04 c-1.37 -0.30 -2.14 -1.14 -2.44 -2.63 -0.10 -0.50 -0.10 -9.48 0 -9.98 0.25 -1.32 0.88 -2.08 2.12 -2.52 l0.48 -0.17 4.43 0 c5.46 0.01 5.04 -0.06 7.39 1.21 0.57 0.31 0.67 0.34 0.98 0.30 0.19 -0.02 0.51 -0.16 0.71 -0.28 0.74 -0.47 1.61 -0.89 2.19 -1.05 0.56 -0.16 0.74 -0.17 4.37 -0.17 4.57 -0.01 4.64 0 6.22 0.76 0.64 0.31 0.77 0.34 1.24 0.35 0.50 0 0.56 -0.02 1.13 -0.35 0.33 -0.19 0.87 -0.44 1.20 -0.56 l0.60 -0.21 3.47 -0.02 c3.56 -0.03 4.99 0.03 6.01 0.25 0.31 0.07 1.10 0.20 1.75 0.31 0.76 0.11 1.47 0.28 1.96 0.44 0.93 0.32 1.18 0.33 1.70 0.04 0.73 -0.41 1.47 -0.76 1.88 -0.88 0.34 -0.10 0.97 -0.13 4.11 -0.16 5.44 -0.04 5.89 0.02 7.57 0.98 0.82 0.47 0.98 0.53 1.32 0.53 0.34 0 0.48 -0.05 1.10 -0.42 1.77 -1.07 1.75 -1.07 6.44 -1.07 4.71 0 4.70 -0.01 6.56 1.07 0.86 0.50 1.19 0.52 1.88 0.13 0.95 -0.56 1.65 -0.88 2.20 -1.03 0.55 -0.15 0.74 -0.16 4.39 -0.16 3.43 -0.01 3.89 0.01 4.46 0.13 1.34 0.29 2.30 0.97 2.81 1.99 0.51 1.01 0.52 1.07 0.55 5.14 0.02 2.42 0.01 3.89 -0.05 4.31 -0.21 1.63 -0.86 2.65 -2.10 3.27 -0.98 0.50 -1.07 0.50 -5.01 0.54 -4.71 0.05 -4.91 0.02 -6.69 -0.80 -0.98 -0.45 -1.13 -0.48 -1.77 -0.34 -0.28 0.06 -0.52 0.10 -0.53 0.10 -0.01 0 -0.02 -0.26 -0.02 -0.58 l0 -0.59 0.38 -0.08 c0.61 -0.14 0.96 -0.11 1.47 0.13 0.25 0.12 0.47 0.20 0.50 0.19 0.01 -0.01 0.17 0.10 0.33 0.25 0.32 0.31 0.90 0.62 1.15 0.62 0.08 0 0.29 0.06 0.47 0.14 0.29 0.11 0.68 0.13 4.15 0.13 3.71 0 3.85 -0.01 4.56 -0.17 0.83 -0.19 1.06 -0.28 1.44 -0.63 0.38 -0.33 0.56 -0.73 0.76 -1.67 0.17 -0.80 0.18 -0.95 0.18 -4.35 0 -2.83 -0.02 -3.63 -0.11 -4.05 -0.22 -1.05 -0.32 -1.28 -0.72 -1.72 -0.21 -0.23 -0.41 -0.42 -0.44 -0.42 -0.03 0 -0.19 -0.06 -0.34 -0.13 -0.17 -0.07 -0.34 -0.12 -0.42 -0.10 -0.07 0.01 -0.14 -0.02 -0.17 -0.07 -0.02 -0.04 -0.23 -0.08 -0.46 -0.08 -0.34 0 -0.41 -0.02 -0.41 -0.14 0 -0.21 -0.40 -0.23 -3.83 -0.23 -3.38 0 -3.74 0.02 -3.74 0.23 0 0.12 -0.06 0.14 -0.41 0.14 -0.25 0 -0.42 0.04 -0.44 0.10 -0.02 0.05 -0.05 0.04 -0.05 -0.04 -0.01 -0.12 -0.04 -0.12 -0.34 0.03 -0.18 0.09 -0.31 0.19 -0.30 0.21 0.05 0.08 -0.42 0.41 -0.58 0.41 -0.08 0.01 -0.21 0.08 -0.31 0.17 -0.49 0.44 -0.74 0.55 -1.33 0.55 -0.65 0 -0.98 -0.16 -1.75 -0.82 -0.25 -0.21 -0.47 -0.36 -0.50 -0.34 -0.03 0.01 -0.11 -0.01 -0.19 -0.07 -0.08 -0.06 -0.18 -0.09 -0.23 -0.07 -0.05 0.02 -0.10 0 -0.10 -0.05 0 -0.05 -0.02 -0.08 -0.05 -0.08 -0.04 0.01 -0.27 0.01 -0.52 0 -0.41 -0.01 -0.47 -0.03 -0.47 -0.15 0 -0.21 -0.40 -0.23 -3.83 -0.23 -3.38 0 -3.74 0.02 -3.74 0.23 0 0.12 -0.06 0.14 -0.38 0.14 -0.22 0 -0.38 0.03 -0.38 0.08 0 0.05 -0.08 0.07 -0.19 0.04 -0.13 -0.03 -0.23 0 -0.34 0.10 -0.08 0.08 -0.23 0.15 -0.34 0.15 -0.12 0 -0.19 0.05 -0.19 0.12 0 0.07 -0.05 0.10 -0.09 0.08 -0.05 -0.01 -0.25 0.10 -0.44 0.25 -0.73 0.59 -0.89 0.68 -1.42 0.68 -0.55 0 -0.97 -0.19 -1.58 -0.73 -0.29 -0.26 -0.75 -0.56 -0.92 -0.59 -0.04 -0.01 -0.08 -0.02 -0.11 -0.03 -0.04 -0.01 -0.11 -0.01 -0.19 -0.01 -0.07 0.01 -0.14 -0.02 -0.17 -0.07 -0.02 -0.04 -0.23 -0.08 -0.46 -0.08 -0.34 0 -0.41 -0.02 -0.41 -0.14 0 -0.11 -0.08 -0.14 -0.43 -0.18 -0.65 -0.08 -7.82 -0.08 -8.15 -0.01 -0.19 0.04 -0.30 0.10 -0.32 0.19 -0.04 0.13 -0.12 0.14 -0.74 0.14 l-0.70 0 0 0.52 c0 0.47 -0.01 0.52 -0.15 0.52 -0.08 0 -0.15 -0.04 -0.15 -0.08 0 -0.05 -0.16 0.05 -0.34 0.23 -0.34 0.31 -0.34 0.31 -0.80 0.28 -0.25 -0.01 -0.59 -0.08 -0.74 -0.14 l-0.28 -0.10 0 -0.62 c0 -0.49 -0.02 -0.63 -0.11 -0.66 -0.07 -0.03 -0.41 -0.01 -0.77 0.01 l-0.65 0.07 -0.02 0.40 c-0.02 0.33 -0.05 0.39 -0.17 0.39 -0.10 0 -0.14 -0.05 -0.14 -0.22 0 -0.21 -0.02 -0.22 -0.26 -0.22 -0.26 0 -0.26 0 -0.26 0.34 0 0.28 -0.02 0.34 -0.15 0.34 -0.13 0 -0.14 -0.06 -0.17 -0.50 l-0.02 -0.51 -1.44 -0.02 c-1.42 -0.01 -1.44 -0.02 -1.46 -0.19 l-0.02 -0.17 -3.41 -0.02 c-3.76 -0.02 -4.05 -0.01 -4.05 0.22 0 0.14 -0.06 0.14 -0.80 0.14 l-0.80 0 0.03 0.56 c0.02 0.54 0.01 0.56 -0.14 0.56 -0.13 0 -0.17 -0.05 -0.17 -0.16 l0 -0.15 -0.19 0.15 c-0.47 0.37 -1.34 0.26 -2.12 -0.25 -0.58 -0.38 -1.03 -0.60 -1.22 -0.57 -0.07 0.01 -0.14 -0.02 -0.17 -0.07 -0.02 -0.04 -0.23 -0.08 -0.46 -0.08 -0.34 0 -0.41 -0.02 -0.41 -0.14 0 -0.21 -0.40 -0.23 -3.83 -0.23 -3.38 0 -3.74 0.02 -3.74 0.23 0 0.12 -0.06 0.14 -0.41 0.14 -0.25 0 -0.42 0.04 -0.44 0.10 -0.02 0.05 -0.05 0.05 -0.05 -0.04 -0.01 -0.11 -0.04 -0.11 -0.34 0.04 -0.19 0.09 -0.32 0.18 -0.30 0.21 0.04 0.06 -0.26 0.26 -0.46 0.31 -0.08 0.01 -0.14 0.08 -0.13 0.13 0.01 0.05 -0.03 0.08 -0.08 0.07 -0.05 -0.01 -0.23 0.08 -0.39 0.21 -0.49 0.38 -0.74 0.48 -1.25 0.48 -0.41 0 -0.52 -0.04 -0.92 -0.28 -0.25 -0.15 -0.51 -0.35 -0.58 -0.44 -0.14 -0.19 -0.68 -0.57 -0.82 -0.59 -0.05 -0.01 -0.17 -0.06 -0.26 -0.10 -0.14 -0.08 -0.17 -0.08 -0.17 0 0 0.07 -0.02 0.07 -0.09 0 -0.05 -0.05 -0.27 -0.09 -0.49 -0.09 -0.34 0 -0.40 -0.02 -0.40 -0.14 0 -0.21 -0.38 -0.22 -4.69 -0.24 -3.89 -0.01 -4.24 0.01 -4.24 0.27 0 0.09 -0.12 0.11 -0.70 0.11 -0.55 0 -0.71 0.02 -0.74 0.11 -0.03 0.06 -0.01 0.13 0.02 0.15 0.10 0.06 0.10 0.54 0.01 0.60 -0.04 0.02 -0.15 0.27 -0.24 0.55 -0.17 0.50 -0.17 0.55 -0.18 4.97 -0.01 4.72 0.01 5.05 0.34 5.70 0.17 0.33 0.20 0.80 0.06 0.85 -0.08 0.02 -0.08 0.05 -0.01 0.14 0.06 0.08 0.25 0.11 0.59 0.12 0.27 0.01 0.69 0.08 0.92 0.14 0.38 0.12 0.81 0.13 4.43 0.10 3.87 -0.01 4.04 -0.02 4.94 -0.19 0.95 -0.19 1.56 -0.47 1.74 -0.80 0.04 -0.08 0.28 -0.25 0.53 -0.38 0.44 -0.22 0.51 -0.23 1.09 -0.20 0.56 0.03 0.62 0.02 0.62 -0.10 0 -0.09 0.05 -0.14 0.16 -0.14 0.16 0 0.16 0.03 0.13 0.75 -0.01 0.41 -0.05 0.76 -0.07 0.79 -0.02 0.02 -0.27 -0.02 -0.54 -0.09 -0.61 -0.16 -0.80 -0.12 -2.02 0.44 -1.61 0.72 -1.35 0.70 -6.36 0.72 -3.48 0.01 -4.49 -0.01 -4.84 -0.09z"/>
  <path d="M30.04 44.17 c-0.17 -0.04 -0.05 -0.06 0.39 -0.07 l0.62 -0.01 0.02 -0.50 0.02 -0.50 0.30 -0.07 c0.17 -0.04 0.55 -0.05 0.85 -0.03 l0.54 0.03 0 -0.29 c0 -0.25 0.02 -0.28 0.19 -0.28 0.18 0 0.19 0.01 0.15 0.28 -0.02 0.15 -0.05 0.52 -0.06 0.80 l-0.02 0.52 0.60 0.04 0.60 0.04 -0.44 0.07 c-0.26 0.04 -0.74 0.03 -1.24 -0.01 -0.51 -0.05 -0.92 -0.06 -1.14 -0.01 -0.40 0.08 -1.07 0.08 -1.39 0z"/>
  <path d="M18.17 44.12 c0.15 -0.01 0.41 -0.01 0.56 0 0.15 0.01 0.02 0.03 -0.28 0.03 -0.31 0 -0.44 -0.01 -0.28 -0.03z"/>
  <path d="M46.86 44.12 c0.13 -0.01 0.35 -0.01 0.49 0 0.13 0.01 0.02 0.03 -0.25 0.03 -0.27 0 -0.38 -0.01 -0.24 -0.03z"/>
  <path d="M65.72 44.12 c0.15 -0.01 0.41 -0.01 0.56 0 0.15 0.01 0.02 0.03 -0.28 0.03 -0.31 0 -0.44 -0.01 -0.28 -0.03z"/>
  <path d="M77.72 44.12 c0.15 -0.01 0.41 -0.01 0.56 0 0.15 0.01 0.02 0.03 -0.28 0.03 -0.31 0 -0.44 -0.01 -0.28 -0.03z"/>
  <path d="M29.11 43.76 c-0.28 -0.22 -0.54 -0.70 -0.73 -1.34 -0.28 -1 -0.84 -1.66 -1.61 -1.90 -0.64 -0.19 -4.19 -0.19 -4.84 0.01 -0.62 0.19 -1.15 0.73 -1.39 1.40 -0.34 0.95 -0.54 1.40 -0.77 1.68 -0.31 0.38 -0.36 0.28 -0.36 -0.65 0 -0.70 0.01 -0.75 0.33 -1.44 0.41 -0.88 0.85 -1.37 1.49 -1.66 l0.47 -0.22 2.36 -0.02 c1.59 -0.02 2.51 0 2.81 0.06 0.67 0.13 1.27 0.49 1.62 0.94 0.56 0.74 1.25 2.59 0.98 2.59 -0.05 0 -0.09 0.17 -0.10 0.38 l-0.02 0.38 -0.25 -0.19z"/>
  <path d="M45.85 43.75 c-0.56 -0.51 -0.76 -1.25 -0.86 -3.10 -0.05 -0.76 -0.11 -1.67 -0.16 -2.03 -0.06 -0.43 -0.07 -0.98 -0.02 -1.69 0.10 -1.70 0.08 -2.09 -0.16 -2.55 -0.22 -0.47 -0.46 -0.68 -0.86 -0.78 -0.17 -0.05 -1.44 -0.05 -3.27 -0.02 l-3 0.06 -0.42 0.19 c-0.46 0.22 -0.65 0.51 -0.56 0.86 0.15 0.58 0.85 0.78 2.68 0.78 0.71 0 1.51 0.04 1.78 0.08 0.57 0.09 1.27 0.41 1.65 0.74 0.22 0.19 0.25 0.24 0.15 0.31 -0.06 0.04 -0.32 0.08 -0.58 0.08 -0.26 0 -0.47 0.03 -0.47 0.08 0 0.05 -0.19 0.08 -0.41 0.08 -0.38 0 -0.41 -0.01 -0.41 -0.18 0 -0.24 -0.22 -0.27 -2.29 -0.34 -0.91 -0.03 -1.77 -0.10 -1.91 -0.14 -0.46 -0.14 -0.97 -0.55 -1.13 -0.89 -0.13 -0.25 -0.15 -0.43 -0.13 -0.86 0.03 -0.70 0.24 -1 0.94 -1.34 l0.50 -0.25 2.59 -0.05 c1.42 -0.03 3 -0.09 3.51 -0.14 1.47 -0.15 1.99 0.05 2.39 0.92 0.27 0.56 0.31 1.13 0.35 4.30 0.04 3.13 0.12 4.16 0.31 4.16 0.08 0 0.10 0.17 0.10 0.81 -0.01 0.44 -0.03 0.88 -0.06 0.98 l-0.05 0.17 -0.23 -0.22z"/>
  <path d="M76.72 43.78 c-0.33 -0.28 -0.51 -0.60 -0.75 -1.34 -0.30 -0.88 -0.59 -1.35 -1.02 -1.63 -0.56 -0.38 -0.92 -0.42 -3.07 -0.42 -2.12 0.01 -2.33 0.03 -2.91 0.41 -0.44 0.30 -0.74 0.76 -1 1.52 -0.22 0.70 -0.46 1.13 -0.73 1.39 l-0.18 0.17 -0.05 -0.28 c-0.02 -0.16 -0.05 -0.70 -0.05 -1.21 0 -0.92 0 -0.92 0.17 -0.90 0.14 0.01 0.20 -0.05 0.34 -0.33 0.38 -0.77 1.06 -1.30 1.89 -1.49 0.28 -0.06 1.13 -0.08 2.78 -0.06 2.27 0.03 2.38 0.04 2.85 0.21 0.62 0.22 1.16 0.75 1.47 1.41 0.17 0.37 0.25 0.47 0.39 0.47 0.17 0 0.17 0.01 0.16 0.85 0 0.46 -0.02 0.97 -0.05 1.12 l-0.05 0.27 -0.19 -0.16z"/>
  <path d="M34.67 42.96 c0.02 -0.84 0.17 -1.71 0.43 -2.63 0.13 -0.43 0.52 -0.98 0.92 -1.24 0.61 -0.41 1.03 -0.49 2.85 -0.54 1.34 -0.04 1.64 -0.07 1.70 -0.16 0.06 -0.09 0.26 -0.11 1.12 -0.11 0.58 0.01 1.08 0.03 1.11 0.07 0.10 0.10 -0.49 0.56 -0.92 0.71 -0.58 0.22 -1.40 0.31 -2.78 0.31 -1.70 0 -2.27 0.14 -2.78 0.69 -0.40 0.42 -0.52 0.79 -0.70 1.99 -0.04 0.29 -0.14 0.69 -0.22 0.88 -0.17 0.39 -0.57 0.94 -0.68 0.94 -0.05 0 -0.07 -0.35 -0.05 -0.92z"/>
  <path d="M6.83 42.07 c-0.90 -0.15 -1.61 -0.64 -1.96 -1.37 -0.33 -0.68 -0.40 -1.37 -0.36 -3.66 0.03 -1.81 0.05 -2.01 0.20 -2.46 0.28 -0.81 0.74 -1.29 1.51 -1.62 0.31 -0.13 0.58 -0.14 2.80 -0.17 2.11 -0.02 2.52 -0.01 2.89 0.10 0.97 0.28 1.49 0.76 1.78 1.61 0.13 0.38 0.14 0.66 0.14 3 0 2.56 0 2.60 -0.18 3.03 -0.34 0.86 -1.05 1.36 -2.20 1.54 -0.57 0.09 -4.06 0.08 -4.63 -0.01z m4.88 -0.92 c0.47 -0.17 0.86 -0.52 1.10 -0.98 l0.20 -0.38 0 -2.33 0 -2.33 -0.22 -0.44 c-0.25 -0.52 -0.62 -0.82 -1.24 -1.01 -0.35 -0.10 -0.74 -0.13 -2.37 -0.13 -2.35 0 -2.61 0.05 -3.19 0.64 -0.58 0.58 -0.64 0.83 -0.64 3.26 0 1.78 0.01 2.07 0.14 2.43 0.24 0.70 0.82 1.20 1.57 1.36 0.17 0.04 1.21 0.05 2.30 0.05 1.66 -0.01 2.05 -0.04 2.33 -0.15z"/>
  <path d="M54.49 42.08 c-1.05 -0.17 -1.66 -0.62 -2.08 -1.48 -0.18 -0.38 -0.23 -0.61 -0.28 -1.35 -0.16 -1.95 -0.05 -4.10 0.23 -4.85 0.22 -0.60 0.78 -1.16 1.38 -1.40 0.44 -0.18 0.49 -0.18 3.04 -0.18 2.47 0 2.61 0.01 3.02 0.17 0.82 0.31 1.22 0.74 1.49 1.59 0.14 0.42 0.17 0.75 0.19 2.23 0.05 1.85 -0.04 3.12 -0.25 3.75 -0.08 0.25 -0.26 0.50 -0.55 0.80 -0.34 0.34 -0.52 0.45 -0.94 0.59 -0.48 0.16 -0.67 0.17 -2.69 0.19 -1.19 0.01 -2.34 -0.01 -2.55 -0.05z m4.35 -0.83 c0.74 -0.14 1.24 -0.48 1.56 -1.08 0.16 -0.28 0.17 -0.41 0.19 -2.54 0.02 -2.53 -0.01 -2.80 -0.47 -3.33 -0.56 -0.65 -1.34 -0.81 -3.78 -0.76 -1.46 0.03 -1.67 0.05 -2.07 0.21 -0.56 0.21 -0.95 0.61 -1.18 1.17 -0.17 0.43 -0.18 0.52 -0.18 2.43 0 1.42 0.03 2.10 0.10 2.38 0.20 0.76 0.79 1.33 1.58 1.49 0.54 0.12 3.65 0.14 4.24 0.02z"/>
  <path d="M84.71 42.07 c-0.60 -0.09 -1.32 -0.45 -1.63 -0.82 -0.14 -0.17 -0.34 -0.49 -0.44 -0.73 -0.17 -0.41 -0.17 -0.52 -0.20 -2.81 -0.03 -2.61 0 -2.92 0.37 -3.66 0.29 -0.58 0.82 -0.98 1.55 -1.16 0.44 -0.10 0.87 -0.12 2.95 -0.10 2.35 0.02 2.44 0.03 2.88 0.20 0.68 0.26 1.18 0.81 1.40 1.52 0.17 0.52 0.17 0.65 0.17 2.91 0 2.27 -0.01 2.38 -0.17 2.92 -0.16 0.49 -0.24 0.62 -0.62 0.99 -0.34 0.34 -0.53 0.46 -0.94 0.59 -0.48 0.16 -0.68 0.17 -2.69 0.19 -1.19 0.01 -2.38 -0.01 -2.63 -0.05z m4.93 -0.92 c0.41 -0.16 0.87 -0.57 1.06 -0.96 0.24 -0.51 0.29 -1.09 0.26 -3.05 -0.02 -1.81 -0.04 -1.94 -0.19 -2.30 -0.20 -0.44 -0.62 -0.88 -0.99 -1.03 -0.52 -0.21 -1.46 -0.29 -3.13 -0.25 -1.42 0.03 -1.68 0.06 -2.03 0.19 -1.23 0.48 -1.49 1.24 -1.42 4.18 0.03 1.22 0.07 1.66 0.17 1.95 0.17 0.47 0.42 0.82 0.80 1.07 0.51 0.34 0.95 0.40 3.13 0.37 1.66 -0.01 2.05 -0.05 2.34 -0.15z"/>
  <path d="M15.82 41.74 c-0.02 -0.24 -0.01 -0.31 0.04 -0.43 0.10 -0.24 0.19 -0.14 0.19 0.20 0 0.25 -0.03 0.34 -0.11 0.34 -0.06 0 -0.12 -0.05 -0.12 -0.11z"/>
  <path d="M43.05 37.46 c0 -0.27 0.03 -0.49 0.07 -0.49 0.10 0 0.17 0.46 0.11 0.74 -0.08 0.41 -0.18 0.27 -0.18 -0.25z"/>
  <path d="M21.83 37.24 c-0.59 -0.13 -0.97 -0.33 -1.36 -0.74 -0.98 -0.99 -0.67 -2.79 0.59 -3.43 0.52 -0.26 1 -0.31 3.34 -0.31 2.49 0 2.95 0.06 3.57 0.47 0.76 0.51 1.08 1.47 0.82 2.50 -0.18 0.70 -1.02 1.34 -2.02 1.53 -0.56 0.10 -4.44 0.08 -4.95 -0.03z m5.27 -0.98 c1.05 -0.51 1.17 -1.66 0.23 -2.32 -0.44 -0.31 -1.21 -0.42 -2.92 -0.42 -1.70 -0.01 -2.33 0.08 -2.84 0.35 -0.62 0.34 -0.92 0.97 -0.74 1.54 0.12 0.36 0.67 0.85 1.07 0.95 0.17 0.05 0.36 0.10 0.40 0.11 0.05 0.01 1.03 0.02 2.21 0.01 l2.14 -0.01 0.44 -0.22z"/>
  <path d="M69.46 37.27 c-0.77 -0.14 -1.49 -0.62 -1.78 -1.22 -0.19 -0.39 -0.20 -0.48 -0.17 -1.12 0.02 -0.62 0.05 -0.74 0.25 -1.05 0.29 -0.47 0.70 -0.75 1.37 -0.95 0.50 -0.15 0.64 -0.16 2.99 -0.14 2.38 0.02 2.48 0.03 2.92 0.20 0.56 0.22 1.16 0.80 1.30 1.25 0.14 0.47 0.11 1.36 -0.05 1.72 -0.19 0.44 -0.82 0.97 -1.38 1.17 -0.44 0.17 -0.58 0.17 -2.75 0.19 -1.26 0.01 -2.47 -0.01 -2.68 -0.05z m5.18 -0.99 c1 -0.50 1.20 -1.40 0.47 -2.12 -0.52 -0.53 -0.86 -0.59 -3.16 -0.59 -2.27 0 -2.60 0.06 -3.16 0.58 -0.68 0.62 -0.60 1.45 0.19 2.01 0.45 0.32 0.88 0.38 3.11 0.35 l2.10 -0.01 0.44 -0.21z"/>
  <path d="M15.84 33.83 c-0.11 -0.18 -0.05 -0.52 0.10 -0.52 0.08 0 0.10 0.10 0.10 0.34 0 0.37 -0.06 0.42 -0.21 0.19z"/>
  <path d="M15.79 32.65 c-0.11 -0.25 -0.09 -0.40 0.05 -0.40 0.10 0 0.14 0.06 0.14 0.26 0 0.28 -0.10 0.34 -0.19 0.14z"/>
  <path d="M44.78 32.59 c0 -0.06 0.05 -0.11 0.11 -0.11 0.06 0 0.13 -0.08 0.16 -0.19 0.08 -0.31 0.25 -0.23 0.25 0.11 0 0.29 -0.01 0.30 -0.26 0.30 -0.18 0 -0.26 -0.04 -0.26 -0.11z"/>
 </g>
 <g fill="#bbbbbb">
  <path d="M4.36 44.53 c-0.22 -0.03 -0.58 -0.14 -0.79 -0.23 l-0.39 -0.17 5.51 -0.04 c5.42 -0.04 5.52 -0.04 5.86 -0.19 0.76 -0.35 1.27 -1.13 1.27 -1.98 0 -0.59 0.06 -0.82 0.19 -0.82 0.08 0 0.10 0.10 0.10 0.30 0 0.28 0.01 0.29 0.19 0.22 0.27 -0.10 0.67 -0.09 0.97 0.03 l0.26 0.11 0 -0.49 0 -0.48 0.22 0 0.22 0 0 0.71 c0 0.39 -0.03 0.71 -0.07 0.71 -0.04 0 -0.09 0.22 -0.12 0.49 -0.02 0.27 -0.08 0.49 -0.11 0.49 -0.03 0 -0.20 -0.05 -0.38 -0.11 -0.64 -0.22 -0.76 -0.19 -2.30 0.70 -0.74 0.43 -1.15 0.58 -1.82 0.68 -0.69 0.10 -8.27 0.16 -8.84 0.07z"/>
  <path d="M51.92 44.54 c-0.22 -0.04 -0.58 -0.14 -0.79 -0.24 l-0.39 -0.17 5.55 -0.04 5.55 -0.04 0.38 -0.20 c0.62 -0.33 0.97 -0.77 1.15 -1.51 0.10 -0.38 0.17 -0.50 0.38 -0.63 0.33 -0.22 0.85 -0.23 1.19 -0.02 0.14 0.08 0.33 0.15 0.43 0.15 0.19 0 0.19 0.01 0.19 0.63 0 0.60 -0.01 0.63 -0.18 0.68 -0.10 0.02 -0.34 -0.01 -0.52 -0.08 -0.55 -0.19 -0.90 -0.11 -1.66 0.36 -1.34 0.83 -1.90 1.03 -3.03 1.07 -1.64 0.07 -7.85 0.09 -8.23 0.03z"/>
  <path d="M83.01 44.47 c-0.63 -0.11 -1.05 -0.28 -1.97 -0.82 -1.16 -0.68 -1.32 -0.73 -1.87 -0.57 -0.23 0.07 -0.46 0.10 -0.50 0.08 -0.05 -0.02 -0.08 -0.32 -0.08 -0.67 l0 -0.62 0.36 -0.13 c0.48 -0.17 0.76 -0.16 1.15 0.06 0.18 0.10 0.39 0.21 0.47 0.23 0.09 0.03 0.13 0.10 0.10 0.19 -0.02 0.08 -0.01 0.14 0.02 0.16 0.03 0.01 0.08 0.10 0.09 0.21 0.01 0.10 0.05 0.20 0.07 0.22 0.03 0.02 0.12 0.18 0.21 0.36 0.09 0.18 0.25 0.35 0.34 0.39 0.10 0.04 0.19 0.10 0.19 0.15 0 0.04 0.05 0.08 0.11 0.08 0.06 0 0.11 0.03 0.11 0.06 0 0.03 0.19 0.10 0.44 0.15 0.32 0.08 1.56 0.09 5.15 0.08 4.64 -0.02 4.73 -0.02 5.07 -0.18 0.44 -0.20 0.82 -0.59 1.05 -1.05 l0.18 -0.37 0 -5.03 0 -5.03 -0.17 -0.24 c-0.10 -0.13 -0.17 -0.25 -0.17 -0.28 0 -0.02 -0.10 -0.14 -0.22 -0.24 -0.12 -0.10 -0.22 -0.23 -0.22 -0.29 0 -0.07 -0.03 -0.10 -0.07 -0.07 -0.04 0.02 -0.09 0.01 -0.12 -0.04 -0.03 -0.05 -0.08 -0.06 -0.12 -0.04 -0.04 0.03 -0.07 0.01 -0.07 -0.04 0 -0.05 -0.03 -0.06 -0.08 -0.04 -0.04 0.02 -0.08 -0.01 -0.08 -0.09 0 -0.11 -0.01 -0.12 -0.08 -0.02 -0.05 0.09 -0.08 0.09 -0.08 0.01 0 -0.07 -0.06 -0.08 -0.20 -0.05 -0.11 0.03 -0.22 0.02 -0.25 -0.03 -0.08 -0.12 -9.23 -0.12 -9.30 0 -0.03 0.05 -0.10 0.06 -0.17 0.04 -0.15 -0.06 -0.90 0.25 -0.84 0.35 0.05 0.09 -0.34 0.51 -0.47 0.51 -0.05 0 -0.08 0.05 -0.05 0.10 0.02 0.06 -0.02 0.17 -0.10 0.25 -0.08 0.08 -0.13 0.19 -0.11 0.23 0.01 0.05 -0.01 0.09 -0.05 0.09 -0.04 0 -0.05 0.08 -0.04 0.18 0.03 0.14 -0.03 0.23 -0.32 0.45 -0.41 0.31 -0.60 0.38 -1 0.32 -0.47 -0.06 -0.72 -0.28 -0.77 -0.69 -0.03 -0.19 -0.11 -0.47 -0.19 -0.62 -0.17 -0.33 -0.95 -1.10 -1.06 -1.03 -0.05 0.02 -0.08 0.01 -0.08 -0.04 0 -0.05 -0.03 -0.06 -0.08 -0.04 -0.04 0.02 -0.08 0.01 -0.08 -0.04 0 -0.05 -0.06 -0.07 -0.15 -0.04 -0.09 0.03 -0.20 0.01 -0.26 -0.04 -0.14 -0.11 -9.28 -0.12 -9.32 0 -0.01 0.04 -0.10 0.05 -0.20 0.03 -0.19 -0.05 -0.79 0.22 -0.79 0.36 0 0.12 -0.38 0.51 -0.50 0.51 -0.05 0 -0.08 0.05 -0.05 0.10 0.02 0.06 -0.02 0.17 -0.10 0.25 -0.08 0.08 -0.14 0.25 -0.15 0.40 -0.01 0.21 -0.09 0.33 -0.40 0.62 -0.37 0.34 -0.41 0.36 -0.82 0.36 -0.60 0 -0.83 -0.19 -0.96 -0.80 -0.05 -0.24 -0.17 -0.56 -0.25 -0.71 -0.24 -0.38 -0.73 -0.90 -0.82 -0.85 -0.04 0.03 -0.07 0.01 -0.07 -0.05 0 -0.05 -0.02 -0.08 -0.05 -0.05 -0.03 0.02 -0.10 -0.01 -0.17 -0.07 -0.07 -0.08 -0.18 -0.10 -0.29 -0.07 -0.10 0.02 -0.23 0.01 -0.29 -0.05 -0.08 -0.07 -1 -0.08 -3.69 -0.06 -5 0.04 -5.82 0.03 -6.49 -0.05 -0.52 -0.05 -0.58 -0.08 -0.45 -0.17 0.08 -0.05 0.36 -0.17 0.63 -0.26 0.47 -0.15 0.59 -0.16 4.57 -0.14 3.91 0.01 4.82 0.06 5.40 0.25 0.47 0.15 1.09 0.49 1.66 0.92 0.69 0.53 1.04 0.71 1.36 0.71 0.25 0 0.51 -0.15 1.42 -0.86 0.58 -0.44 1.04 -0.68 1.66 -0.86 0.41 -0.11 0.90 -0.13 4.36 -0.13 4.24 0 4.40 0.01 5.26 0.42 0.25 0.12 0.71 0.41 1.01 0.64 1.08 0.82 1.49 0.90 2.17 0.41 2.13 -1.55 2.02 -1.53 7.16 -1.49 3.94 0.03 3.99 0.04 4.90 0.50 0.88 0.45 1.46 1.27 1.69 2.35 0.17 0.80 0.17 7.78 0.01 8.54 -0.22 1.03 -0.83 1.88 -1.69 2.35 -0.83 0.45 -0.81 0.44 -5.11 0.47 -2.17 0.01 -4.09 -0.01 -4.29 -0.05z"/>
  <path d="M49.59 43.20 c-0.60 -0.58 -0.73 -0.61 -1.28 -0.31 l-0.44 0.23 -0.05 -0.23 c-0.06 -0.30 -0.06 -10.77 0 -10.99 l0.05 -0.17 0.40 0.22 c0.57 0.33 0.70 0.31 1.33 -0.27 l0.55 -0.49 0.05 0.36 c0.02 0.19 0.06 0.65 0.08 1.01 0.03 0.62 0.02 0.65 -0.12 0.68 -0.10 0.01 -0.17 0.09 -0.18 0.19 -0.02 0.13 0.01 0.17 0.15 0.17 l0.17 0 0 3.71 0 3.71 -0.17 0 c-0.14 0 -0.17 0.05 -0.17 0.22 0 0.32 0.08 0.46 0.23 0.46 0.14 0 0.14 0.05 0.11 0.40 -0.02 0.21 -0.06 0.65 -0.08 0.98 -0.03 0.31 -0.08 0.58 -0.10 0.58 -0.03 -0.01 -0.26 -0.20 -0.52 -0.45z"/>
  <path d="M2.40 43.20 c-0.34 -0.66 -0.35 -0.95 -0.34 -5.96 0.01 -4.53 0.02 -4.74 0.17 -5.14 0.08 -0.23 0.19 -0.49 0.25 -0.58 0.29 -0.47 0.29 -0.39 0.29 5.91 0 5.31 -0.01 6.07 -0.11 6.07 -0.06 0 -0.18 -0.14 -0.26 -0.30z"/>
  <path d="M31.05 42.72 l0 -0.64 0.25 -0.14 c0.36 -0.19 1 -0.17 1.46 0.05 0.35 0.17 0.39 0.20 0.39 0.44 0 0.14 -0.03 0.25 -0.08 0.25 -0.04 0 -0.08 0.16 -0.08 0.34 l0 0.34 -0.31 -0.07 c-0.18 -0.03 -0.47 -0.06 -0.66 -0.06 -0.19 0 -0.48 0.03 -0.65 0.06 l-0.32 0.07 0 -0.64z"/>
  <path d="M29.15 42.55 c-0.10 -0.20 -0.25 -0.56 -0.35 -0.80 -0.28 -0.70 -0.73 -1.25 -1.25 -1.52 -0.70 -0.37 -1.10 -0.41 -3.48 -0.38 l-2.14 0.02 -0.47 0.22 c-0.67 0.31 -1.10 0.80 -1.55 1.80 -0.44 0.94 -0.47 0.92 -0.48 -0.28 -0.01 -0.77 0 -0.81 0.19 -1.05 0.38 -0.44 0.86 -0.87 1.18 -1.07 l0.33 -0.19 3.26 0 3.26 0 0.44 0.29 c0.52 0.34 0.82 0.64 1.18 1.21 0.27 0.41 0.27 0.41 0.27 1.25 0 0.70 -0.02 0.85 -0.11 0.85 -0.06 0 -0.19 -0.16 -0.28 -0.35z"/>
  <path d="M45.95 42.63 c-0.30 -0.62 -0.35 -1.29 -0.40 -4.53 -0.04 -3.21 -0.08 -3.77 -0.35 -4.34 -0.38 -0.82 -0.88 -1.04 -2.02 -0.91 -0.38 0.05 -1.90 0.10 -3.36 0.13 l-2.66 0.05 -0.50 0.25 c-0.58 0.28 -0.89 0.64 -0.94 1.10 -0.08 0.70 0.54 1.37 1.46 1.58 0.26 0.06 0.87 0.10 1.52 0.10 1.41 0 2.33 0.11 2.81 0.33 l0.38 0.17 -0.35 0.05 c-0.20 0.03 -0.36 0.08 -0.36 0.13 0 0.04 -1.01 0.07 -2.55 0.07 l-2.55 0 0 -0.21 c0 -0.16 -0.05 -0.25 -0.19 -0.32 -0.36 -0.19 -0.91 -0.86 -1 -1.22 -0.10 -0.42 -0.10 -0.62 0 -1.09 0.09 -0.44 0.52 -0.97 1.03 -1.30 l0.34 -0.21 4.40 0 4.40 0 0.05 -0.73 0.05 -0.74 0.47 0.02 0.48 0.03 0.05 0.48 c0.03 0.26 0.08 0.48 0.12 0.48 0.04 0 0.07 0.82 0.07 1.84 0 1.42 -0.02 1.84 -0.09 1.84 -0.07 0 -0.06 0.03 0.01 0.08 0.08 0.05 0.08 0.08 0.02 0.08 -0.07 0 -0.10 0.15 -0.10 0.49 0 0.28 0.03 0.49 0.08 0.49 0.05 0 0.08 0.26 0.08 0.64 0 0.38 -0.03 0.64 -0.08 0.64 -0.11 0 -0.09 0.65 0.02 0.70 0.08 0.04 0.08 0.05 0 0.09 -0.12 0.05 -0.14 1.68 -0.02 1.68 0.05 0 0.08 0.08 0.08 0.19 0 0.10 -0.03 0.19 -0.08 0.19 -0.05 0 -0.08 0.25 -0.08 0.58 -0.01 0.31 -0.03 0.76 -0.05 0.98 l-0.05 0.41 -0.14 -0.29z"/>
  <path d="M76.82 42.75 c-0.05 -0.08 -0.19 -0.41 -0.32 -0.74 -0.44 -1.13 -0.93 -1.68 -1.75 -1.97 -0.43 -0.16 -0.61 -0.17 -2.60 -0.20 -2.33 -0.03 -2.70 0.01 -3.33 0.34 -0.63 0.34 -0.92 0.76 -1.52 2.12 l-0.21 0.49 -0.05 -0.71 c-0.08 -0.96 -0.02 -1.24 0.31 -1.66 0.31 -0.40 0.57 -0.62 1.03 -0.92 l0.32 -0.19 3.22 0 c3.13 0 3.24 0.01 3.54 0.16 0.38 0.19 0.98 0.75 1.28 1.19 0.13 0.19 0.25 0.36 0.29 0.38 0.03 0.02 0.03 0.31 -0.01 0.64 -0.04 0.32 -0.08 0.74 -0.09 0.92 -0.02 0.29 -0.03 0.31 -0.12 0.17z"/>
  <path d="M34.65 41.28 l0 -1.39 0.22 -0.31 c0.28 -0.42 0.82 -0.90 1.20 -1.10 0.29 -0.16 0.40 -0.16 3.02 -0.14 l2.72 0.02 -0.45 0.18 c-0.41 0.17 -0.61 0.18 -2.17 0.23 -1.91 0.06 -2.33 0.14 -2.94 0.55 -0.62 0.41 -0.94 1.03 -1.15 2.23 -0.08 0.47 -0.32 1.13 -0.41 1.13 -0.02 0 -0.05 -0.63 -0.05 -1.39z"/>
  <path d="M6.22 42.49 c-0.68 -0.25 -1.30 -0.75 -1.73 -1.37 l-0.22 -0.31 0 -3.36 0 -3.36 0.19 -0.30 c0.30 -0.46 0.63 -0.78 1.06 -1.06 l0.39 -0.25 3.35 0 3.35 0 0.41 0.25 c0.44 0.28 0.95 0.88 1.10 1.28 0.05 0.14 0.14 0.26 0.19 0.26 0.08 0 0.10 0.62 0.10 3.15 0 2.02 -0.03 3.15 -0.08 3.15 -0.04 0 -0.17 0.19 -0.29 0.44 -0.25 0.51 -0.80 1.04 -1.37 1.34 l-0.41 0.21 -2.89 0.01 c-2.27 0.01 -2.95 -0.01 -3.16 -0.08z m5.02 -0.64 c1.15 -0.19 1.85 -0.68 2.20 -1.54 0.18 -0.44 0.18 -0.49 0.18 -2.81 0 -2.12 -0.01 -2.41 -0.14 -2.78 -0.29 -0.86 -0.82 -1.33 -1.78 -1.61 -0.37 -0.10 -0.76 -0.12 -2.66 -0.10 -1.99 0.02 -2.27 0.04 -2.57 0.17 -0.77 0.33 -1.22 0.81 -1.51 1.62 -0.15 0.44 -0.17 0.67 -0.20 2.23 -0.04 2.05 0.04 2.77 0.36 3.44 0.35 0.73 1.06 1.22 1.96 1.37 0.57 0.09 3.61 0.10 4.18 0.01z"/>
  <path d="M13.57 42.41 c0 -0.17 0.03 -0.19 0.34 -0.19 0.19 0 0.34 0.03 0.34 0.07 0 0.11 -0.31 0.31 -0.50 0.31 -0.14 0 -0.17 -0.05 -0.17 -0.19z"/>
  <path d="M53.61 42.42 c-0.63 -0.26 -1.16 -0.71 -1.59 -1.36 l-0.19 -0.30 0 -3.34 0 -3.34 0.38 -0.51 c0.25 -0.34 0.53 -0.61 0.84 -0.80 l0.46 -0.30 3.35 0 3.35 0 0.34 0.21 c0.47 0.30 0.93 0.83 1.18 1.34 l0.20 0.44 0 2.96 0 2.96 -0.24 0.51 c-0.29 0.62 -0.82 1.15 -1.42 1.46 l-0.44 0.21 -2.89 0.01 c-2.88 0.02 -2.89 0.02 -3.32 -0.16z m5.89 -0.71 c0.67 -0.22 1.30 -0.81 1.49 -1.39 0.21 -0.64 0.30 -1.84 0.25 -3.49 -0.03 -1.27 -0.07 -1.63 -0.19 -2.03 -0.27 -0.85 -0.68 -1.28 -1.49 -1.59 -0.41 -0.16 -0.55 -0.17 -2.79 -0.17 -2.31 0 -2.37 0.01 -2.81 0.18 -0.60 0.24 -1.15 0.80 -1.39 1.40 -0.24 0.64 -0.35 2.40 -0.25 4.03 0.08 1.14 0.10 1.28 0.30 1.72 0.42 0.87 1.03 1.31 2.09 1.49 0.21 0.04 1.25 0.05 2.33 0.05 1.78 -0.02 2 -0.04 2.47 -0.19z"/>
  <path d="M82.44 42.48 c-0.24 -0.17 -0.20 -0.25 0.10 -0.25 0.23 0 0.26 0.02 0.26 0.19 0 0.22 -0.12 0.24 -0.36 0.07z"/>
  <path d="M83.84 42.43 c-0.51 -0.21 -0.75 -0.38 -1.19 -0.83 -0.18 -0.19 -0.38 -0.34 -0.43 -0.34 -0.08 0 -0.10 -0.74 -0.10 -3.79 0 -2.22 0.03 -3.79 0.07 -3.79 0.04 0 0.28 -0.21 0.55 -0.47 0.77 -0.77 0.52 -0.73 4.39 -0.73 l3.38 0 0.47 0.32 c0.52 0.35 0.88 0.82 1.11 1.44 0.15 0.40 0.16 0.57 0.16 3.26 l0 2.84 -0.30 0.60 c-0.34 0.69 -0.75 1.10 -1.42 1.42 l-0.42 0.21 -2.92 0.01 c-2.91 0.02 -2.92 0.02 -3.35 -0.15z m5.96 -0.72 c0.41 -0.14 0.60 -0.25 0.94 -0.59 0.38 -0.37 0.46 -0.50 0.62 -0.99 0.17 -0.53 0.17 -0.67 0.17 -2.70 0 -2.03 -0.01 -2.17 -0.17 -2.68 -0.22 -0.71 -0.73 -1.26 -1.40 -1.52 -0.43 -0.17 -0.55 -0.18 -2.65 -0.20 -1.87 -0.02 -2.29 -0.01 -2.71 0.10 -0.74 0.18 -1.27 0.58 -1.56 1.16 -0.36 0.74 -0.40 1.07 -0.37 3.43 0.03 2.05 0.04 2.17 0.20 2.58 0.24 0.59 0.61 0.99 1.15 1.26 0.66 0.32 1.10 0.37 3.32 0.34 1.78 -0.02 2 -0.04 2.47 -0.19z"/>
  <path d="M21.25 37.63 c-0.44 -0.17 -1.05 -0.63 -1.48 -1.13 l-0.34 -0.41 0 -1.10 c0 -1.24 -0.04 -1.14 0.68 -1.85 0.70 -0.71 0.48 -0.68 4.33 -0.68 l3.37 0 0.34 0.21 c0.44 0.28 0.94 0.84 1.14 1.27 0.24 0.53 0.23 1.63 -0.02 2.14 -0.24 0.50 -0.89 1.12 -1.46 1.40 l-0.48 0.23 -2.87 0.01 c-2.52 0.01 -2.90 -0.01 -3.19 -0.12z m5.30 -0.58 c1.42 -0.27 2.32 -1.31 2.04 -2.38 -0.20 -0.77 -0.82 -1.33 -1.73 -1.54 -0.73 -0.18 -4.75 -0.15 -5.25 0.05 -0.72 0.27 -1.20 0.76 -1.41 1.46 -0.10 0.32 -0.10 0.41 0.01 0.83 0.21 0.79 0.87 1.35 1.83 1.56 0.51 0.11 3.94 0.14 4.50 0.03z"/>
  <path d="M68.86 37.67 c-0.41 -0.14 -1.28 -0.82 -1.59 -1.25 l-0.26 -0.37 0 -1.02 c0 -0.97 0.01 -1.03 0.20 -1.36 0.24 -0.41 0.68 -0.82 1.10 -1.04 0.29 -0.14 0.43 -0.15 3.64 -0.15 3.26 0 3.35 0.01 3.65 0.16 0.43 0.22 0.96 0.79 1.18 1.25 0.10 0.22 0.20 0.39 0.23 0.39 0.02 0 0.04 0.30 0.04 0.67 -0.01 0.59 -0.04 0.73 -0.25 1.16 -0.27 0.56 -0.76 1.03 -1.45 1.39 l-0.44 0.24 -2.89 0.01 c-2.13 0.01 -2.95 -0.01 -3.16 -0.08z m5.81 -0.76 c0.56 -0.20 1.18 -0.73 1.38 -1.17 0.17 -0.35 0.18 -0.83 0.05 -1.27 -0.14 -0.45 -0.74 -1.03 -1.30 -1.25 -0.43 -0.17 -0.55 -0.18 -2.68 -0.20 -2.12 -0.02 -2.27 -0.01 -2.78 0.14 -1.01 0.31 -1.54 0.88 -1.61 1.76 -0.06 0.83 0.34 1.44 1.27 1.92 0.47 0.24 0.98 0.28 3.13 0.26 1.93 -0.01 2.09 -0.03 2.53 -0.19z"/>
  <path d="M17.55 34.46 c0 -0.60 -0.03 -1.09 -0.07 -1.09 -0.04 0 -0.10 0.05 -0.16 0.11 -0.11 0.14 -0.82 0.16 -1.06 0.04 -0.14 -0.08 -0.14 -0.05 -0.14 0.68 0 0.68 -0.01 0.75 -0.14 0.75 -0.13 0 -0.14 -0.08 -0.14 -1.10 -0.01 -1.25 -0.05 -1.44 -0.40 -1.97 -0.25 -0.38 -0.90 -0.88 -1.03 -0.80 -0.04 0.03 -0.09 0.01 -0.12 -0.02 -0.02 -0.05 -0.09 -0.06 -0.15 -0.03 -0.07 0.02 -0.17 0 -0.22 -0.05 -0.09 -0.08 -0.89 -0.09 -3.66 -0.08 -5.57 0.05 -5.90 0.04 -6.53 -0.03 -0.52 -0.06 -0.58 -0.08 -0.46 -0.17 0.08 -0.05 0.36 -0.17 0.63 -0.27 0.49 -0.17 0.52 -0.17 4.51 -0.15 2.20 0.01 4.20 0.04 4.43 0.06 1.01 0.10 1.68 0.38 2.53 1.01 1.39 1.06 1.54 1.07 2.72 0.13 0.63 -0.50 1.18 -0.80 1.85 -1.01 0.41 -0.12 0.77 -0.14 4.42 -0.14 3.53 0 4.03 0.01 4.44 0.13 0.55 0.15 1.17 0.46 1.90 0.92 0.87 0.56 1.27 0.58 1.92 0.08 l0.36 -0.28 0.05 0.33 c0.03 0.17 0.08 0.43 0.10 0.55 0.05 0.20 0 0.28 -0.41 0.74 -0.45 0.50 -0.47 0.50 -0.84 0.50 -0.50 0 -0.80 -0.18 -0.86 -0.52 -0.03 -0.14 -0.13 -0.41 -0.22 -0.60 -0.19 -0.39 -0.76 -1 -0.86 -0.93 -0.04 0.02 -0.07 0 -0.07 -0.05 0 -0.05 -0.03 -0.06 -0.08 -0.04 -0.04 0.02 -0.08 0.01 -0.08 -0.04 0 -0.05 -0.03 -0.06 -0.08 -0.04 -0.04 0.02 -0.08 0.01 -0.08 -0.04 0 -0.06 -0.07 -0.08 -0.20 -0.05 -0.11 0.03 -0.22 0.02 -0.25 -0.03 -0.06 -0.10 -9.22 -0.12 -9.29 -0.02 -0.02 0.03 -0.17 0.07 -0.31 0.08 -0.23 0.01 -0.91 0.32 -0.70 0.32 0.05 0 -0.01 0.05 -0.11 0.10 -0.10 0.05 -0.19 0.14 -0.19 0.20 0 0.15 -0.20 0.45 -0.30 0.45 -0.10 0 -0.12 0.14 -0.16 1.90 l-0.04 1.55 -0.22 0 -0.22 0 0 -1.09z"/>
  <path d="M34.61 30.89 c-0.17 -0.03 -0.49 -0.06 -0.71 -0.07 l-0.41 -0.01 0.34 -0.17 c0.66 -0.34 0.91 -0.36 5.10 -0.32 4.09 0.03 4.28 0.05 5.21 0.38 0.28 0.10 0.14 0.11 -1.76 0.16 -3.67 0.08 -7.45 0.10 -7.76 0.04z"/>
 </g>
 <g fill="#acacac">
  <path d="M49.98 42.49 c-0.26 -0.60 -0.28 -0.91 -0.17 -3.08 0.08 -1.68 0.08 -2.44 -0.01 -4.11 -0.09 -2.03 -0.09 -2.06 0.07 -2.58 0.21 -0.69 0.31 -0.75 0.31 -0.17 0 0.25 0.03 0.46 0.08 0.46 0.11 0 0.10 0.80 -0.01 0.85 -0.08 0.03 -0.08 0.05 0 0.05 0.10 0.01 0.13 0.23 0.01 0.23 -0.05 0 -0.08 1.09 -0.08 3.11 0 1.71 0.03 3.11 0.06 3.11 0.04 0 0.07 0.05 0.07 0.11 0 0.06 -0.03 0.11 -0.07 0.11 -0.03 0 -0.06 0.05 -0.06 0.11 0 0.06 0.03 0.11 0.07 0.11 0.04 0 0.07 0.25 0.08 0.56 0.01 0.32 -0.02 0.56 -0.06 0.56 -0.05 0 -0.08 0.21 -0.10 0.47 l-0.02 0.47 -0.16 -0.38z"/>
  <path d="M4.57 42.45 c-0.14 -0.11 -0.16 -0.17 -0.08 -0.21 0.08 -0.05 0.06 -0.10 -0.06 -0.20 -0.14 -0.12 -0.15 -0.22 -0.14 -1.08 l0 -0.94 0.12 0.30 c0.41 1.01 1.39 1.83 2.48 2.07 0.21 0.05 0.39 0.12 0.39 0.16 0 0.03 -0.57 0.06 -1.27 0.06 -1.15 0 -1.28 -0.01 -1.44 -0.15z"/>
  <path d="M11.25 42.54 c0 -0.04 0.19 -0.11 0.44 -0.17 1.15 -0.25 2.02 -1.06 2.38 -2.21 l0.10 -0.30 0 0.25 c0.01 0.17 0.05 0.24 0.13 0.24 0.10 0 0.11 0.12 0.09 0.93 -0.01 0.76 -0.05 0.95 -0.16 1.08 -0.08 0.09 -0.19 0.14 -0.28 0.11 -0.08 -0.02 -0.14 0 -0.14 0.05 0 0.06 -0.38 0.08 -1.27 0.08 -0.70 0 -1.27 -0.03 -1.27 -0.06z"/>
  <path d="M52.07 42.42 c-0.20 -0.17 -0.21 -0.21 -0.23 -0.98 -0.01 -0.44 -0.01 -0.88 0.02 -0.99 0.05 -0.18 0.06 -0.17 0.32 0.28 0.50 0.85 1.32 1.46 2.25 1.66 0.21 0.05 0.39 0.12 0.39 0.16 0 0.03 -0.57 0.06 -1.27 0.06 -1.24 0 -1.28 -0.01 -1.49 -0.18z"/>
  <path d="M58.80 42.53 c0 -0.03 0.19 -0.10 0.41 -0.14 0.60 -0.12 1.19 -0.43 1.61 -0.84 0.40 -0.39 0.80 -1.11 0.87 -1.59 0.03 -0.17 0.09 -0.28 0.15 -0.28 0.08 0 0.10 0.24 0.10 1.25 l0 1.25 -0.22 0.22 -0.22 0.22 -1.36 0 c-0.75 0 -1.36 -0.03 -1.36 -0.07z"/>
  <path d="M82.57 42.52 c0 -0.04 -0.03 -0.06 -0.08 -0.03 -0.08 0.05 -0.25 -0.20 -0.34 -0.48 -0.03 -0.10 -0.03 -0.53 0 -0.96 l0.05 -0.78 0.21 0.44 c0.38 0.82 1.29 1.49 2.27 1.68 0.23 0.05 0.43 0.12 0.43 0.15 0 0.04 -0.57 0.07 -1.27 0.07 -0.85 0 -1.27 -0.03 -1.27 -0.08z"/>
  <path d="M89.10 42.54 c0 -0.04 0.25 -0.12 0.56 -0.19 0.62 -0.15 1.29 -0.53 1.64 -0.95 0.25 -0.29 0.72 -1.23 0.72 -1.43 0 -0.08 0.05 -0.14 0.11 -0.14 0.10 0 0.11 0.18 0.11 1.17 l0 1.17 -0.22 0.22 -0.22 0.22 -1.36 0 c-0.75 0 -1.36 -0.03 -1.36 -0.06z"/>
  <path d="M32.60 42.26 c-0.45 -0.23 -0.75 -0.25 -1.15 -0.04 -0.17 0.09 -0.33 0.16 -0.34 0.16 -0.02 0 -0.05 -2.23 -0.06 -4.95 -0.01 -3.80 0 -4.93 0.07 -4.83 0.15 0.21 0.57 0.48 0.74 0.48 0.11 0 0.32 -0.17 0.64 -0.52 0.26 -0.28 0.52 -0.52 0.57 -0.52 0.08 0 0.09 0.44 0.05 2.35 -0.05 3.01 -0.05 3.41 0 5.96 0.04 1.73 0.03 2.12 -0.05 2.12 -0.05 -0.01 -0.26 -0.09 -0.47 -0.19z"/>
  <path d="M80.25 42.25 c-0.14 -0.10 -0.38 -0.24 -0.52 -0.30 -0.24 -0.10 -0.28 -0.10 -0.63 0.09 -0.27 0.14 -0.39 0.17 -0.44 0.10 -0.03 -0.05 -0.05 -2.20 -0.06 -4.77 l-0.01 -4.68 0.31 0.26 c0.52 0.44 0.80 0.41 1.37 -0.13 0.14 -0.14 0.30 -0.23 0.34 -0.22 0.13 0.05 0.11 9.59 -0.01 9.72 -0.08 0.08 -0.14 0.07 -0.35 -0.08z"/>
  <path d="M15.83 39.42 c-0.01 -1.61 0 -3.77 0.03 -4.78 l0.06 -1.85 0.14 0.19 c0.18 0.22 0.52 0.41 0.76 0.41 0.10 0 0.34 -0.15 0.59 -0.38 0.41 -0.37 0.58 -0.46 0.58 -0.30 0 0.05 -0.05 0.08 -0.11 0.08 -0.10 0 -0.11 0.19 -0.11 1.27 0 1.08 0.01 1.27 0.11 1.27 0.10 0 0.11 0.37 0.11 2.85 0 2.48 -0.01 2.85 -0.11 2.85 -0.09 0 -0.11 0.12 -0.11 0.64 l0 0.64 -0.39 -0.24 c-0.52 -0.32 -0.78 -0.31 -1.20 0.03 l-0.32 0.26 -0.03 -2.93z"/>
  <path d="M2.55 41.36 c0 -0.78 0.01 -0.94 0.11 -0.94 0.10 0 0.11 0.16 0.11 0.94 0 0.78 -0.01 0.94 -0.11 0.94 -0.10 0 -0.11 -0.16 -0.11 -0.94z"/>
  <path d="M63.45 37.53 l0 -4.78 0.34 0.31 c0.47 0.43 0.66 0.41 1.18 -0.07 0.22 -0.20 0.45 -0.38 0.50 -0.38 0.06 0 0.08 0.75 0.08 2.63 0 2.19 -0.01 2.63 -0.10 2.63 -0.13 0 -0.19 0.37 -0.14 0.88 0.02 0.26 0.07 0.39 0.14 0.39 0.08 0 0.10 0.28 0.10 1.46 0 1.22 -0.01 1.46 -0.10 1.46 -0.06 0 -0.12 0.04 -0.14 0.09 -0.02 0.06 -0.17 0.01 -0.45 -0.15 -0.22 -0.14 -0.47 -0.24 -0.53 -0.24 -0.06 0 -0.28 0.12 -0.50 0.26 l-0.38 0.26 0 -4.77z"/>
  <path d="M29.15 41.15 c-0.32 -0.57 -1.04 -1.26 -1.60 -1.52 -0.25 -0.12 -0.47 -0.24 -0.47 -0.27 -0.01 -0.04 0.34 -0.06 0.76 -0.06 l0.76 0 0.47 0.40 0.47 0.39 0 0.74 c0 0.86 -0.08 0.92 -0.41 0.33z"/>
  <path d="M47.86 37.39 c0 -3.29 0.02 -4.16 0.09 -4.01 0.07 0.14 0.09 1.22 0.09 4.01 0 2.80 -0.02 3.88 -0.09 4.01 -0.07 0.15 -0.09 -0.72 -0.09 -4.01z"/>
  <path d="M76.65 41.08 c-0.34 -0.58 -1.06 -1.25 -1.60 -1.49 -0.23 -0.10 -0.43 -0.21 -0.43 -0.24 0 -0.04 0.35 -0.06 0.79 -0.06 l0.79 0 0.28 0.26 c0.21 0.19 0.33 0.24 0.45 0.21 0.19 -0.05 0.18 -0.08 0.17 0.84 -0.01 0.33 -0.04 0.62 -0.08 0.64 -0.03 0.02 -0.07 0.09 -0.08 0.16 -0.02 0.08 -0.12 -0.04 -0.29 -0.32z"/>
  <path d="M19.47 41.04 c-0.02 -0.15 -0.05 -0.52 -0.05 -0.82 0 -0.49 0.01 -0.55 0.14 -0.55 0.08 0 0.25 -0.08 0.38 -0.19 0.21 -0.19 0.26 -0.19 1.03 -0.17 l0.81 0.02 -0.51 0.25 c-0.57 0.28 -1.21 0.86 -1.54 1.38 l-0.22 0.35 -0.05 -0.28z"/>
  <path d="M67.05 40.97 c0 -0.20 -0.02 -0.58 -0.05 -0.83 -0.05 -0.44 -0.05 -0.46 0.13 -0.46 0.09 0 0.26 -0.08 0.37 -0.19 0.19 -0.19 0.23 -0.19 1.02 -0.17 l0.82 0.02 -0.37 0.18 c-0.60 0.30 -1.09 0.71 -1.51 1.28 l-0.41 0.53 0 -0.37z"/>
  <path d="M34.65 39.66 l0 -0.77 0.34 -0.28 0.35 -0.28 0.86 0 0.86 0 -0.60 0.30 c-0.67 0.33 -1.31 0.95 -1.56 1.49 -0.08 0.17 -0.17 0.31 -0.19 0.31 -0.04 0 -0.06 -0.34 -0.06 -0.76z"/>
  <path d="M20.14 37.63 c-0.12 -0.09 -0.25 -0.21 -0.28 -0.25 -0.03 -0.05 -0.14 -0.10 -0.24 -0.10 -0.19 0 -0.19 -0.01 -0.18 -0.62 0.01 -0.60 0.11 -1.61 0.14 -1.29 0.05 0.73 1.25 1.90 2.18 2.14 0.21 0.05 0.38 0.14 0.38 0.19 0 0.08 -0.20 0.10 -0.88 0.09 -0.79 0 -0.91 -0.02 -1.11 -0.17z"/>
  <path d="M26.52 37.73 c-0.03 -0.04 0.06 -0.09 0.19 -0.12 0.50 -0.10 1.31 -0.56 1.73 -0.96 0.80 -0.78 0.99 -1.66 0.56 -2.54 -0.25 -0.51 -0.94 -1.18 -1.43 -1.38 -0.19 -0.08 -0.34 -0.17 -0.34 -0.20 0 -0.04 0.44 -0.05 0.98 -0.04 0.97 0.02 0.98 0.02 1.16 0.23 l0.18 0.21 0 1.93 -0.01 1.93 -0.22 0.25 c-0.12 0.13 -0.25 0.24 -0.27 0.24 -0.03 0 -0.18 0.12 -0.34 0.26 l-0.29 0.26 -0.93 0 c-0.52 0 -0.95 -0.03 -0.98 -0.07z"/>
  <path d="M67.69 37.60 c-0.66 -0.55 -0.64 -0.49 -0.63 -1.57 0.01 -0.78 0.02 -0.91 0.08 -0.64 0.15 0.76 1.22 1.82 2.11 2.09 0.71 0.21 0.56 0.31 -0.44 0.31 -0.83 -0.01 -0.90 -0.01 -1.11 -0.19z"/>
  <path d="M74.25 37.69 c0 -0.06 0.06 -0.11 0.14 -0.11 0.24 0 1.15 -0.50 1.56 -0.86 0.52 -0.46 0.85 -1.11 0.85 -1.68 0 -0.84 -0.70 -1.85 -1.56 -2.25 -0.22 -0.10 -0.39 -0.22 -0.39 -0.25 0 -0.04 0.41 -0.05 0.93 -0.04 0.87 0.02 0.94 0.04 1.13 0.20 0.19 0.17 0.19 0.22 0.19 1 0 0.49 -0.03 0.81 -0.08 0.81 -0.05 0 -0.08 0.20 -0.08 0.45 0 0.25 0.03 0.45 0.08 0.45 0.05 0 0.08 0.31 0.08 0.79 0 0.52 -0.03 0.79 -0.08 0.79 -0.05 0 -0.29 0.19 -0.56 0.41 l-0.47 0.41 -0.88 0 c-0.72 0 -0.87 -0.02 -0.87 -0.11z"/>
  <path d="M34.80 36.64 c0 -0.16 0.04 -0.19 0.20 -0.19 l0.20 0 -0.18 -0.13 c-0.37 -0.25 -0.37 -0.28 -0.38 -1.90 l0 -1.54 0.21 -0.20 c0.20 -0.19 0.24 -0.20 1.05 -0.20 0.47 0 0.84 0.02 0.84 0.06 0 0.03 -0.19 0.15 -0.41 0.27 -0.91 0.47 -1.41 1.32 -1.22 2.06 0.15 0.60 0.98 1.35 1.77 1.59 l0.41 0.13 -0.48 0.05 c-0.26 0.02 -0.49 0.08 -0.50 0.12 -0.01 0.05 -0.31 0.08 -0.77 0.08 -0.74 0 -0.74 0 -0.74 -0.19z"/>
  <path d="M61.69 34.90 c-0.16 -0.84 -0.96 -1.86 -1.72 -2.17 -0.19 -0.08 -0.34 -0.17 -0.34 -0.19 0 -0.04 0.39 -0.06 0.86 -0.06 0.92 0 1.23 0.08 1.39 0.37 0.04 0.08 0.08 0.64 0.08 1.24 0 0.88 -0.02 1.10 -0.10 1.10 -0.06 0 -0.13 -0.11 -0.16 -0.28z"/>
  <path d="M91.95 34.71 c-0.26 -0.88 -0.80 -1.53 -1.58 -1.93 -0.58 -0.29 -0.50 -0.33 0.64 -0.29 0.86 0.02 0.88 0.03 1.06 0.23 0.17 0.20 0.18 0.26 0.18 1.26 0 0.82 -0.02 1.04 -0.10 1.04 -0.06 0 -0.15 -0.14 -0.20 -0.31z"/>
  <path d="M14.11 34.85 c-0.01 -0.07 -0.11 -0.35 -0.23 -0.62 -0.27 -0.59 -0.86 -1.20 -1.41 -1.46 -0.22 -0.10 -0.40 -0.21 -0.40 -0.24 0 -0.04 0.39 -0.06 0.86 -0.06 1.33 0 1.46 0.12 1.46 1.31 0 0.57 -0.02 0.71 -0.10 0.71 -0.07 0 -0.12 0.10 -0.14 0.25 -0.01 0.13 -0.04 0.18 -0.04 0.10z"/>
  <path d="M67.06 33.93 c-0.01 -1.04 -0.01 -1.06 0.19 -1.24 0.17 -0.16 0.27 -0.18 0.94 -0.20 1.03 -0.04 1.10 0.01 0.46 0.32 -0.80 0.40 -1.36 1.10 -1.51 1.86 -0.05 0.23 -0.06 0.03 -0.07 -0.74z"/>
  <path d="M4.28 33.88 l0 -0.94 0.26 -0.23 c0.26 -0.23 0.28 -0.23 1.09 -0.23 0.46 0 0.82 0.02 0.82 0.06 -0.01 0.03 -0.18 0.14 -0.40 0.24 -0.54 0.25 -1.25 0.98 -1.54 1.57 l-0.24 0.48 0 -0.94z"/>
  <path d="M19.48 34.24 c-0.14 -1.58 -0.01 -1.76 1.29 -1.76 0.42 0 0.76 0.03 0.76 0.06 0 0.04 -0.17 0.14 -0.38 0.23 -0.44 0.19 -1.05 0.73 -1.29 1.11 -0.09 0.16 -0.20 0.43 -0.25 0.62 l-0.09 0.33 -0.05 -0.58z"/>
  <path d="M51.88 34.49 c-0.03 -0.10 -0.05 -0.48 -0.05 -0.84 0 -0.65 0 -0.66 0.26 -0.92 l0.25 -0.26 0.83 0 c0.76 0 1.03 0.08 0.68 0.19 -0.08 0.02 -0.34 0.17 -0.60 0.34 -0.45 0.29 -1.04 0.98 -1.25 1.46 -0.09 0.21 -0.09 0.21 -0.14 0.04z"/>
  <path d="M82.16 33.94 c-0.06 -0.79 -0.01 -1.03 0.28 -1.27 0.20 -0.17 0.28 -0.19 1 -0.19 0.43 0 0.78 0.03 0.78 0.06 0 0.04 -0.17 0.14 -0.38 0.23 -0.54 0.24 -1.15 0.83 -1.41 1.36 l-0.22 0.44 -0.05 -0.63z"/>
  <path d="M45.92 33.65 c-0.10 -0.47 -0.17 -0.93 -0.17 -1.04 0 -0.20 0.25 -0.58 0.33 -0.50 0.03 0.02 0.04 0.57 0.03 1.22 l-0.02 1.17 -0.17 -0.84z"/>
  <path d="M2.55 33.53 c0 -0.75 0.02 -0.90 0.11 -0.90 0.10 0 0.11 0.15 0.11 0.90 0 0.75 -0.01 0.90 -0.11 0.90 -0.09 0 -0.11 -0.15 -0.11 -0.90z"/>
  <path d="M4.32 30.91 c-0.07 -0.10 0.24 -0.16 0.94 -0.16 0.68 0 0.88 0.04 0.88 0.17 0 0.05 -0.05 0.04 -0.11 -0.01 -0.08 -0.07 -0.11 -0.07 -0.11 -0.01 0 0.10 -1.54 0.12 -1.61 0.01z"/>
  <path d="M34.99 30.91 c-0.06 -0.10 0.14 -0.16 0.56 -0.16 0.44 0 0.82 0.08 0.82 0.16 0 0.09 -1.33 0.09 -1.38 0z"/>
  <path d="M52.03 30.93 c-0.13 -0.13 0.10 -0.18 0.82 -0.18 0.64 0 0.78 0.02 0.78 0.11 0 0.09 -0.14 0.11 -0.77 0.11 -0.43 0 -0.80 -0.02 -0.82 -0.05z"/>
 </g>
 <g fill="#9e9d9e">
  <path d="M4.72 42.52 c0 -0.04 -0.03 -0.06 -0.07 -0.03 -0.14 0.08 -0.38 -0.35 -0.38 -0.70 l0 -0.34 0.52 0.52 c0.29 0.28 0.52 0.55 0.52 0.58 0 0.04 -0.14 0.06 -0.30 0.06 -0.17 0 -0.30 -0.04 -0.30 -0.08z"/>
  <path d="M52.33 42.52 c-0.01 -0.04 -0.08 -0.08 -0.14 -0.09 -0.24 -0.04 -0.30 -0.14 -0.30 -0.52 l0 -0.38 0.49 0.48 c0.27 0.26 0.49 0.51 0.49 0.54 0 0.09 -0.51 0.07 -0.54 -0.02z"/>
  <path d="M13.88 42.22 c0.23 -0.19 0.45 -0.19 0.44 -0.01 0 0.08 -0.02 0.09 -0.05 0.04 -0.05 -0.13 -0.21 -0.12 -0.32 0.01 -0.05 0.06 -0.14 0.11 -0.18 0.11 -0.05 0 0 -0.07 0.10 -0.15z"/>
  <path d="M61.28 42.36 c0.01 -0.01 0.13 -0.10 0.24 -0.21 0.16 -0.14 0.19 -0.15 0.16 -0.05 -0.05 0.13 -0.25 0.28 -0.38 0.28 -0.03 0 -0.04 -0.01 -0.02 -0.01z"/>
  <path d="M91.82 42.17 c0.17 -0.18 0.25 -0.22 0.17 -0.10 -0.02 0.05 0.01 0.08 0.08 0.08 0.23 0 0.07 0.17 -0.17 0.18 l-0.24 0.01 0.16 -0.17z"/>
  <path d="M28.82 39.89 c-0.30 -0.25 -0.54 -0.49 -0.54 -0.52 0 -0.04 0.28 -0.07 0.64 -0.07 l0.64 0 0 0.52 c0 0.38 -0.03 0.52 -0.10 0.52 -0.05 0 -0.34 -0.20 -0.64 -0.46z"/>
  <path d="M76.79 40.20 c-0.05 -0.08 -0.13 -0.15 -0.16 -0.15 -0.10 0 -0.80 -0.63 -0.76 -0.69 0.02 -0.03 0.31 -0.06 0.64 -0.06 l0.59 0 0 0.52 c0 0.41 -0.02 0.52 -0.11 0.52 -0.06 0 -0.15 -0.07 -0.20 -0.15z"/>
  <path d="M19.48 40.01 c-0.03 -0.16 -0.05 -0.38 -0.05 -0.50 0 -0.21 0 -0.21 0.52 -0.21 0.50 0 0.52 0.01 0.45 0.15 -0.05 0.08 -0.20 0.24 -0.36 0.35 -0.15 0.11 -0.33 0.28 -0.40 0.35 -0.11 0.14 -0.12 0.14 -0.17 -0.15z"/>
  <path d="M67 39.81 l0.01 -0.47 0.48 -0.02 c0.26 -0.01 0.51 0.01 0.54 0.04 0.05 0.05 -0.90 0.92 -1 0.92 -0.02 0 -0.04 -0.21 -0.03 -0.47z"/>
  <path d="M17.63 39.67 c-0.14 -0.62 -0.13 -2.08 0.02 -2.55 l0.11 -0.34 0.01 0.47 c0.01 0.28 0.05 0.48 0.10 0.50 0.08 0.04 0.08 0.05 0 0.09 -0.11 0.05 -0.14 0.33 -0.03 0.33 0.11 0 0.15 0.38 0.04 0.43 -0.16 0.06 -0.14 0.52 0.03 0.58 0.12 0.05 0.12 0.05 0 0.14 -0.08 0.06 -0.14 0.22 -0.15 0.47 l-0.02 0.37 -0.11 -0.49z"/>
  <path d="M65.18 39.60 c-0.14 -0.62 -0.13 -1.93 0.02 -2.44 l0.11 -0.38 0.01 0.44 c0.01 0.33 0.04 0.43 0.12 0.43 0.09 0 0.11 0.14 0.11 0.86 0 0.70 -0.02 0.86 -0.10 0.86 -0.08 0 -0.12 0.10 -0.14 0.36 l-0.02 0.35 -0.11 -0.49z"/>
  <path d="M78.65 39.49 c-0.07 -0.67 -0.07 -1.42 0 -2.10 l0.05 -0.52 0.10 0.41 c0.13 0.52 0.13 1.71 0 2.29 l-0.09 0.45 -0.05 -0.52z"/>
  <path d="M31.05 38.68 c0 -1.22 0.09 -1.56 0.18 -0.66 0.05 0.46 -0.06 1.71 -0.15 1.80 -0.01 0.01 -0.03 -0.50 -0.03 -1.14z"/>
  <path d="M34.65 38.78 l0 -0.45 0.56 0 c0.31 0 0.56 0.01 0.56 0.03 0 0.05 -1.02 0.87 -1.08 0.87 -0.02 0 -0.05 -0.20 -0.05 -0.45z"/>
  <path d="M32.86 38.63 c-0.18 -0.86 -0.05 -2.70 0.19 -2.70 0.08 0 0.10 0.31 0.10 1.54 0 1.27 -0.01 1.54 -0.10 1.54 -0.07 0 -0.14 -0.14 -0.19 -0.38z"/>
  <path d="M19.43 37.45 c0.01 -0.20 0.03 -0.45 0.06 -0.56 l0.05 -0.21 0.36 0.32 c0.19 0.17 0.46 0.39 0.58 0.49 0.12 0.10 0.22 0.21 0.22 0.25 0 0.04 -0.28 0.07 -0.64 0.07 l-0.64 0 0.01 -0.35z"/>
  <path d="M28.13 37.72 c0 -0.09 0.60 -0.66 0.70 -0.67 0.04 0 0.15 -0.10 0.25 -0.22 0.10 -0.12 0.25 -0.22 0.33 -0.22 0.13 0 0.14 0.06 0.14 0.60 l0 0.60 -0.71 0 c-0.47 0 -0.71 -0.03 -0.71 -0.08z"/>
  <path d="M67.04 37.60 c0 -0.12 -0.01 -0.26 -0.03 -0.33 -0.01 -0.07 0 -0.24 0.03 -0.38 l0.05 -0.25 0.29 0.28 c0.17 0.15 0.43 0.38 0.58 0.51 0.15 0.14 0.28 0.27 0.28 0.31 0 0.04 -0.27 0.07 -0.60 0.07 l-0.60 0 -0.01 -0.20z"/>
  <path d="M75.68 37.73 c0 -0.09 1.01 -0.98 1.12 -0.98 0.05 0 0.08 -0.03 0.08 -0.08 0 -0.04 0.05 -0.08 0.10 -0.08 0.08 0 0.12 0.14 0.16 0.49 0.08 0.72 0.08 0.71 -0.75 0.71 -0.39 0 -0.71 -0.03 -0.71 -0.07z"/>
  <path d="M34.65 36.27 c0 -0.31 0.03 -0.58 0.07 -0.61 0.04 -0.02 0.14 0.04 0.21 0.13 0.08 0.10 0.31 0.31 0.53 0.47 l0.40 0.30 -0.41 0.07 c-0.23 0.03 -0.42 0.09 -0.42 0.13 0 0.04 -0.08 0.07 -0.19 0.07 -0.18 0 -0.19 -0.01 -0.19 -0.56z"/>
  <path d="M4.28 33.20 c0 -0.31 0.13 -0.50 0.43 -0.63 0.44 -0.18 0.43 -0.01 -0.01 0.43 -0.41 0.40 -0.41 0.41 -0.41 0.20z"/>
  <path d="M51.90 33.17 c0 -0.14 0.03 -0.31 0.08 -0.39 0.08 -0.16 0.52 -0.33 0.62 -0.24 0.07 0.07 -0.27 0.50 -0.40 0.50 -0.05 0 -0.14 0.08 -0.19 0.19 l-0.10 0.19 0 -0.25z"/>
  <path d="M34.65 32.85 l0 -0.38 0.25 0 c0.51 0 0.54 0.07 0.19 0.42 -0.18 0.18 -0.35 0.33 -0.38 0.33 -0.03 0 -0.06 -0.17 -0.06 -0.38z"/>
 </g>
</svg>